<?xml version="1.0" encoding="UTF-8"?>
<svg width="287px" height="38px" viewBox="0 0 287 38" version="1.1" xmlns="http://www.w3.org/2000/svg" xmlns:xlink="http://www.w3.org/1999/xlink">
    <!-- Generator: Sketch 57.1 (83088) - https://sketch.com -->
    <title>Logo Vocatinest</title>
    <desc>Created with Sketch.</desc>
    <g id="Page-1" stroke="none" stroke-width="1" fill="none" fill-rule="evenodd">
        <g id="Home" transform="translate(-102.000000, -51.000000)">
            <g id="Logo-Vocatinest" transform="translate(102.000000, 51.000000)">
                <g id="Group" transform="translate(34.000000, 0.000000)">
                    <polygon id="Path-2" fill="#00618F" fill-rule="nonzero" transform="translate(16.005208, 7.111111) scale(-1, 1) translate(-16.005208, -7.111111) " points="13.0422454 4.14814815 18.9681713 4.14814815 17.3346385 10.0740741 14.6568539 10.0740741"></polygon>
                    <path d="M7.62426288,24.3821933 C3.0039996,19.7616757 3.00544633,12.2396807 7.62498625,7.62379266 C12.2452495,3.00414306 19.7625811,3.00414306 24.3813976,7.62147784 C28.9986228,12.2396807 28.9970314,19.7532845 24.3813976,24.3806019 C19.7618577,28.9863626 12.2452495,29.0025663 7.62426288,24.3821933 Z M27.3199869,4.6790572 C21.0795355,-1.55995095 10.9275717,-1.55995095 4.68639695,4.68064864 C-1.56099876,10.9196568 -1.56172212,21.0793847 4.68176743,27.3208524 C10.926125,33.5598605 21.0795355,33.5598605 27.3199869,27.3199843 C33.5604384,21.0786614 33.5595703,10.9187887 27.3199869,4.6790572 L27.3199869,4.6790572 Z" id="Fill-519" fill="#0099E2"></path>
                </g>
                <path d="M26.0875324,0.58490566 L32.9344262,0.58490566 L19.1973037,31 L13.7804573,31 L0,0.58490566 L7.02023296,0.58490566 L16.5538827,22.6304563 L26.0875324,0.58490566 Z M87.3828876,31 C84.3253401,31 81.6607418,30.3568529 79.3890126,29.0705394 C77.1172834,27.7842259 75.3742217,25.9691219 74.1597753,23.6251729 C72.9453289,21.2812239 72.3381148,18.5657139 72.3381148,15.4785615 C72.3381148,12.3914092 72.9453289,9.67589923 74.1597753,7.33195021 C75.3742217,4.98800119 77.1172834,3.18004324 79.3890126,1.90802213 C81.6607418,0.636001017 84.3253401,0 87.3828876,0 C89.3831523,0 91.2976627,0.30728139 93.1264761,0.921853389 C94.9552895,1.53642539 96.4554656,2.38680877 97.6270492,3.47302905 L95.4839191,8.23236515 C94.1694595,7.2318991 92.8621632,6.50299906 91.5619912,6.04564315 C90.2618191,5.58828725 88.9116607,5.35961272 87.5114754,5.35961272 C84.8254057,5.35961272 82.7608777,6.21714219 81.3178296,7.93222683 C79.8747815,9.6473029 79.1532683,12.1627312 79.1532683,15.4785615 C79.1532683,18.7943919 79.8747815,21.3169577 81.3178296,23.0463347 C82.7608777,24.7757117 84.8254057,25.6403873 87.5114754,25.6403873 C88.9116607,25.6403873 90.2618191,25.4117128 91.5619912,24.9543568 C92.8621632,24.4970009 94.1694595,23.7681009 95.4839191,22.7676349 L97.6270492,27.526971 C96.4554656,28.6131912 94.9552895,29.4635746 93.1264761,30.0781466 C91.2976627,30.6927186 89.3831523,31 87.3828876,31 Z M126.235446,31 L123.32987,24.2698515 L109.105558,24.2698515 L106.199982,31 L99.3913934,31 L113.442239,0.58490566 L118.863089,0.58490566 L132.913934,31 L126.235446,31 Z M111.153689,19.3018868 L121.151639,19.3018868 L116.152664,8.18867925 L111.153689,19.3018868 Z M140.124733,31 L140.124733,6.06393684 L130.561475,6.06393684 L130.561475,0.58490566 L156.438525,0.58490566 L156.438525,6.06393684 L146.875267,6.06393684 L146.875267,31 L140.124733,31 Z M161.143443,31 L161.143443,0.58490566 L167.612705,0.58490566 L167.612705,31 L161.143443,31 Z M195.997891,0.58490566 L202.311475,0.58490566 L202.311475,31 L197.295203,31 L182.116653,11.629252 L182.116653,31 L175.846311,31 L175.846311,0.58490566 L180.819341,0.58490566 L195.997891,19.8693697 L195.997891,0.58490566 Z M209.956967,31 L209.956967,0.58490566 L231.129098,0.58490566 L231.129098,5.80508497 L216.578704,5.80508497 L216.578704,12.9235113 L230.257817,12.9235113 L230.257817,18.1436906 L216.578704,18.1436906 L216.578704,25.7798207 L231.129098,25.7798207 L231.129098,31 L209.956967,31 Z M247.858844,31 C245.543583,31 243.315178,30.6927186 241.173561,30.0781466 C239.031944,29.4635746 237.252114,28.6131912 235.834016,27.526971 L238.004563,22.7676349 C240.956521,24.7971517 244.270189,25.8118949 247.945666,25.8118949 C249.855757,25.8118949 251.324478,25.5046135 252.351876,24.8900415 C253.379273,24.2754695 253.892964,23.4250861 253.892964,22.3388658 C253.892964,21.3669845 253.422683,20.6095002 252.482108,20.06639 C251.541534,19.5232799 249.870229,18.9944701 247.468146,18.4799447 C244.776655,17.9368345 242.627835,17.2793953 241.021623,16.5076072 C239.41541,15.7358191 238.243327,14.7853906 237.505337,13.6562932 C236.767348,12.5271958 236.398358,11.1337105 236.398358,9.4757953 C236.398358,7.64637167 236.912049,6.0170657 237.939447,4.58782849 C238.966844,3.15859129 240.406625,2.03665691 242.258834,1.2219917 C244.111043,0.407326494 246.252628,0 248.683652,0 C250.854209,0 252.945148,0.314427469 254.956531,0.94329184 C256.967915,1.57215621 258.566868,2.41539351 259.753439,3.47302905 L257.582893,8.23236515 C254.775639,6.20284831 251.823725,5.18810512 248.727063,5.18810512 C246.961676,5.18810512 245.57254,5.52397082 244.559614,6.19571231 C243.546687,6.8674538 243.040231,7.78929797 243.040231,8.96127248 C243.040231,9.6473029 243.235578,10.2118466 243.626278,10.6549101 C244.016979,11.0979736 244.668136,11.491008 245.57977,11.8340249 C246.491404,12.1770418 247.786484,12.5343458 249.465049,12.9059474 C253.400993,13.7634898 256.22991,14.8639859 257.951886,16.2074689 C259.673861,17.5509519 260.534836,19.4089324 260.534836,21.7814661 C260.534836,24.6399405 259.420633,26.8909554 257.192194,28.5345781 C254.963755,30.1782009 251.85267,31 247.858844,31 Z M270.686208,31 L270.686208,6.06393684 L261.122951,6.06393684 L261.122951,0.58490566 L287,0.58490566 L287,6.06393684 L277.436743,6.06393684 L277.436743,31 L270.686208,31 Z" id="VOCATINEST" fill="#043D69" fill-rule="nonzero"></path>
                <path d="M48.3109178,10.5 L52.1693732,10.5 L55.54159,32.8541832 L49.9881309,36.5917022 L44.4498054,33.2928275 L48.3109178,10.5 Z" id="Path-3" stroke="#FFFFFF" fill="#00618F" transform="translate(50.000000, 23.500000) scale(-1, 1) translate(-50.000000, -23.500000) "></path>
                <polygon id="Path-4" fill="#0099E2" points="48.2425723 11 49.6794948 11 50 36 45 32.6159877"></polygon>
                <path d="M46.8088379,4.15876606 C48.218469,3.09882046 49.1410357,2.56884766 49.5765381,2.56884766 C50.0120404,2.56884766 50.1264575,5.04589844 49.9197891,10 L48.4044189,10 L46.8088379,4.15876606 Z" id="Path-5" fill="#0099E2"></path>
            </g>
        </g>
    </g>
</svg>