<?xml version="1.0" encoding="UTF-8"?>
<svg width="238px" height="273px" viewBox="0 0 238 273" version="1.1" xmlns="http://www.w3.org/2000/svg" xmlns:xlink="http://www.w3.org/1999/xlink">
    <!-- Generator: Sketch 57.1 (83088) - https://sketch.com -->
    <title>step 1</title>
    <desc>Created with Sketch.</desc>
    <defs>
        <ellipse id="path-1" cx="23.984191" cy="23.8615511" rx="23.984191" ry="23.8615511"></ellipse>
    </defs>
    <g id="Page-1" stroke="none" stroke-width="1" fill="none" fill-rule="evenodd">
        <g id="Home" transform="translate(-165.000000, -1156.000000)">
            <g id="step-1" transform="translate(165.000000, 1156.000000)">
                <rect id="Rectangle" fill="#67A4E5" x="0" y="0" width="238" height="238" rx="47"></rect>
                <g id="Group-22" transform="translate(88.000000, 218.000000)">
                    <circle id="Oval" fill="#195B9F" cx="27.5" cy="27.5" r="27.5"></circle>
                    <polygon id="1" fill="#FFFFFF" fill-rule="nonzero" points="31.0634615 34.4439716 36 34.4439716 36 39 20.1115385 39 20.1115385 34.4439716 25.0480769 34.4439716 25.0480769 23.2411348 21.1576923 25.3631206 19 21.2439716 26.8134615 17 31.0634615 17"></polygon>
                </g>
                <g id="Group-6" transform="translate(80.000000, 40.000000)">
                    <g id="Group-3" transform="translate(0.500000, 0.000000)">
                        <rect id="Rectangle" fill="#FFFFFF" x="0" y="0" width="78" height="110" rx="9"></rect>
                        <rect id="Rectangle" fill="#DEE8EF" opacity="0.788643973" x="7.86743516" y="67.6064909" width="62.4899135" height="4.68559838"></rect>
                        <rect id="Rectangle-Copy" fill="#DEE8EF" opacity="0.788643973" x="7.86743516" y="80.7707911" width="62.4899135" height="4.68559838"></rect>
                        <rect id="Rectangle-Copy-2" fill="#DEE8EF" opacity="0.788643973" x="7.86743516" y="94.158215" width="62.4899135" height="4.68559838"></rect>
                    </g>
                    <g id="Fill-293-+-Fill-299-Mask" transform="translate(13.500000, 9.000000)">
                        <mask id="mask-2" fill="white">
                            <use xlink:href="#path-1"></use>
                        </mask>
                        <use id="Mask" fill="#3976B9" xlink:href="#path-1"></use>
                        <path d="M24.210457,42.0800742 C24.2107134,42.0363136 24.3238464,41.7647184 24.5498559,41.2652885 L23.984191,37.1673969 L23.974091,37.1681769 C23.8521134,37.1642767 23.7542206,37.1416556 23.6710894,37.108114 C23.3781879,37.2063988 22.7815078,37.4029683 22.0473117,37.6198187 C21.2563999,37.8553901 21.0396372,37.4934526 21.0038985,37.2415004 C20.9899138,37.1377554 21.1297607,36.6814334 21.1654994,36.5004646 C21.1996842,36.3280763 20.764605,36.383459 21.0295371,35.6135618 L21.009337,35.5831403 L21.009337,35.3421087 L20.871044,35.3421087 C20.871044,35.3421087 15.7200171,36.0215215 13.2750274,38.7110915 L13.2726966,38.7087513 C13.2726966,38.7087513 9.2031523,41.8398226 8.37184026,63.7058392 L12.3473764,63.7058392 C12.3473764,63.7058392 12.5936623,53.5723695 14.6719424,46.9506296 L14.5880343,54.5442965 L23.9111599,54.5442965 C24.1104349,46.2785756 24.2102006,42.1238349 24.210457,42.0800742 Z" id="Fill-293" fill="#ECECEA" mask="url(#mask-2)"></path>
                        <path d="M30.9984356,42.9815196 L30.9984356,45.9570064 C30.9984356,46.0613825 30.8917142,46.1473393 30.7610011,46.1473393 L27.6147875,46.1473393 C27.4840744,46.1473393 27.3781803,46.0613825 27.3781803,45.9570064 L27.3781803,42.5455958 L30.9984356,42.5455958 L30.9984356,42.9815196 Z M39.5965418,63.7058392 L39.5941348,63.6284623 C39.1031148,51.2794145 37.550625,44.9134023 36.2925868,41.713592 C36.1594016,39.8588901 34.905375,38.5333214 33.362513,37.5969823 C32.029859,36.6239086 30.0713952,35.7547857 27.2047047,35.3421087 L27.2047047,35.5273444 L27.2006931,35.5320339 L27.1405191,35.6266057 C27.3643665,36.325343 26.9447529,36.2792294 26.9792527,36.4464887 C27.0153571,36.6278165 27.1605771,37.0850439 27.1461353,37.1889947 C27.107624,37.4414468 26.8845789,37.8041024 26.0662122,37.5680636 C25.2959847,37.3476565 24.6733842,37.1475707 24.3781303,37.0514357 C24.2898751,37.0866071 24.1855734,37.1100546 24.0596091,37.1147441 L24.0596091,42.0371683 L23.984191,42.0371683 L23.984191,54.5261199 L33.5839534,54.5261199 L33.4772448,47.3324088 C35.2688261,53.7500056 35.4902665,63.7058392 35.4902665,63.7058392 L39.5965418,63.7058392 L39.5965418,63.7058392 Z" id="Fill-299" fill="#FAF9F8" mask="url(#mask-2)"></path>
                    </g>
                    <path d="M37.5446139,43 C38.2328687,43 38.8883123,43 39.3586068,43 L39.3586068,41.5028489 C38.65629,41.6520173 38.336771,41.8863916 37.5446139,41.8887345 C37.3266535,41.8902965 36.6844906,41.72543 36.4719988,41.7043434 C36.7477695,41.7144962 37.4578985,41.8660859 37.7453874,41.8528092 C43.8458779,30.7504939 46.7581076,25.0889569 46.4820765,24.868198 C46.0680299,24.5370597 34.2314598,19.2494193 32.0885732,20.0905418 C29.7558503,21.0066389 26.3020765,22.4553689 27.5543722,25.2005365 L25.8630309,28.0979964 L25.8435004,28.1331408 C25.8435004,28.1331408 25.774753,27.8683864 25.6942873,27.4130713 C25.0763423,27.6715778 24.0724746,28.4033622 24.6974506,30.3511425 C25.2693037,32.1302298 26.2356728,32.6441189 26.8317437,32.7862584 C28.1770046,36.9489165 30.8550268,40.7780934 35.1642365,41.5661088 L35.1642365,43 C35.6821854,43 36.3563782,43 37.0383833,43 C37.1110368,43 37.1836902,43 37.2555625,43 C37.3524338,43 37.4485238,43 37.5446139,43 Z" id="Fill-306" fill="#FFD7B4"></path>
                    <path d="M39.5,46.0121396 L39.5,44 C39.2410882,44 38.9793621,44 38.717636,44 L36.5,45.7526555 C37.0318949,45.8831563 37.3724203,45.9757208 37.3724203,45.9757208 L39.4465291,46.0121396 L39.4634146,49 L39.4774859,46.0121396 L39.5,46.0121396" id="Fill-307" fill="#ECECEA"></path>
                    <path d="M39.4148376,47.7797357 L39.4675154,48 L39.5122915,47.7797357 C39.5122915,47.7797357 39.8994732,47.5044053 40.5,47.1372981 L38.4745391,43 C38.1505707,43 37.8266023,43 37.5,43 L37.5,47.8678414 L39.4148376,47.7797357" id="Fill-308" fill="#FAF9F8"></path>
                    <path d="M47.5,33 C48.233702,32.8919308 49.5091548,32.4495677 50.2535749,30.7384726 C51.0652267,28.8688761 49.6757724,28.212536 48.9167367,28 C48.865095,28.2881844 48.8183252,28.4524496 48.8183252,28.4524496 L48.8085814,28.4394813 C48.6176045,29.9142651 48.1937528,31.4834294 47.5,33 Z" id="Fill-309" fill="#FFD7B4"></path>
                    <path d="M46.8014249,22.6139824 C46.619892,22.7022424 46.4338397,22.7835951 46.2334756,22.8503656 L46.2229301,22.8549705 C42.3911556,24.9179514 37.3700019,22.0452812 37.3700019,22.0452812 L37.3150148,22 L37.3150148,34.7224832 L37.3700019,34.8007659 C37.3700019,34.8007659 37.3516728,34.8304417 37.3150148,34.8897934 L37.3150148,41.9646885 C37.0378193,41.9777356 36.7658967,41.7571867 36.5,41.7472095 C36.7048836,41.7679314 36.9112736,42.0015274 37.1214299,42 C37.8852238,41.99769 38.4410115,41.9267994 39.1181818,41.7802111 C43.4094379,40.8454228 46.16493,36.9788686 47.4883874,32.999495 C48.0247003,31.3839538 48.3523633,29.7123866 48.5,28.1413591 L46.8375808,25.5288639 C47.2993221,24.498141 47.3286988,22.7283366 46.8014249,22.6139824 Z" id="Fill-310" fill="#FFE1C8"></path>
                    <path d="M34.5718108,47.9980375 C35.9237158,48.0593631 36.9196001,46.6532544 37.5,47.9980375 L37.5,43 C36.7624613,43 36.0333709,43 35.473247,43 C34.9950718,43 34.6385525,43 34.5,43 L34.5718108,47.9980375 Z" id="Fill-311" fill="#CCCBCD"></path>
                    <path d="M37.5718108,47.9980375 C38.9237158,48.0593631 39.9196001,46.6532544 40.5,47.9980375 L40.5,43 C39.7624613,43 39.0333709,43 38.473247,43 C37.9950718,43 37.6385525,43 37.5,43 L37.5718108,47.9980375 Z" id="Fill-311-Copy" fill="#E2E2E2"></path>
                    <path d="M25.8808843,28.9650465 L27.5880702,26.0833267 C26.3240429,23.353072 29.8101719,21.9122121 32.1647481,21.0010915 C34.3277094,20.1645384 37.0245112,22.182519 37.4424367,22.5118584 L37.5,22.5576863 L37.5,15.0077357 C36.1208461,14.9238474 34.0272762,15.549903 34.0272762,15.549903 C24.6034518,17.6113812 25.2792293,25.8021454 25.7105599,28.2838421 C25.7917794,28.7366838 25.8611708,29 25.8611708,29 L25.8808843,28.9650465" id="Fill-313" fill="#0A0B09"></path>
                    <path d="M46.4297079,22.5349008 L46.4403448,22.5301526 C46.6424466,22.4613047 46.8301125,22.3774211 47.0132198,22.2864152 C47.5450666,22.4043271 47.5154351,24.2291923 47.0496893,25.2919824 L48.7265263,27.9857556 L48.7341241,28 C48.7341241,28 48.7705936,27.819571 48.810862,27.5030289 C48.9415443,26.4877201 49.1102158,24.0471806 48.1984784,21.4744847 C50.2498875,19.6116345 50.6062248,16.5142701 50.4763023,16.5609601 C50.3182678,16.618729 48.1924001,17.1402321 48.1924001,17.1402321 C45.2170971,14.7060234 40.4289563,14.4171788 40.4145205,14.4345886 L40.4145205,14.4361713 C39.7489522,14.2541596 38.451246,13.9463224 37.5,14.0080481 L37.5,21.700021 C37.5,21.700021 42.5647011,24.6620636 46.4297079,22.5349008" id="Fill-314" fill="#2A2B29"></path>
                    <polygon id="Fill-321" fill="#ECECEA" points="39.5 55.056 44.5 55.056 44.5 49.944 39.5 49.944"></polygon>
                </g>
                <text id="Buat-Profilmu" font-family="NunitoSans-Black, Nunito Sans" font-size="16" font-weight="700" letter-spacing="0.32" fill="#FFFFFF">
                    <tspan x="66" y="193">Buat Profilmu</tspan>
                </text>
            </g>
        </g>
    </g>
</svg>