<?xml version="1.0" encoding="UTF-8"?>
<svg width="238px" height="273px" viewBox="0 0 238 273" version="1.1" xmlns="http://www.w3.org/2000/svg" xmlns:xlink="http://www.w3.org/1999/xlink">
    <!-- Generator: Sketch 57.1 (83088) - https://sketch.com -->
    <title>step 2</title>
    <desc>Created with Sketch.</desc>
    <g id="Page-1" stroke="none" stroke-width="1" fill="none" fill-rule="evenodd">
        <g id="Home" transform="translate(-456.000000, -1156.000000)">
            <g id="step-2" transform="translate(453.000000, 1156.000000)">
                <rect id="Rectangle-Copy-5" fill="#67A4E5" x="3" y="0" width="238" height="238" rx="47"></rect>
                <text id="Temukan-Minat-mu-den" font-family="NunitoSans-Black, Nunito Sans" font-size="16" font-weight="700" letter-spacing="0.32" fill="#FFFFFF">
                    <tspan x="47.132" y="174">Temukan Minat-mu</tspan>
                    <tspan x="82.78" y="196">dengan AI</tspan>
                </text>
                <g id="Group-18" transform="translate(68.000000, 31.000000)">
                    <circle id="Oval-Copy-14" fill="#FFFFFF" cx="53.5" cy="53.5" r="53.5"></circle>
                    <g id="glass" transform="translate(30.000000, 18.000000)">
                        <path d="M0.443267108,66.1285145 L15.2302183,41 L21,44.2401073 L6.21328088,69.3686218 C5.29752356,70.9254239 3.26340978,71.4618145 1.67000132,70.5667723 C0.0765928633,69.6721835 -0.472722288,67.68509 0.443267108,66.1285145 Z" id="Fill-87" fill="#04203E"></path>
                        <path d="M44.2636816,30.8818864 C39.5765325,39.279172 29.166825,42.1732691 21.0131708,37.3464272 C12.859295,32.5191289 10.0488667,21.7988986 14.7360159,13.4016131 C19.423165,5.00455569 29.8328725,2.11023042 37.9865267,6.93752868 C46.1404025,11.7643706 48.9506092,22.4846009 44.2636816,30.8818864 M40.2128893,2.94881804 C29.9199506,-3.1444623 16.7798025,0.509041482 10.8629249,11.108789 C5.5637919,20.6027418 7.85773418,32.4481628 15.7889294,39.194971 C15.0818909,39.0089985 14.3132551,39.3184202 13.9317069,40.0018406 C13.4726083,40.8244551 13.7480231,41.8745722 14.5465712,42.3471477 L20.3302837,45.7713234 C21.1288317,46.2438989 22.1482878,45.9604905 22.6073864,45.1381042 C23.0104272,44.4161202 22.8473497,43.5193448 22.2612898,42.9910917 C31.8737788,46.5435086 42.8684383,42.6127575 48.1367726,33.1749387 C54.0532072,22.5745066 50.5058281,9.04187019 40.2128893,2.94881804" id="Fill-88" fill="#195B9F"></path>
                        <path d="M18.4886395,6 L18,5.25386634 C21.1989334,3.13762492 25.0042775,2 28.8293984,2 C29.2198211,2 29.6097995,2.0118363 30,2.03550891 L29.9462252,2.92702808 C29.5751347,2.90447211 29.2035998,2.89330579 28.8325093,2.89330579 C25.1789345,2.89330579 21.5442475,3.97889565 18.4886395,6" id="Fill-100" fill="#817DAE"></path>
                        <polyline id="Fill-105" fill="#195B9F" points="7.55671708 68 8 67.2097555 2.44328292 64 2 64.7902445 7.55671708 68"></polyline>
                        <polyline id="Fill-106" fill="#195B9F" points="8.5565111 66 9 65.2097555 3.44326649 62 3 62.7902445 8.5565111 66"></polyline>
                        <path d="M15.789883,15 L15,14.499749 C17.8413466,9.05245984 23.0307047,6 28.3603649,6 C30.9589158,6 33.590037,6.7251506 36,8.25200803 L35.5458401,9.12223896 C34.5459594,8.48895582 33.5059923,8.00251004 32.4457544,7.6563755 C31.1017234,7.21762048 29.7253501,7.00426707 28.3589983,7.00426707 C23.3447902,7.00426707 18.4631403,9.875251 15.789883,15" id="Fill-117" fill="#FFFFFE"></path>
                    </g>
                </g>
                <g id="Group-22-Copy" transform="translate(93.000000, 218.000000)" fill="#195B9F">
                    <circle id="Oval" cx="27.5" cy="27.5" r="27.5"></circle>
                </g>
                <path d="M129,252.092437 L129,257 L111.829175,257 L111.829175,252.428571 L119.775432,244.394958 C121.295593,242.848732 122.055662,241.425777 122.055662,240.12605 C122.055662,238.557415 121.099818,237.773109 119.1881,237.773109 C118.26679,237.773109 117.270639,237.957981 116.199616,238.327731 C115.128593,238.697481 114.051829,239.218484 112.96929,239.890756 L111,235.521008 C111.967375,234.7591 113.228399,234.148462 114.783109,233.689076 C116.33782,233.22969 117.921297,233 119.533589,233 C121.284078,233 122.82149,233.274507 124.145873,233.823529 C125.470256,234.372552 126.48944,235.151255 127.203455,236.159664 C127.91747,237.168072 128.274472,238.344531 128.274472,239.689076 C128.274472,241.056029 127.992325,242.305316 127.428023,243.436975 C126.863721,244.568633 125.902118,245.829125 124.543186,247.218487 L119.637236,252.092437 L129,252.092437 Z" id="Path" fill="#FFFFFF" fill-rule="nonzero"></path>
            </g>
        </g>
    </g>
</svg>