<?xml version="1.0" encoding="UTF-8"?>
<svg width="238px" height="273px" viewBox="0 0 238 273" version="1.1" xmlns="http://www.w3.org/2000/svg" xmlns:xlink="http://www.w3.org/1999/xlink">
    <!-- Generator: Sketch 57.1 (83088) - https://sketch.com -->
    <title>step 3</title>
    <desc>Created with Sketch.</desc>
    <defs>
        <ellipse id="path-1" cx="19.104025" cy="18.6365316" rx="19.104025" ry="18.6365316"></ellipse>
    </defs>
    <g id="Page-1" stroke="none" stroke-width="1" fill="none" fill-rule="evenodd">
        <g id="Home" transform="translate(-747.000000, -1156.000000)">
            <g id="step-3" transform="translate(742.000000, 1156.000000)">
                <rect id="Rectangle-Copy-11" fill="#67A4E5" x="5" y="0" width="238" height="238" rx="47"></rect>
                <g id="icon" transform="translate(59.000000, 36.000000)">
                    <g id="Group-6-Copy-3">
                        <g id="Group-3">
                            <rect id="Rectangle" fill="#FFFFFF" x="0" y="0" width="61.8953586" height="86" rx="9"></rect>
                            <rect id="Rectangle" fill="#DEE8EF" opacity="0.788643973" x="6.2430477" y="52.8559838" width="49.587636" height="3.663286"></rect>
                            <rect id="Rectangle-Copy" fill="#DEE8EF" opacity="0.788643973" x="6.2430477" y="63.148073" width="49.587636" height="3.663286"></rect>
                            <rect id="Rectangle-Copy-2" fill="#DEE8EF" opacity="0.788643973" x="6.2430477" y="73.6146045" width="49.587636" height="3.663286"></rect>
                        </g>
                        <g id="Fill-293-+-Fill-299-Mask" transform="translate(12.000000, 7.000000)">
                            <mask id="mask-2" fill="white">
                                <use xlink:href="#path-1"></use>
                            </mask>
                            <use id="Mask" fill="#3976B9" xlink:href="#path-1"></use>
                            <path d="M19.2842517,32.8657023 C19.2844559,32.831524 19.3745692,32.6194006 19.5545917,32.2293321 L19.104025,29.0287653 L19.0959801,29.0293745 C18.9988218,29.0263284 18.9208477,29.0086607 18.8546315,28.9824637 C18.6213279,29.0592269 18.1460569,29.2127531 17.5612508,29.3821193 C16.9312692,29.5661071 16.7586122,29.2834239 16.7301454,29.0866422 C16.7190063,29.0056145 16.8303979,28.6492144 16.8588646,28.5078728 C16.8860937,28.3732327 16.5395419,28.4164881 16.7505672,27.8151771 L16.7344773,27.7914171 L16.7344773,27.6031647 L16.6243234,27.6031647 C16.6243234,27.6031647 12.5213979,28.1338049 10.5739008,30.2344335 L10.5720442,30.2326058 C10.5720442,30.2326058 7.33054751,32.6780591 6.6683861,49.756023 L9.83500289,49.756023 C9.83500289,49.756023 10.0311759,41.8415029 11.6865795,36.6697407 L11.6197445,42.6006047 L19.0458538,42.6006047 C19.2045815,36.144848 19.2840475,32.8998805 19.2842517,32.8657023 Z" id="Fill-293" fill="#ECECEA" mask="url(#mask-2)"></path>
                            <path d="M24.6910512,33.569756 L24.6910512,35.8936936 C24.6910512,35.9752142 24.6060449,36.0423488 24.5019286,36.0423488 L21.9958885,36.0423488 C21.8917722,36.0423488 21.8074248,35.9752142 21.8074248,35.8936936 L21.8074248,33.2292875 L24.6910512,33.2292875 L24.6910512,33.569756 Z M31.539664,49.756023 L31.5377468,49.6955895 C31.1466367,40.0506415 29.9100386,35.0786098 28.9079788,32.5794695 C28.8018934,31.130896 27.803029,30.0955902 26.5740997,29.3642834 C25.5126065,28.6042859 23.9526397,27.9254769 21.669247,27.6031647 L21.669247,27.7478389 L21.6660517,27.7515016 L21.6181215,27.8253648 C21.7964217,28.3710979 21.4621887,28.335082 21.4896687,28.4657161 C21.5184268,28.6073381 21.6340982,28.9644453 21.622595,29.0456338 C21.5919197,29.2428059 21.4142586,29.5260499 20.7624085,29.3416971 C20.1489025,29.1695531 19.6529851,29.0132805 19.4178078,28.9381964 C19.3475102,28.9656662 19.2644313,28.9839794 19.1640975,28.9876421 L19.1640975,32.8321916 L19.104025,32.8321916 L19.104025,42.5864082 L26.7504827,42.5864082 L26.6654866,36.9679208 C28.0925271,41.9802416 28.2689101,49.756023 28.2689101,49.756023 L31.539664,49.756023 L31.539664,49.756023 Z" id="Fill-299" fill="#FAF9F8" mask="url(#mask-2)"></path>
                        </g>
                        <path d="M31.6728659,34 C32.2359835,34 32.7722555,34 33.1570419,34 L33.1570419,32.8283165 C32.5824191,32.945057 32.3209945,33.1284804 31.6728659,33.130314 C31.4945347,33.1315364 30.9691287,33.0025104 30.7952717,32.9860079 C31.0209023,32.9939536 31.6019169,33.112589 31.8371352,33.1021985 C36.8284455,24.41343 39.2111789,19.9826619 38.9853353,19.8098941 C38.6465699,19.5507424 28.9621034,15.412589 27.2088327,16.0708588 C25.3002411,16.7878044 22.4744263,17.9215931 23.4990318,20.0699851 L22.1152071,22.3375624 L22.0992276,22.3650667 C22.0992276,22.3650667 22.0429797,22.1578676 21.9771442,21.801534 C21.4715528,22.0038435 20.6502065,22.5765443 21.1615505,24.1008941 C21.6294303,25.4932233 22.4200959,25.8953974 22.9077903,26.006637 C24.0084583,29.2643695 26.1995674,32.2611166 29.7252844,32.8778243 L29.7252844,34 C30.1490607,34 30.7006731,34 31.2586773,34 C31.318121,34 31.3775647,34 31.4363693,34 C31.5156276,34 31.5942468,34 31.6728659,34 Z" id="Fill-306" fill="#FFD7B4"></path>
                        <path d="M33,35.6097117 L33,34 C32.8273921,34 32.6529081,34 32.478424,34 L31,35.4021244 C31.3545966,35.506525 31.5816135,35.5805766 31.5816135,35.5805766 L32.9643527,35.6097117 L32.9756098,38 L32.9849906,35.6097117 L33,35.6097117" id="Fill-307" fill="#ECECEA"></path>
                        <path d="M33.2765584,37.8237885 L33.3116769,38 L33.3415277,37.8237885 C33.3415277,37.8237885 33.5996488,37.6035242 34,37.3098385 L32.6496927,34 C32.4337138,34 32.2177349,34 32,34 L32,37.8942731 L33.2765584,37.8237885" id="Fill-308" fill="#FAF9F8"></path>
                        <path d="M40,26 C40.4891347,25.9135447 41.3394365,25.5596542 41.8357166,24.1907781 C42.3768178,22.6951009 41.4505149,22.1700288 40.9444911,22 C40.9100633,22.2305476 40.8788834,22.3619597 40.8788834,22.3619597 L40.8723876,22.351585 C40.7450697,23.5314121 40.4625019,24.7867435 40,26 Z" id="Fill-309" fill="#FFD7B4"></path>
                        <path d="M38.5845207,17.4911859 C38.4332434,17.5617939 38.2781997,17.626876 38.1112297,17.6802925 L38.1024418,17.6839764 C34.9092963,19.3343612 30.7250016,17.036225 30.7250016,17.036225 L30.679179,17 L30.679179,27.1779865 L30.7250016,27.2406127 C30.7250016,27.2406127 30.7097274,27.2643534 30.679179,27.3118347 L30.679179,32.9717508 C30.4481828,32.9821885 30.2215806,32.8057494 30,32.7977676 C30.1707363,32.8143451 30.342728,33.0012219 30.5178583,33 C31.1543531,32.998152 31.6175096,32.9414395 32.1818182,32.8241688 C35.7578649,32.0763383 38.0541083,28.9830948 39.1569895,25.799596 C39.6039169,24.507163 39.8769694,23.1699093 40,21.9130873 L38.6146507,19.8230912 C38.9994351,18.9985128 39.0239156,17.5826693 38.5845207,17.4911859 Z" id="Fill-310" fill="#FFE1C8"></path>
                        <path d="M29.0478738,37.99843 C29.9491439,38.0474905 30.6130667,36.9226035 31,37.99843 L31,34 C30.5083075,34 30.0222473,34 29.6488313,34 C29.3300479,34 29.0923683,34 29,34 L29.0478738,37.99843 Z" id="Fill-311" fill="#CCCBCD"></path>
                        <path d="M32.0478738,37.99843 C32.9491439,38.0474905 33.6130667,36.9226035 34,37.99843 L34,34 C33.5083075,34 33.0222473,34 32.6488313,34 C32.3300479,34 32.0923683,34 32,34 L32.0478738,37.99843 Z" id="Fill-311-Copy" fill="#E2E2E2"></path>
                        <path d="M22.3174035,22.9725366 L23.7400585,20.7083281 C22.6867024,18.563128 25.5918099,17.4310238 27.5539567,16.7151433 C29.3564245,16.0578516 31.6037594,17.6434078 31.9520306,17.9021744 L32,17.9381821 L32,12.0060781 C30.850705,11.9401658 29.1060635,12.4320666 29.1060635,12.4320666 C21.2528765,14.0517995 21.8160244,20.4874 22.1754666,22.4373045 C22.2431495,22.7931087 22.3009757,23 22.3009757,23 L22.3174035,22.9725366" id="Fill-313" fill="#0A0B09"></path>
                        <path d="M38.869006,17.7059935 L38.8771883,17.7022628 C39.0326512,17.648168 39.1770096,17.5822594 39.3178614,17.5107548 C39.7269743,17.6033999 39.7041809,19.0372225 39.3459148,19.8722719 L40.6357894,21.988808 L40.6416339,22 C40.6416339,22 40.6696874,21.8582344 40.7006631,21.6095227 C40.801188,20.8117801 40.9309352,18.8942133 40.2295987,16.8728094 C41.8076058,15.4091414 42.0817114,12.975498 41.981771,13.0121829 C41.860206,13.0575728 40.2249232,13.4673252 40.2249232,13.4673252 C37.9362286,11.5547327 34.2530433,11.3277833 34.2419388,11.3414625 L34.2419388,11.342706 C33.7299632,11.1996968 32.7317277,10.9578247 32,11.0063235 L32,17.0500165 C32,17.0500165 35.895924,19.3773357 38.869006,17.7059935" id="Fill-314" fill="#2A2B29"></path>
                        <polygon id="Fill-321" fill="#ECECEA" points="33 43.488 37 43.488 37 39.512 33 39.512"></polygon>
                    </g>
                    <g id="Group-6-Copy-4" transform="translate(78.000000, 0.000000)">
                        <g id="Group-3">
                            <rect id="Rectangle" fill="#FFFFFF" x="0" y="0" width="61.8953586" height="86" rx="9"></rect>
                            <rect id="Rectangle" fill="#DEE8EF" opacity="0.788643973" x="6.2430477" y="52.8559838" width="49.587636" height="3.663286"></rect>
                            <rect id="Rectangle-Copy" fill="#DEE8EF" opacity="0.788643973" x="6.2430477" y="63.148073" width="49.587636" height="3.663286"></rect>
                            <rect id="Rectangle-Copy-2" fill="#DEE8EF" opacity="0.788643973" x="6.2430477" y="73.6146045" width="49.587636" height="3.663286"></rect>
                        </g>
                        <g id="Fill-293-+-Fill-299-Mask" transform="translate(12.000000, 7.000000)"></g>
                    </g>
                    <rect id="Rectangle" fill="#C4C4C4" x="99" y="19" width="23" height="18" rx="2"></rect>
                    <rect id="Rectangle-Copy-15" fill="#C4C4C4" x="99" y="17" width="10" height="15" rx="2"></rect>
                    <circle id="Oval" fill="#3976B9" cx="119.5" cy="23.5" r="8.5"></circle>
                    <path d="M118.504587,25.3636364 L118,19 L120,19.0137741 L119.486239,25.3636364 L118.504587,25.3636364 Z M118,26.2727273 L120,26.2727273 L120,29 L118,29 L118,26.2727273 Z" id="!" fill="#FFFFFF" fill-rule="nonzero"></path>
                    <path d="M60,45.5 L80,45.5" id="Path-10" stroke="#FFFFFF" stroke-width="5" stroke-dasharray="6,2"></path>
                </g>
                <text id="Menghubungkan-Profil" font-family="NunitoSans-Black, Nunito Sans" font-size="16" font-weight="700" line-spacing="19" letter-spacing="0.235789474" fill="#FFFFFF">
                    <tspan x="52.0073684" y="158.656006">Menghubungkan </tspan>
                    <tspan x="48.6195789" y="177.656006">Profil-mu dengan</tspan>
                    <tspan x="57.0254737" y="196.656006">lowongan kerja</tspan>
                </text>
                <g id="Group-22-Copy-2" transform="translate(96.000000, 218.000000)" fill="#195B9F">
                    <circle id="Oval" cx="27.5" cy="27.5" r="27.5"></circle>
                </g>
                <path d="M128.670455,245.66759 C130.034098,246.044323 131.096587,246.731297 131.857955,247.728532 C132.619322,248.725767 133,249.933511 133,251.351801 C133,253.412753 132.164781,255.036005 130.494318,256.221607 C128.823855,257.407208 126.545469,258 123.659091,258 C121.954537,258 120.31819,257.772855 118.75,257.31856 C117.18181,256.864264 115.931823,256.260392 115,255.506925 L116.943182,251.185596 C119.079556,252.581724 121.215898,253.279778 123.352273,253.279778 C124.715916,253.279778 125.687497,253.080334 126.267045,252.68144 C126.846594,252.282548 127.136364,251.617733 127.136364,250.686981 C127.136364,249.82271 126.852276,249.202218 126.284091,248.825485 C125.715906,248.448752 124.784097,248.260388 123.488636,248.260388 L119.772727,248.260388 L119.772727,243.540166 L122.875,243.540166 C124.125006,243.540166 125.034088,243.362883 125.602273,243.00831 C126.170457,242.653738 126.454545,242.088647 126.454545,241.313019 C126.454545,240.493071 126.187503,239.855958 125.653409,239.401662 C125.119316,238.947366 124.363641,238.720222 123.386364,238.720222 C122.431813,238.720222 121.42046,238.903045 120.352273,239.268698 C119.284086,239.634351 118.261369,240.149581 117.284091,240.814404 L115.340909,236.493075 C116.295459,235.739608 117.551129,235.135736 119.107955,234.68144 C120.664781,234.227145 122.249992,234 123.863636,234 C125.56819,234 127.062494,234.265925 128.346591,234.797784 C129.630688,235.329643 130.624996,236.083098 131.329545,237.058172 C132.034094,238.033246 132.386364,239.163428 132.386364,240.448753 C132.386364,241.689757 132.062503,242.764538 131.414773,243.67313 C130.767045,244.581722 129.852279,245.246535 128.670455,245.66759 Z" id="Path" fill="#FFFFFF" fill-rule="nonzero"></path>
            </g>
        </g>
    </g>
</svg>