<svg width="18" height="18" viewBox="0 0 18 18" fill="none" xmlns="http://www.w3.org/2000/svg">
<path fill-rule="evenodd" clip-rule="evenodd" d="M9.00008 0.666626C4.40008 0.666626 0.666748 4.39996 0.666748 8.99996C0.666748 13.6 4.40008 17.3333 9.00008 17.3333C13.6001 17.3333 17.3334 13.6 17.3334 8.99996C17.3334 4.39996 13.6001 0.666626 9.00008 0.666626ZM4.89176 14.2333C5.25009 13.4833 7.43342 12.75 9.00009 12.75C10.5668 12.75 12.7584 13.4833 13.1084 14.2333C11.9751 15.1333 10.5501 15.6666 9.00009 15.6666C7.45009 15.6666 6.02509 15.1333 4.89176 14.2333ZM9.00008 11.0833C10.2167 11.0833 13.1084 11.575 14.3001 13.025C15.1501 11.9083 15.6667 10.5166 15.6667 8.99996C15.6667 5.32496 12.6751 2.33329 9.00008 2.33329C5.32508 2.33329 2.33341 5.32496 2.33341 8.99996C2.33341 10.5166 2.85008 11.9083 3.70008 13.025C4.89175 11.575 7.78341 11.0833 9.00008 11.0833ZM9.00008 3.99996C7.38341 3.99996 6.08341 5.29996 6.08341 6.91663C6.08341 8.53329 7.38341 9.83329 9.00008 9.83329C10.6167 9.83329 11.9167 8.53329 11.9167 6.91663C11.9167 5.29996 10.6167 3.99996 9.00008 3.99996ZM7.75008 6.91663C7.75008 7.60829 8.30841 8.16663 9.00008 8.16663C9.69175 8.16663 10.2501 7.60829 10.2501 6.91663C10.2501 6.22496 9.69175 5.66663 9.00008 5.66663C8.30841 5.66663 7.75008 6.22496 7.75008 6.91663Z" fill="#C4C4C4"/>
</svg>
