<svg width="16" height="17" viewBox="0 0 16 17" fill="none" xmlns="http://www.w3.org/2000/svg">
<path fill-rule="evenodd" clip-rule="evenodd" d="M0.666992 8.50002C0.666992 4.44993 3.95024 1.16669 8.00033 1.16669C12.0504 1.16669 15.3337 4.44993 15.3337 8.50002C15.3337 12.5501 12.0504 15.8334 8.00033 15.8334C3.95024 15.8334 0.666992 12.5501 0.666992 8.50002Z" fill="#043D69"/>
<path fill-rule="evenodd" clip-rule="evenodd" d="M11.5408 5.862C11.8011 6.12235 11.8011 6.54446 11.5408 6.80481L7.40272 11.1381C7.14237 11.3985 6.72026 11.3985 6.45991 11.1381L4.45991 9.13814C4.19956 8.87779 4.19956 8.45568 4.45991 8.19533C4.72026 7.93498 5.14237 7.93498 5.40272 8.19533L6.93132 9.72393L10.598 5.862C10.8583 5.60165 11.2804 5.60165 11.5408 5.862Z" fill="white"/>
</svg>
