<svg width="34" height="32" viewBox="0 0 34 32" fill="none" xmlns="http://www.w3.org/2000/svg">
<path fill-rule="evenodd" clip-rule="evenodd" d="M33.6663 10.1665C33.6663 8.3165 32.183 6.83317 30.333 6.83317H23.6663V3.49984C23.6663 1.64984 22.183 0.166504 20.333 0.166504H13.6663C11.8163 0.166504 10.333 1.64984 10.333 3.49984V6.83317H3.66634C1.81634 6.83317 0.349674 8.3165 0.349674 10.1665L0.333008 28.4998C0.333008 30.3498 1.81634 31.8332 3.66634 31.8332H30.333C32.183 31.8332 33.6663 30.3498 33.6663 28.4998V10.1665ZM20.333 6.83317V3.49984H13.6663V6.83317H20.333ZM3.66634 10.1665V28.4998H30.333V10.1665H3.66634Z" fill="white"/>
</svg>
