<svg width="34" height="34" viewBox="0 0 34 34" fill="none" xmlns="http://www.w3.org/2000/svg">
<path fill-rule="evenodd" clip-rule="evenodd" d="M16.9997 0.333313C7.79967 0.333313 0.333008 7.79998 0.333008 17C0.333008 26.2 7.79967 33.6666 16.9997 33.6666C26.1997 33.6666 33.6663 26.2 33.6663 17C33.6663 7.79998 26.1997 0.333313 16.9997 0.333313ZM8.78297 27.4666C9.49964 25.9666 13.8663 24.5 16.9996 24.5C20.133 24.5 24.5163 25.9666 25.2163 27.4666C22.9496 29.2666 20.0996 30.3333 16.9996 30.3333C13.8996 30.3333 11.0496 29.2666 8.78297 27.4666ZM16.9997 21.1666C19.433 21.1666 25.2163 22.15 27.5997 25.05C29.2997 22.8166 30.333 20.0333 30.333 17C30.333 9.64998 24.3497 3.66665 16.9997 3.66665C9.64967 3.66665 3.66634 9.64998 3.66634 17C3.66634 20.0333 4.69967 22.8166 6.39967 25.05C8.78301 22.15 14.5663 21.1666 16.9997 21.1666ZM16.9997 6.99998C13.7663 6.99998 11.1663 9.59998 11.1663 12.8333C11.1663 16.0666 13.7663 18.6666 16.9997 18.6666C20.233 18.6666 22.833 16.0666 22.833 12.8333C22.833 9.59998 20.233 6.99998 16.9997 6.99998ZM14.4997 12.8333C14.4997 14.2166 15.6163 15.3333 16.9997 15.3333C18.383 15.3333 19.4997 14.2166 19.4997 12.8333C19.4997 11.45 18.383 10.3333 16.9997 10.3333C15.6163 10.3333 14.4997 11.45 14.4997 12.8333Z" fill="white"/>
</svg>
