<svg width="34" height="34" viewBox="0 0 34 34" fill="none" xmlns="http://www.w3.org/2000/svg">
<path fill-rule="evenodd" clip-rule="evenodd" d="M16.9997 0.333496C7.79967 0.333496 0.333008 7.80016 0.333008 17.0002C0.333008 26.2002 7.79967 33.6668 16.9997 33.6668C26.1997 33.6668 33.6663 26.2002 33.6663 17.0002C33.6663 7.80016 26.1997 0.333496 16.9997 0.333496ZM8.78297 27.4668C9.49964 25.9668 13.8663 24.5002 16.9996 24.5002C20.133 24.5002 24.5163 25.9668 25.2163 27.4668C22.9496 29.2668 20.0996 30.3335 16.9996 30.3335C13.8996 30.3335 11.0496 29.2668 8.78297 27.4668ZM16.9997 21.1668C19.433 21.1668 25.2163 22.1502 27.5997 25.0502C29.2997 22.8168 30.333 20.0335 30.333 17.0002C30.333 9.65016 24.3497 3.66683 16.9997 3.66683C9.64967 3.66683 3.66634 9.65016 3.66634 17.0002C3.66634 20.0335 4.69967 22.8168 6.39967 25.0502C8.78301 22.1502 14.5663 21.1668 16.9997 21.1668ZM16.9997 7.00016C13.7663 7.00016 11.1663 9.60016 11.1663 12.8335C11.1663 16.0668 13.7663 18.6668 16.9997 18.6668C20.233 18.6668 22.833 16.0668 22.833 12.8335C22.833 9.60016 20.233 7.00016 16.9997 7.00016ZM14.4997 12.8335C14.4997 14.2168 15.6163 15.3335 16.9997 15.3335C18.383 15.3335 19.4997 14.2168 19.4997 12.8335C19.4997 11.4502 18.383 10.3335 16.9997 10.3335C15.6163 10.3335 14.4997 11.4502 14.4997 12.8335Z" fill="#043D69"/>
</svg>
