<svg width="34" height="32" viewBox="0 0 34 32" fill="none" xmlns="http://www.w3.org/2000/svg">
<path fill-rule="evenodd" clip-rule="evenodd" d="M33.6663 10.1667C33.6663 8.31669 32.183 6.83335 30.333 6.83335H23.6663V3.50002C23.6663 1.65002 22.183 0.166687 20.333 0.166687H13.6663C11.8163 0.166687 10.333 1.65002 10.333 3.50002V6.83335H3.66634C1.81634 6.83335 0.349674 8.31669 0.349674 10.1667L0.333008 28.5C0.333008 30.35 1.81634 31.8334 3.66634 31.8334H30.333C32.183 31.8334 33.6663 30.35 33.6663 28.5V10.1667ZM20.333 6.83335V3.50002H13.6663V6.83335H20.333ZM3.66634 10.1667V28.5H30.333V10.1667H3.66634Z" fill="#043D69"/>
</svg>
