<svg width="16" height="12" viewBox="0 0 16 12" fill="none" xmlns="http://www.w3.org/2000/svg">
<path fill-rule="evenodd" clip-rule="evenodd" d="M12.9 4.69332C12.4467 2.39332 10.4267 0.666656 8 0.666656C6.07333 0.666656 4.4 1.75999 3.56667 3.35999C1.56 3.57332 0 5.27332 0 7.33332C0 9.53999 1.79333 11.3333 4 11.3333H12.6667C14.5067 11.3333 16 9.83999 16 7.99999C16 6.23999 14.6333 4.81332 12.9 4.69332ZM12.6667 9.99999H4C2.52667 9.99999 1.33333 8.80666 1.33333 7.33332C1.33333 5.96666 2.35333 4.82666 3.70667 4.68666L4.42 4.61332L4.75333 3.97999C5.38667 2.75999 6.62667 1.99999 8 1.99999C9.74667 1.99999 11.2533 3.23999 11.5933 4.95332L11.7933 5.95332L12.8133 6.02666C13.8533 6.09332 14.6667 6.96666 14.6667 7.99999C14.6667 9.09999 13.7667 9.99999 12.6667 9.99999ZM7.03333 4.66666H8.96667V6.66666H10.6667L8 9.33332L5.33333 6.66666H7.03333V4.66666Z" fill="#0275D8"/>
</svg>
