<svg width="557" height="411" viewBox="0 0 557 411" fill="none" xmlns="http://www.w3.org/2000/svg">
<g clip-path="url(#clip0)">
<path d="M190.072 143.377C201.728 161.652 207.749 181.328 201.526 209.385C195.349 217.962 172.898 240.031 165.151 238.683C157.407 237.339 141.577 217.131 141.577 217.131C149.997 210.059 170.541 163.921 190.072 143.377Z" fill="white"/>
<path d="M186.333 188.158C191.752 176.817 195.322 165.649 196.965 155.961C203.79 170.898 206.354 187.615 201.526 209.385C195.349 217.962 172.898 240.031 165.151 238.683C161.766 238.096 156.837 233.903 152.358 229.372C163.2 224.353 176.469 208.807 186.333 188.158Z" fill="#EEEEEC"/>
<path d="M335.126 310.414H196.332C171.77 310.414 164.712 405.419 189.271 405.419H328.066C315.528 392.63 317.261 325.488 335.126 310.414Z" fill="#E9D3C2"/>
<path d="M187.964 400.616C217.067 372.589 192.245 318.062 192.245 318.062C192.245 318.062 177.123 340.738 178.262 362.141C179.403 383.543 187.964 400.616 187.964 400.616Z" fill="#555753"/>
<path d="M236.471 378.454C236.471 364.113 295.245 349.345 321.91 342.69C319.008 360.612 319.381 381.289 322.847 394.377C323.519 396.922 236.471 393.385 236.471 378.454Z" fill="#F3E7DE"/>
<path d="M204.874 305.729H11.3867C-0.600892 305.729 -4.84219 410.104 7.14765 410.104H200.635C185.131 410.104 189.368 305.729 204.874 305.729Z" fill="#D3D7CF"/>
<path d="M336.627 305.729H182.547L181.157 315.62H335.237C337.292 315.62 339.269 313.406 339.653 310.674C340.036 307.943 338.68 305.729 336.627 305.729Z" fill="#BABDB6"/>
<path d="M333.29 401.513H179.795L178.308 410.104H331.801C333.858 410.104 335.856 408.18 336.268 405.81C336.679 403.437 335.345 401.513 333.29 401.513Z" fill="#BABDB6"/>
<path d="M11.3866 305.729H204.874C200.536 305.729 197.082 313.896 194.693 325.66C167.773 335.676 129.605 344.039 86.8422 348.303C55.1461 351.463 25.4753 351.918 0.683234 350.109C2.16757 326.862 5.99237 305.729 11.3866 305.729Z" fill="#EEEEEC"/>
<path d="M200.635 410.104H179.132C171.961 387.413 174.357 328.42 183.373 305.729H204.874C189.368 305.729 185.131 410.104 200.635 410.104Z" fill="#BABDB6"/>
<path d="M164.314 398.126H147.744C142.221 380.643 144.067 335.19 151.01 317.707H167.579C155.633 317.707 152.365 398.126 164.314 398.126Z" fill="white"/>
<path d="M32.6807 398.126H16.1136C10.5881 380.643 12.4361 335.19 19.3792 317.707H35.9463C24.0025 317.707 20.7346 398.126 32.6807 398.126Z" fill="white"/>
<path d="M2.48746 402.956L191.945 402.584L193.303 409.306L3.84526 409.679L2.48746 402.957" fill="#BABDB6"/>
<path d="M189.299 144.254C192.456 138.889 206.465 133.999 218.349 130.922C230.235 127.846 257.404 141.86 257.404 141.86C298.671 203.931 282.212 274.657 257.775 298.086C251.86 303.759 244.782 307.202 237.891 303.285L168.654 263.903C222.238 220.486 171.701 174.161 189.299 144.254" fill="white"/>
<path d="M245.221 157.898C239.896 139.637 257.404 141.86 257.404 141.86C305.934 212.74 283.968 277.094 259.531 300.526C253.616 306.198 244.781 307.204 237.891 303.285L215.509 290.552C241.886 263.555 275.656 229.609 245.221 157.898Z" fill="#EEEEEC"/>
<path d="M124.404 407.48L106.7 398.811C106.7 398.811 120.582 395.799 124.754 397.73C128.931 399.658 124.404 407.48 124.404 407.48Z" fill="#BABDB6"/>
<path d="M85.9815 397.399L68.2775 388.73C68.2775 388.73 82.1567 385.717 86.3313 387.648C90.5036 389.577 85.9816 397.399 85.9816 397.399" fill="#BABDB6"/>
<path d="M184.828 309.977H168.562L126.62 404.42H124.052L135.75 322.53L87.8133 391.008H84.3913L119.486 297.136L185.967 303.128L184.828 309.977Z" fill="#BABDB6"/>
<path d="M103.918 272.178C108.866 265.919 173.949 260.108 173.949 260.108C173.949 260.108 219.276 254.295 223.234 304.813L124.927 304.367L48.3112 388.415L45.1032 389.31C45.1032 389.31 98.9724 278.436 103.918 272.178" fill="#0763AA"/>
<path d="M83.3787 336.801C100.761 305.74 106.942 283.434 97.182 286.978C96.609 287.185 95.9922 287.487 95.3386 287.857C99.7088 279.374 102.885 273.485 103.918 272.178C108.866 265.919 173.949 260.106 173.949 260.106C173.949 260.106 219.276 254.295 223.234 304.813L124.927 304.367L48.3112 388.414L47.2895 388.7C58.0136 377.055 71.7295 357.609 83.3787 336.801" fill="#065898"/>
<path d="M137.096 280.201C141.586 273.913 196.24 258.619 196.24 258.619C196.24 258.619 240.69 255.82 252.79 296.767C254.173 301.446 250.592 306.131 245.716 306.108L168.049 305.704L101.515 396.103L98.3718 397.001C98.3718 397.001 132.604 286.488 137.096 280.201" fill="#0763AA"/>
<path d="M99.3337 393.595C107.137 382.044 146.306 296.85 172.557 293.286C193.011 290.506 207.903 283.296 205.512 277.591C203.123 271.888 183.677 268.731 163.428 272.742C154.349 274.539 140.615 278.38 136.32 281.728C136.633 281.001 136.898 280.477 137.096 280.201C141.586 273.913 196.24 258.619 196.24 258.619C196.24 258.619 240.69 255.82 252.79 296.767C254.173 301.446 250.592 306.131 245.716 306.108L168.049 305.704L101.515 396.103L98.3718 397.001C98.3718 397.001 98.717 395.781 99.3337 393.595" fill="#065898"/>
<path d="M147.259 207.544L136.988 218.197L159.812 243.874L176.361 237.788C176.361 237.788 175.22 224.475 167.611 216.676C160.003 208.876 147.259 207.544 147.259 207.544Z" fill="#C4C9BF"/>
<path d="M147.259 207.544C147.259 207.544 159.437 208.835 167.094 216.19C163.655 220.367 157.389 224.242 149.682 226.458C148.188 226.889 146.709 227.227 145.252 227.499L136.988 218.197L147.259 207.544Z" fill="#E4E4E1"/>
<path d="M158.45 243.976C138.594 252.861 104.627 258.041 104.627 258.041L94.6735 244.066C94.6735 244.066 133.25 217.522 145.45 214.393C152.524 212.579 159.147 220.802 163.464 228.037C166.914 233.809 164.587 241.23 158.45 243.976Z" fill="#FFB882"/>
<path d="M148.446 214.4L148.303 214.199C155.504 214.94 161.943 224.928 165.533 231.731C167.524 235.507 166.047 240.124 162.272 242.121C143.348 252.136 104.627 258.042 104.627 258.042L97.3268 247.794C106.553 246.162 126.779 242.192 141.807 236.377C150.604 232.971 153.925 222.079 148.446 214.4" fill="#FF9566"/>
<path d="M179.185 263.493L117.217 280.108L44.9214 275.17L43.5752 268.657L108.461 257.206L179.634 258.106L179.185 263.493" fill="#E8DFC1"/>
<path d="M179.185 263.493L116.633 281.16L44.9214 275.17L43.5752 268.657L114.35 275.453L179.634 258.106L179.185 263.493" fill="#D6C099"/>
<path d="M4.47121 183.829C7.4192 182.966 78.5551 178.15 81.4433 179.013C84.3314 179.875 114.35 279.018 114.35 279.018L45.0273 275.292C45.0273 275.292 1.52093 184.692 4.47121 183.829Z" fill="#E8DFC1"/>
<path d="M4.47121 183.829C7.4192 182.966 78.5551 178.15 81.4433 179.013C12.3923 202.028 45.0273 275.292 45.0273 275.292C45.0273 275.292 1.52093 184.692 4.47121 183.829Z" fill="#EFE7CE"/>
<path d="M270.331 184.529C264.032 227.556 218.365 254.514 218.365 254.514L187.718 223.193C224.677 205.643 224.868 151.144 245.41 143.062C260.007 137.318 272.351 170.721 270.331 184.529Z" fill="white"/>
<path d="M192.463 228.044L187.718 223.193C209.208 212.989 218.266 190.298 226.122 171.497C219.824 191.338 212.641 215.088 192.463 228.044Z" fill="#EEEEEC"/>
<path d="M253.036 172.585C254.774 165.476 253.855 152.368 250.309 142.206C263.569 143.306 275.762 173.639 273.932 186.147C267.636 229.174 218.365 254.514 218.365 254.514L203.685 239.514C220.157 227.308 245.304 204.198 253.036 172.585Z" fill="#EEEEEC"/>
<path d="M242.929 135.465L208.888 161.702L197.013 138.36C202.911 135.401 211.03 132.816 218.349 130.922C224.435 129.346 234.527 132.255 242.929 135.465Z" fill="#E8DFC1"/>
<path d="M156.162 51.7579C156.162 51.7579 132.314 20.9527 144.651 9.74071C156.984 -1.47349 176.027 10.3642 176.027 10.3642C176.027 10.3642 172.969 0.192448 180.485 0.00607269C197.209 -0.410655 224.134 20.7593 224.134 20.7593C241.826 18.3199 238.773 51.3825 238.773 51.3825C238.773 51.3825 249.14 77.2008 224.226 116.472L179.824 97.726C134.406 68.8494 156.162 51.7577 156.162 51.7577" fill="#7A4939"/>
<path d="M161.881 68.5366C169.135 70.5111 169.117 59.8883 169.117 59.8883C169.117 59.8883 183.974 76.6832 199.001 69.4709C214.031 62.261 200.002 25.9166 200.002 25.9166C200.002 25.9166 209.272 22.246 209.054 10.5117C217.64 15.6574 224.134 20.7595 224.134 20.7595C241.827 18.32 238.773 51.3827 238.773 51.3827C238.773 51.3827 249.14 77.201 224.226 116.473L179.824 97.7263C155.994 82.5745 150.667 70.6746 150.978 62.7811C154.621 65.4713 158.337 67.5723 161.881 68.5366Z" fill="#603429"/>
<path d="M236.214 133.946L223.752 92.5229L195.462 111.046L201.188 136.977L211.29 151.459L236.214 133.946Z" fill="#FFB882"/>
<path d="M195.193 217.246L206.416 205.452C206.416 205.452 225.248 211.159 230.764 227.517C236.28 243.875 234.186 250.344 234.186 250.344L216.878 254.909L195.193 217.246Z" fill="#C4C9BF"/>
<path d="M202.854 159.593C202.854 159.593 212.088 191.317 207.644 210.76C203.2 230.203 202.092 234.928 202.092 234.928C202.092 234.928 214.067 212.611 211.236 184.85C208.406 157.089 206.991 155.565 206.991 155.565L202.854 159.593Z" fill="#EEEEEC"/>
<path d="M206.416 205.452C206.416 205.452 218.659 209.173 226.295 219.193C222.942 221.952 218.848 224.396 214.199 226.244C210.103 227.874 206.004 228.861 202.122 229.28L195.193 217.246L206.416 205.452Z" fill="#E4E4E1"/>
<path d="M212.356 256.858C184.227 266.558 144.453 257.192 144.453 257.192L142.596 248.346C142.596 248.346 182.646 224.974 196.143 216.105C204.207 210.807 218.648 222.588 223.154 234.936C226.03 242.814 220.284 254.127 212.356 256.859" fill="#FFB882"/>
<path d="M46.4955 391.675L30.8443 379.695C30.8443 379.695 45.0435 379.469 48.7577 382.182C52.472 384.893 46.4955 391.675 46.4955 391.675Z" fill="#FFE7BD"/>
<path d="M100.247 400.634L82.5433 391.963C82.5433 391.963 96.4249 388.95 100.597 390.881C104.772 392.812 100.247 400.634 100.247 400.634" fill="#FFE7BD"/>
<path d="M196.525 242.924C204.453 240.19 211.956 233.302 209.079 225.425C207.742 221.766 205.523 218.169 202.868 215.039C210.598 216.542 219.734 225.568 223.154 234.936C226.03 242.814 220.284 254.127 212.356 256.858C184.227 266.558 147.735 258.048 147.735 258.048C147.735 258.048 176.828 249.715 196.525 242.924Z" fill="#FF9566"/>
<path d="M257.607 142.157C257.602 142.151 257.6 142.144 257.593 142.137C257.6 142.144 257.6 142.151 257.607 142.157ZM257.521 142.031C257.482 141.972 257.443 141.918 257.404 141.86C257.443 141.92 257.482 141.973 257.521 142.031ZM257.404 141.86C257.402 141.86 257.402 141.86 257.402 141.86C257.402 141.86 257.402 141.86 257.404 141.86Z" fill="#DF8E8E"/>
<path d="M268.349 159.942C265.231 154.071 261.687 148.141 257.607 142.157C257.602 142.151 257.6 142.144 257.593 142.138C257.567 142.098 257.547 142.066 257.522 142.032C257.483 141.972 257.444 141.919 257.405 141.861C257.405 141.861 256.736 141.776 255.695 141.776C254.533 141.776 252.913 141.883 251.254 142.332C257.263 143.455 262.986 150.398 267.204 158.729C267.582 159.118 267.966 159.521 268.35 159.942" fill="#C8D7E6"/>
<path d="M201.084 136.508L199.57 129.65L201.084 136.508Z" fill="#DF8E8E"/>
<path d="M201.084 136.51V136.508V136.51ZM236.184 133.111L235.939 133.035C236.02 133.061 236.103 133.088 236.184 133.111Z" fill="#5D516A"/>
<path d="M209.225 160.923L242.929 135.465C241.893 135.069 240.83 134.678 239.753 134.301L239.682 134.274C238.628 133.904 237.562 133.547 236.492 133.209L236.347 133.163L236.184 133.11C236.103 133.084 236.02 133.057 235.94 133.034L236.214 133.946L211.291 151.459L201.188 136.976L201.084 136.51V136.512C200.56 136.731 200.049 136.949 199.545 137.175L199.195 137.329C198.44 137.667 197.711 138.012 197.014 138.362L209.225 160.922" fill="#CB7D6C"/>
<path d="M206.196 158.971L236.214 133.946L235.94 133.035L235.938 133.033L224.663 95.556C223.002 96.1406 221.354 96.8126 219.732 97.5997C210.098 102.267 202.522 109.983 197.137 118.634L199.57 129.65L201.084 136.508V136.51L201.187 136.977L203.452 153.746" fill="#DF6648"/>
<path d="M189.573 135.631C209.15 129.942 226.168 117.835 227.123 113.872C228.065 109.96 223.23 58.381 216.549 50.8972C213.408 47.3785 181.617 40.753 173.443 45.7515C162.601 52.3838 177.786 120.91 189.573 135.631Z" fill="#FFB882"/>
<path d="M218.924 99.8203C209.357 63.8212 212.662 49.369 212.662 49.369C212.662 49.369 225.084 39.1766 227.126 43.9541C229.162 48.7338 227.906 97.7998 227.906 97.7998L218.924 99.8203Z" fill="#603429"/>
<path d="M221.336 77.2791C223.195 71.8135 234.584 75.0239 233.19 82.6389C231.767 90.4126 227.149 100.658 223.296 99.7237C219.304 98.7572 219.435 82.869 221.336 77.2791Z" fill="#FFB882"/>
<path d="M223.623 81.5112C224.686 78.3861 231.201 80.2225 230.403 84.5766C229.588 89.0227 226.948 94.8795 224.744 94.3455C222.461 93.7932 222.537 84.7077 223.623 81.5112Z" fill="#DB5B3E"/>
<path d="M223.798 87.2899C224.551 85.0736 229.174 86.3761 228.608 89.4645C228.03 92.6196 226.157 96.7758 224.592 96.3961C222.974 96.005 223.027 89.5588 223.798 87.2899Z" fill="#FFB882"/>
<path d="M76.1296 178.974C79.0821 178.883 81.0153 178.886 81.4433 179.013C84.3314 179.876 117.012 280.208 117.012 280.208L111.038 279.801C103.697 257.439 83.0266 194.941 76.1296 178.974" fill="#D6C099"/>
<path d="M124.754 257.383C125.396 263.636 128.139 267.062 130.015 267.359C131.893 267.654 137.223 264.048 137.763 261.882C138.302 259.719 124.19 251.867 124.754 257.383Z" fill="#FF9566"/>
<path d="M125.861 253.406C128.959 264.717 130.604 265.424 133.018 265.958C135.434 266.492 141.917 263.539 142.281 261.567C142.647 259.595 140.345 255.393 138.633 256.184C136.923 256.976 134.772 257.599 134.772 257.599L125.861 253.406Z" fill="#FFB882"/>
<path d="M130.958 248.744C132.933 243.44 156.381 238.335 170.891 244.565L170.435 245.285C166.111 252.141 158.715 256.474 150.616 256.819C146.156 257.01 141.485 258.389 137.959 259.507C131.294 261.624 128.984 254.051 130.958 248.744" fill="#FFB882"/>
<path d="M131.239 254.518C134.339 265.827 135.982 266.535 138.399 267.067C140.813 267.601 147.298 264.648 147.659 262.676C148.025 260.704 145.724 256.502 144.014 257.293C142.304 258.087 140.15 258.709 140.15 258.709L131.239 254.518Z" fill="#FFB882"/>
<path d="M135.227 245.311C127.7 248.562 122.761 252.792 120.796 256.253C118.833 259.714 117.243 267.767 117.512 269.463C117.781 271.156 122.752 272.206 123.217 269.791C123.679 267.377 125.205 260.121 125.96 259.663C126.715 259.207 133.95 253.997 134.346 253.965C134.74 253.932 135.227 245.31 135.227 245.31" fill="#FFB882"/>
<path d="M182.117 83.1864C181.857 80.2316 182.823 77.5576 184.268 77.2078C185.709 76.8536 187.106 78.9613 187.38 81.9231C187.654 84.9009 186.694 87.6211 185.233 87.9686C183.764 88.3227 182.367 86.1736 182.117 83.1864Z" fill="#4F3131"/>
<path d="M192.015 75.3553C189.95 74.2461 185.645 101.521 187.025 105.742C187.732 107.919 199.367 101.74 199.367 101.74C199.367 101.74 192.387 75.5486 192.015 75.3553Z" fill="#FFB882"/>
<path d="M191.327 75.9766C189.84 80.5401 186.388 101.452 187.578 104.915C188.13 106.531 195.688 103.045 198.447 101.606C198.617 102.297 198.727 102.695 198.727 102.695C198.727 102.695 186.042 110.333 185.384 108.061C184.169 103.836 189.453 76.7337 191.326 75.9766" fill="#EA7B59"/>
<path d="M199.397 78.7014C199.082 75.7259 200.014 73.0495 201.482 72.6904C202.96 72.3152 204.426 74.4257 204.762 77.3943C205.109 80.3882 204.177 83.1246 202.681 83.4905C201.19 83.8427 199.722 81.6862 199.397 78.7014Z" fill="#4F3131"/>
<path d="M194.841 66.5183C196.781 69.6803 208.57 67.9452 209.919 65.9686C211.265 63.9941 212.123 62.0034 209.873 61.1289C207.629 60.2567 197.404 58.4156 195.559 59.9944C193.711 61.5707 193.959 65.071 194.843 66.5185" fill="#CE3929"/>
<path d="M186.448 68.364C186.402 71.6548 175.337 75.7879 173.749 74.3727C172.17 72.9551 170.888 71.4062 171.977 70.0922C173.066 68.7758 181.693 61.8144 183.491 62.7441C185.288 63.6808 186.475 66.8589 186.448 68.364Z" fill="#CE3929"/>
<path d="M189.242 111.882L207.507 108.043C207.507 108.043 207.512 118.081 204.416 119.499C201.319 120.912 193.957 121.349 192.385 119.402C190.82 117.471 189.242 111.881 189.242 111.881" fill="#542A29"/>
<path d="M190.834 115.347C189.89 112.406 190.109 112.066 190.109 112.066L206.768 108.563C206.768 108.563 207.228 108.114 206.699 111.79L190.834 115.347" fill="#FFF7E9"/>
<path d="M236.184 133.111L242.929 135.465L230.032 155.705C225.243 164.584 213.196 166.235 206.196 158.971" fill="#EEEEEC"/>
<path d="M201.084 136.508C196.641 138.634 192.009 140.593 189.299 144.254L191.076 153.327C191.894 160.696 200.747 164.001 206.196 158.971L201.084 136.508Z" fill="#EEEEEC"/>
<path d="M482.528 244.907C494.141 252.823 506.147 232.037 493.177 224.924C480.209 217.809 473.457 221.195 472.487 225.939C471.519 230.682 477.058 241.184 482.528 244.907Z" fill="#FF9566"/>
<path d="M368.044 162.146C341.159 82.598 361.541 35.446 384.92 29.0401C408.228 22.6604 416.545 30.0339 416.545 30.0339C416.545 30.0339 430.943 17.8376 444.952 34.8068C459.186 52.0457 456.749 130.787 447.534 158.892C438.12 187.609 404.472 269.925 368.044 162.146Z" fill="#7A4939"/>
<path d="M423.015 51.7439C398.658 51.7439 378.575 44.092 375.356 34.1766C356.745 49.3897 344.941 93.7946 368.044 162.146C404.472 269.925 438.12 187.609 447.534 158.892C455.212 135.459 458.177 76.8664 450.706 48.0264C442.87 50.3601 433.332 51.7439 423.015 51.7439Z" fill="#603429"/>
<path d="M496.205 410.1H316.242C316.242 410.1 272.429 354.504 287.944 296.713C303.09 240.293 350.518 252.577 350.518 252.577C350.518 252.577 424.939 280.936 450.079 275.832C475.923 270.584 547.122 246.702 555.701 316.702C561.629 365.093 548.198 404.576 496.205 410.1Z" fill="#D3D7CF"/>
<path d="M537.409 280.992C512.245 260.616 469.007 274.413 450.079 278.254C424.939 283.361 350.518 254.999 350.518 254.999C350.518 254.999 333.264 250.554 316.248 259.388C315.52 262.366 315.116 265.412 315.116 268.508C315.116 304.244 371.893 362.288 433.86 362.288C488.418 362.288 527.32 310.75 537.409 280.992Z" fill="#EEEEEC"/>
<path d="M474.451 381.435C397.764 348.69 340.684 288.378 404.296 311.28C439.457 323.937 533.393 262.65 522.712 291.784C512.389 319.923 474.451 381.435 474.451 381.435Z" fill="#D3D7CF"/>
<path d="M464.287 274.377C434.535 241.859 435.711 181.338 435.711 181.338L386.242 166.884C386.242 166.884 406.568 249.991 393.633 278.444C420.263 287.668 447.015 288.811 464.287 274.377Z" fill="white"/>
<path d="M422.456 284.944C421.336 282.581 420.28 280.133 419.342 277.565C410.599 253.685 413.701 230.601 426.27 225.997C430.978 224.277 436.344 225.39 441.674 228.713C435.285 203.804 435.711 181.338 435.711 181.338L386.242 166.884C386.242 166.884 406.568 249.991 393.633 278.444C403.384 281.821 413.144 284.101 422.456 284.944Z" fill="#EEEEEC"/>
<path d="M392.314 300.045C378.405 281.682 384.181 254.6 443.703 272.675C468.816 280.301 492.151 256.816 509.425 261.223C525.887 265.416 512.225 305.048 488.251 303.212C462.633 301.25 417.079 332.738 392.314 300.045Z" fill="#0763AA"/>
<path d="M509.425 261.223C492.151 256.816 468.816 280.301 443.703 272.675C441.512 272.009 439.419 271.423 437.37 270.878C442.365 274.644 444.987 278.512 444.04 281.611C442.119 287.884 426.352 288.621 408.82 283.255C400.962 280.854 394.102 277.632 389.077 274.249C383.659 281.145 385.864 291.529 392.314 300.045C417.079 332.738 462.633 301.248 488.251 303.212C512.225 305.048 525.887 265.416 509.425 261.223Z" fill="#065898"/>
<path d="M452.735 403.825C467.4 353.077 487.715 270.333 497.777 264.65C507.842 258.96 518.654 259.906 518.241 272.473C517.821 285.226 454.802 403.96 454.802 403.96L452.735 403.825" fill="#0763AA"/>
<path d="M512.465 261.909C502.758 284.834 480.174 328.944 466.002 356.178C461.373 372.974 456.834 389.647 452.735 403.825L454.802 403.961C454.802 403.961 517.821 285.226 518.241 272.473C518.437 266.483 516.068 263.158 512.465 261.91" fill="#065898"/>
<path d="M488.715 404.016C477.204 371.098 443.785 281.983 432.465 278.092C420.832 274.091 410.409 280.658 414.795 298.489C418.811 314.822 487.319 404.541 487.319 404.541L488.715 404.016" fill="#0763AA"/>
<path d="M464.254 339.258C463.7 340.173 463.035 340.917 462.185 341.372C453.949 345.77 434.781 325.93 419.374 297.061C417.504 293.561 415.78 290.09 414.203 286.679C413.534 289.84 413.631 293.755 414.795 298.489C418.812 314.822 487.319 404.541 487.319 404.541L488.715 404.016C483.602 389.389 474.158 363.669 464.255 339.258" fill="#065898"/>
<path d="M429.498 143.952C454.401 182.954 484.05 206.747 480.034 218.627C475.859 230.973 469.927 228.196 455.908 212.749C441.847 197.248 428.859 189.635 428.859 189.635L429.498 143.952Z" fill="#EEEEEC"/>
<path d="M429.861 142.254L428.636 156.074C449.806 187.811 473.648 211.799 476.665 224.878C477.94 223.62 479.04 221.565 480.033 218.627C484.05 206.747 454.764 181.255 429.861 142.254Z" fill="white"/>
<path d="M384.309 142.336C378.757 160.487 392.501 220.07 392.501 220.07C392.501 220.07 453.843 217.602 455.277 213.35C456.684 209.164 432.904 142.875 427.665 139.701C422.447 136.543 408.831 134.54 403.835 134.719C398.802 134.904 385.198 139.43 384.309 142.336Z" fill="white"/>
<path d="M424.22 138.152C417.92 135.91 407.955 134.572 403.835 134.719C400.971 134.825 395.339 136.335 390.85 138.152C400.461 148.859 418.835 169.394 418.835 169.394L424.408 192.657H432.89L424.408 168.423L424.22 138.152Z" fill="#EEEEEC"/>
<path d="M397.993 214.467C397.993 214.467 386.119 158.188 385.878 158.974C380.323 177.122 391.452 223.919 391.452 223.919C391.452 223.919 453.844 217.602 455.277 213.35C455.352 213.115 455.344 212.657 455.272 212.054C440.457 215.162 397.993 214.467 397.993 214.467Z" fill="#EEEEEC"/>
<path d="M384.84 141.366C360.105 176.934 343.572 228.989 350.139 240.504C356.71 252.022 368.493 243.216 373.342 220.518C378.197 197.823 391.208 187.327 391.208 187.327L384.84 141.366Z" fill="#EEEEEC"/>
<path d="M394.36 181.755L384.84 141.366C360.105 176.934 343.572 228.989 350.139 240.504C352.629 244.869 355.862 246.303 359.187 245.183C356.765 230.665 372.55 188.538 394.36 181.755Z" fill="white"/>
<path d="M442.653 257.359C451.938 213.341 472.745 186.002 478.591 184.798C484.437 183.595 508.853 190.646 508.853 190.646L442.653 257.359Z" fill="#EADDBE"/>
<path d="M437.047 265.46L474.563 261.847L519.921 186.307L483.212 180.887L437.047 265.46Z" fill="#563B3B"/>
<path d="M395.248 135.81L392.111 98.6525L409.019 97.5443L416.568 136.598L418.679 162.495L395.248 135.81Z" fill="#FFB882"/>
<path d="M380.665 216.589C357.583 216.408 346.862 226.403 346.862 226.403C346.862 226.403 343.044 243.125 355.587 247.67C368.126 252.214 380.665 216.589 380.665 216.589Z" fill="#F9CFAC"/>
<path d="M368.701 217.478C353.863 219.893 346.862 226.403 346.862 226.403C346.862 226.403 346.568 227.739 346.413 229.729C347.603 230.808 349.042 231.741 350.86 232.4C357.404 234.77 363.939 226.209 368.7 217.478" fill="#FCDFBE"/>
<path d="M357.891 225.713C376.183 207.196 427.261 196.75 431.503 198.981C435.757 201.221 374.84 239.017 362.893 242.577C351.576 245.951 353.174 230.486 357.891 225.713Z" fill="#FFB882"/>
<path d="M428.257 198.714C410.957 209.448 373.477 228.577 364.013 230.981C359.709 232.075 357.146 230.981 355.821 228.935C353.015 235.204 353.493 245.38 362.893 242.577C374.84 239.017 435.757 201.221 431.503 198.981C431.013 198.724 429.876 198.641 428.257 198.715" fill="#FF9566"/>
<path d="M443.169 161.533C438.733 155.523 434.229 149.094 429.861 142.254C434.229 149.097 438.733 155.518 443.169 161.531C443.169 161.531 443.169 161.531 443.169 161.533ZM384.87 141.488L384.836 141.366L384.87 141.488ZM427.633 139.682C427.567 139.641 427.501 139.599 427.434 139.565C427.5 139.607 427.568 139.648 427.633 139.682ZM416.474 136.115L409.019 97.5443L416.474 136.115Z" fill="#541D17"/>
<path d="M440.378 166.628C436.385 156.306 432.456 147.103 429.832 142.567L429.865 142.255C434.234 149.094 438.737 155.524 443.173 161.534C442.399 163.34 441.469 165.046 440.382 166.629" fill="#D3D7CF"/>
<path d="M417.612 177.934C409.245 177.934 400.08 174.929 391.434 169.34L384.87 141.488L384.876 141.513C385.902 140.44 388.156 139.241 390.851 138.153C400.461 148.86 418.835 169.395 418.835 169.395L420.843 177.779C419.782 177.885 418.703 177.935 417.612 177.935V177.934ZM427.22 176.454L424.408 168.424L424.22 138.153C425.455 138.593 426.554 139.062 427.434 139.566C427.5 139.608 427.568 139.649 427.633 139.683C427.641 139.69 427.65 139.7 427.666 139.7C428.203 140.027 428.948 141.051 429.833 142.581V142.565C432.457 147.101 436.385 156.304 440.379 166.626C438.913 168.755 437.154 170.655 435.084 172.27C432.697 174.128 430.053 175.515 427.221 176.451L427.22 176.454ZM424.221 138.15C423.905 138.038 423.579 137.926 423.245 137.819C423.579 137.926 423.905 138.039 424.221 138.15ZM390.852 138.15C391.385 137.934 391.933 137.722 392.49 137.52C391.934 137.725 391.385 137.935 390.852 138.15ZM416.476 136.115V136.112V136.115Z" fill="#D3D7CF"/>
<path d="M420.843 177.778L418.835 169.394C418.835 169.394 400.461 148.859 390.85 138.152C391.384 137.939 391.932 137.728 392.489 137.522C393.093 137.299 393.703 137.084 394.322 136.883L394.568 136.8C394.972 136.668 395.377 136.539 395.779 136.416L418.679 162.494L416.568 136.597L416.474 136.116C418.245 136.465 419.992 136.873 421.62 137.333L421.769 137.375C422.274 137.518 422.766 137.668 423.244 137.82C423.578 137.927 423.903 138.04 424.22 138.151L424.408 168.422L427.22 176.452C425.185 177.123 423.047 177.563 420.843 177.777" fill="#888A85"/>
<path d="M391.434 169.34C385.913 165.773 380.607 161.152 375.854 155.585C378.698 150.659 381.703 145.88 384.84 141.366L384.874 141.488L391.438 169.34" fill="#D3D7CF"/>
<path d="M418.679 162.495L395.779 136.417C395.779 136.417 395.779 136.417 395.782 136.414L395.248 135.81L392.111 98.6527L409.019 97.5444L416.475 136.115V136.117L416.569 136.599L418.68 162.496" fill="#DF6648"/>
<path d="M393.809 49.9087C384.846 65.5351 389.009 98.7729 390.355 103.097C391.704 107.422 403.51 124.531 422.582 131.852C435.417 119.41 440.867 106.589 441.741 98.8784C442.749 89.9716 442.102 67.6343 433.541 48.4135C429.474 39.2898 399.567 39.8672 393.809 49.9087Z" fill="#FFB882"/>
<path d="M422.174 93.9001C424.795 97.0313 427.296 101.631 426.349 102.983C425.405 104.331 419.916 105.015 419.418 104.721C418.919 104.431 422.174 93.9001 422.174 93.9001Z" fill="#EA7B59"/>
<path d="M420.485 93.2962C423.112 96.4273 425.61 101.03 424.663 102.382C423.722 103.73 418.234 104.411 417.732 104.12C417.234 103.827 420.485 93.2962 420.485 93.2962Z" fill="#FFB882"/>
<path d="M402.209 83.3604C402.329 79.6282 404.607 76.8049 407.313 77.057C410.007 77.318 412.101 80.5605 411.98 84.3045C411.866 88.0454 409.579 90.8657 406.888 90.6049C404.191 90.3439 402.091 87.1072 402.209 83.3604Z" fill="#5E3E38"/>
<path d="M425.534 82.3225C425.417 78.5698 427.223 75.6204 429.598 75.7113C431.955 75.8111 433.96 78.9245 434.077 82.6772C434.195 86.4211 432.377 89.3851 430.017 89.2825C427.654 89.1886 425.654 86.0693 425.534 82.3225Z" fill="#5E3E38"/>
<path d="M436.892 79.4728C436.892 79.4728 429.53 75.9899 423.716 77.7255C423.716 77.7255 424.789 74.8905 429.31 74.9784C433.819 75.0748 436.892 79.4728 436.892 79.4728Z" fill="#5E3E38"/>
<path d="M400.045 82.1906C400.045 82.1906 406.116 77.1772 412.446 77.5231C412.446 77.5231 410.406 75.0311 405.984 76.1364C401.563 77.2358 400.045 82.1906 400.045 82.1906Z" fill="#5E3E38"/>
<path d="M437.853 72.4805L438.17 71.5482C434.382 66.6843 427.105 65.2536 423.772 65.6846L423.747 68.2089C426.35 67.4992 433.747 68.5638 437.855 72.4805" fill="#99393E"/>
<path d="M397.324 74.5737C402.332 69.6131 412.397 67.5081 414.874 67.3908L414.393 64.8724C411.604 65.0777 402.272 67.6049 396.555 73.7645L397.323 74.5739" fill="#99393E"/>
<path d="M427.082 113.221L426.666 112.429C426.282 112.605 417.571 116.495 407.368 107.565L406.263 108.934C415.501 116.815 422.989 115.179 427.082 113.22" fill="#EA7B59"/>
<path d="M416.378 118.111C416.411 117.512 417.639 117.809 419.278 117.976C420.919 118.147 422.35 118.122 422.318 118.721C422.293 119.319 420.934 119.668 419.292 119.498C417.653 119.328 416.346 118.706 416.378 118.111" fill="#EA7B59"/>
<path d="M395.489 109.424C380.384 57.1531 423.206 44.9627 413.889 40.9785C396.342 33.476 378.815 44.2737 377.517 60.9058C375.614 85.2807 395.489 109.424 395.489 109.424Z" fill="#7A4939"/>
<path d="M404.865 54.2096C396.714 55.9775 389.64 54.7406 387.705 50.7354C386.374 47.9766 387.763 44.479 391.035 41.1866C383.553 44.8426 378.211 52.0225 377.517 60.9058C375.614 85.2807 395.489 109.424 395.489 109.424C387.165 80.6221 396.427 64.0047 404.865 54.2096Z" fill="#603429"/>
<path d="M390.2 91.0533C384.492 81.1615 377.552 88.3679 381.243 98.2656C384.931 108.166 398.904 115.856 398.608 110.74C398.309 105.621 393.008 95.9201 390.2 91.0533Z" fill="#FFB882"/>
<path d="M390.733 97.6205C387.702 92.3697 384.019 96.1957 385.978 101.449C387.936 106.706 395.354 110.787 395.199 108.072C395.037 105.355 392.223 100.203 390.733 97.6205Z" fill="#DB5B3E"/>
<path d="M392.715 102.701C390.127 98.7962 387.467 101.928 389.229 105.885C390.991 109.846 396.908 112.637 396.658 110.55C396.407 108.459 393.988 104.625 392.715 102.701Z" fill="#FFB882"/>
<path d="M486.457 181.367L483.212 180.886L437.047 265.459L440.75 265.102L486.457 181.367" fill="#684848"/>
<path d="M486.692 411H507.771C507.771 411 490.081 398.642 484.507 399.852C478.934 401.064 486.692 411 486.692 411Z" fill="#FCDFBE"/>
<path d="M456.239 411H437.176C437.176 411 451.571 394.373 456.767 396.003C461.962 397.633 456.239 411 456.239 411Z" fill="#FCDFBE"/>
<path d="M418.705 199.225C422.916 194.443 425.551 188.391 426.651 186.873C427.73 185.384 431.38 183.836 429.832 188.69C428.243 193.672 428.425 192.93 430.104 194.78C431.899 196.759 416.574 201.65 418.705 199.225Z" fill="#FFB882"/>
<path d="M434.341 190.502C434.959 189.688 434.139 187.951 432.506 186.621C430.873 185.287 429.046 184.871 428.428 185.683C427.812 186.498 428.633 188.237 430.263 189.567C431.896 190.896 433.722 191.318 434.341 190.502Z" fill="#FFB882"/>
<path d="M452.732 204.866C439.012 200.321 421.834 190.415 421.107 189.054C420.38 187.69 421.016 183.51 428.105 186.6C435.191 189.688 452.732 204.866 452.732 204.866Z" fill="#33404F"/>
<path d="M412.64 206.42C419.782 204.499 429.143 206.824 432.89 204.411C435.81 202.531 436.367 194.281 434.191 193.232C432.019 192.185 412.247 202.552 412.247 202.552L412.64 206.42" fill="#FFB882"/>
<path d="M428.8 197.011C434.18 196.545 441.594 196.928 442.559 194.709C443.696 192.082 433.649 193.232 433.649 193.232L428.8 197.011Z" fill="#FFB882"/>
<path d="M432.834 201.154C437.021 201.379 438.718 201.734 438.78 200.21C438.838 198.685 432.444 197.26 432.444 197.26L432.834 201.154Z" fill="#FFB882"/>
<path d="M430.122 205.335C435.608 204.988 438.22 204.174 437.736 202.684C437.252 201.195 428.178 201.608 428.178 201.608L430.122 205.335Z" fill="#FFB882"/>
<path d="M494.807 230.947C495.314 222.832 494.323 215.681 496.381 217.741C498.442 219.8 497.956 228.038 497.352 230.099C496.745 232.161 494.687 232.887 494.807 230.947Z" fill="#FF9566"/>
<path d="M490.163 239.801C489.781 231.676 488.017 224.678 490.289 226.499C492.558 228.322 492.978 236.567 492.599 238.681C492.221 240.795 490.251 241.742 490.163 239.801" fill="#FF9566"/>
<path d="M493.068 235.681C492.69 227.557 490.925 220.56 493.195 222.383C495.47 224.204 495.883 232.445 495.505 234.561C495.129 236.676 493.162 237.622 493.069 235.681" fill="#FF9566"/>
<path d="M477.035 231.065C475.148 229.742 475.523 225.948 477.876 222.597C479.06 220.905 480.524 219.653 481.923 218.992C480.075 219.137 477.794 220.653 476.081 223.093C473.728 226.447 473.353 230.238 475.242 231.565C476.178 232.22 477.496 232.143 478.873 231.494C478.182 231.547 477.551 231.424 477.035 231.065Z" fill="#DBC8A2"/>
<path d="M486.367 216.445C484.544 215.164 481.613 216.025 478.874 218.309C481.039 217.034 483.152 216.708 484.581 217.708C487.149 219.51 486.537 224.812 483.212 229.551C482.247 230.923 481.16 232.071 480.041 233.003C481.767 231.989 483.525 230.386 484.999 228.286C488.324 223.546 488.936 218.245 486.367 216.445Z" fill="#D3BB92"/>
</g>
<defs>
<clipPath id="clip0">
<rect width="557" height="411" fill="white"/>
</clipPath>
</defs>
</svg>
