<svg width="596" height="504" viewBox="0 0 596 504" fill="none" xmlns="http://www.w3.org/2000/svg">
<g clip-path="url(#clip0)">
<path d="M305.199 422.382H362.479L369.086 496.267H298.592L305.199 422.382Z" fill="#DBC1A2"/>
<path d="M300.918 470.227L305.199 422.382H362.479L367.06 473.614L300.918 470.227Z" fill="#BC9E7D"/>
<path d="M194.214 221.678H473.464C482.43 221.678 489.701 228.957 489.701 237.934V434.797C489.701 443.776 482.43 451.053 473.464 451.053H194.214C185.248 451.053 177.977 443.776 177.977 434.797V237.934C177.977 228.957 185.248 221.678 194.214 221.678Z" fill="#EADDBE"/>
<path d="M443.041 451.053H308.506L234.549 221.678H334.725L443.041 451.053Z" fill="#F4E8D0"/>
<path d="M179.996 229.031C179.614 230.36 179.399 231.759 179.399 233.21V432.262C179.399 440.634 186.18 447.425 194.545 447.425H472.305C480.67 447.425 487.453 440.634 487.453 432.262V233.21C487.453 231.759 487.235 230.36 486.856 229.031C488.387 231.402 489.287 234.222 489.287 237.255V436.305C489.287 444.679 482.506 451.468 474.141 451.468H192.709C184.344 451.468 177.565 444.679 177.565 436.305V237.255C177.565 234.22 178.463 231.402 179.996 229.031" fill="#F2E6CC"/>
<path d="M294.919 491.122H372.759V498.474H294.919V491.122Z" fill="#EADDBE"/>
<path d="M193.123 221.678H474.555C482.92 221.678 489.701 228.466 489.701 236.841V413.559H177.975V236.841C177.975 228.466 184.758 221.678 193.123 221.678Z" fill="#1F1818"/>
<path d="M296.415 413.559L234.549 221.678H334.725L425.335 413.559H296.415Z" fill="#3C3030"/>
<path d="M475.88 227.559H191.798C185.708 227.559 180.468 231.097 178.01 236.204C178.347 228.126 184.973 221.678 193.123 221.678H474.555C482.705 221.678 489.333 228.128 489.668 236.204C487.21 231.097 481.97 227.559 475.88 227.559Z" fill="#4A3939"/>
<path d="M477.307 413.559H190.368V234.91H477.307V413.559Z" fill="#BFEBF4"/>
<path d="M473.662 410.66H194.015V237.811H473.662V410.66Z" fill="#D6F2F8"/>
<path d="M239.66 237.811H366.334L428.017 410.66H301.344L239.66 237.811Z" fill="#A5EDF9"/>
<path d="M308.781 433.135H358.899C359.886 433.135 360.689 433.936 360.689 434.927C360.689 435.915 359.886 436.719 358.899 436.719H308.781C307.791 436.719 306.989 435.915 306.989 434.927C306.989 433.936 307.791 433.135 308.781 433.135Z" fill="#DBC1A2"/>
<path d="M274.28 477.638C290.797 479.488 329.617 487.501 329.617 487.501L326.033 497.844H243.903H235.367C232.883 471.975 260.083 476.047 274.28 477.638Z" fill="#EADDBE"/>
<path d="M329.569 487.64L326.033 497.844H235.367C235.041 494.473 245.397 494.077 245.989 491.653L329.569 487.64Z" fill="#E2D1B0"/>
<path d="M240.894 478.9C226.01 478.9 190.016 488.335 190.016 488.335L190.087 497.844H270.339C265.136 483.609 253.156 478.9 240.894 478.9Z" fill="#EADDBE"/>
<path d="M231.426 482.123C219.215 482.123 185.464 489.041 185.464 489.041L188.096 497.844H253.928C249.659 485.883 241.484 482.123 231.426 482.123Z" fill="#D6C49F"/>
<path d="M250.157 479.428C261.835 479.428 293.891 489.041 293.891 489.041L291.375 497.844H228.411H228.413C232.495 485.883 240.538 479.428 250.157 479.428Z" fill="#D6C49F"/>
<path d="M237.782 483.753C237.782 483.753 241.579 487.559 241.648 495.878H231.283C232.994 488.272 237.782 483.753 237.782 483.753Z" fill="#6B5149"/>
<path d="M184.23 495.306H329.358C330.586 495.306 331.581 496.302 331.581 497.531C331.581 498.758 330.586 499.754 329.358 499.754H184.23C183.004 499.754 182.007 498.758 182.007 497.531C182.007 496.302 183.004 495.306 184.23 495.306Z" fill="#D6C49F"/>
<path d="M181.403 495.306H289.631C290.857 495.306 291.852 496.302 291.852 497.531C291.852 498.758 290.857 499.754 289.631 499.754H181.403C180.175 499.754 179.183 498.758 179.183 497.531C179.183 496.302 180.175 495.306 181.403 495.306Z" fill="#6B5149"/>
<path d="M414.444 237.811H440.383L439.995 234.91H413.753C413.98 235.801 414.209 236.767 414.445 237.811" fill="#BFEBF4"/>
<path d="M430.742 363.443L457.122 362.607L440.383 237.811H414.444C419.546 260.406 426.759 317.597 430.742 363.443Z" fill="#BFEBF4"/>
<path d="M430.851 414.186H225.091C225.091 414.186 245.211 243.93 249.755 230.934C249.755 230.934 304.928 189.995 320.506 184.795C336.085 179.597 404.889 220.536 411.378 228.334C417.87 236.132 430.851 369.998 430.851 414.186Z" fill="#0763AA"/>
<path d="M243.271 280.76C243.271 280.76 230.958 372.193 241.284 371.001C247.258 370.311 257.961 339.994 258.06 293.154C256.841 345.835 274.089 387.349 302.366 392.438C337.169 398.701 367.38 361.417 379.863 291.89C373.51 363.844 397.132 390.618 405.673 390.479C416.098 390.308 433.071 337.607 411.378 228.334C417.87 236.132 430.851 369.998 430.851 414.186H225.091C225.091 414.186 238.726 293.756 243.271 280.76Z" fill="#065898"/>
<path d="M253.314 231.567C249.549 243.333 234.587 378.646 230.697 414.186H222.223C222.223 414.186 245.211 243.93 249.755 230.934C249.755 230.934 259.392 223.785 271.737 215.088C261.212 224.296 253.314 231.567 253.314 231.567Z" fill="#043D69"/>
<path d="M407.587 228.855C405.511 226.13 396.732 218.888 385.43 210.673C398.568 218.39 409.035 225.521 411.378 228.334C417.87 236.132 433.665 369.998 433.665 414.186H426.061C424.815 361.492 413.438 236.538 407.587 228.855Z" fill="#043D69"/>
<path d="M258.853 296.363L244.857 414.133H252.898L258.853 296.363Z" fill="#043D69"/>
<path d="M379.764 294.872L371.424 414.133H379.465L379.764 294.872Z" fill="#043D69"/>
<path d="M353.922 141.965L353.316 194.605C353.316 194.605 333.471 219.564 299.561 198.17L304.588 140.606L353.922 141.965Z" fill="#FFB882"/>
<path d="M353.448 183.144L356.436 195.688C356.436 195.688 331.182 219.666 297.271 198.272L300.627 185.968C329.778 203.243 348.575 187.985 353.448 183.144Z" fill="#EADDBE"/>
<path d="M321.096 211.988L327.847 206.223L324.073 198.272H320.102L315.934 205.825L321.096 211.988Z" fill="#A0536B"/>
<path d="M320.897 202.247C320.897 202.247 340.752 196.084 341.943 196.482C343.134 196.881 339.956 215.563 336.977 216.559C334.001 217.552 320.698 204.831 320.698 204.831L320.897 202.247" fill="#A0536B"/>
<path d="M321.207 205.494C321.207 205.494 302.144 211.412 300.902 211.03C299.658 210.648 300.442 192.701 303.293 191.747C306.143 190.791 321.075 203.012 321.075 203.012L321.207 205.494" fill="#A0536B"/>
<path d="M353.448 183.144L353.696 161.664L353.448 183.144Z" fill="#DF8E8E"/>
<path d="M411.441 228.414C411.441 228.414 411.441 228.414 411.441 228.411V228.414ZM411.422 228.395V228.393V228.395ZM411.408 228.377C411.408 228.377 411.408 228.374 411.406 228.374C411.408 228.377 411.408 228.377 411.408 228.377ZM411.39 228.358C411.39 228.356 411.39 228.356 411.388 228.353C411.39 228.356 411.39 228.356 411.39 228.358ZM411.371 228.339C411.357 228.321 411.339 228.302 411.324 228.287C411.326 228.289 411.329 228.291 411.333 228.291C411.336 228.296 411.338 228.296 411.343 228.305C411.345 228.308 411.347 228.31 411.352 228.31C411.354 228.312 411.357 228.315 411.361 228.315C411.371 228.319 411.375 228.328 411.38 228.333" fill="#300F0F"/>
<path d="M269.313 217.216C270.102 216.521 270.909 215.813 271.735 215.091C270.814 215.739 269.924 216.369 269.038 216.996C269.131 217.07 269.221 217.142 269.313 217.216" fill="#472022"/>
<path d="M409.838 236.044C411.149 235.512 412.409 234.952 413.61 234.368C412.814 231.321 412.083 229.256 411.44 228.413V228.411C411.436 228.406 411.431 228.397 411.422 228.392V228.39C411.417 228.385 411.413 228.385 411.408 228.371C411.408 228.371 411.408 228.371 411.406 228.369C411.401 228.364 411.396 228.355 411.392 228.355C411.392 228.353 411.392 228.353 411.389 228.351C411.385 228.346 411.38 228.337 411.376 228.337C411.371 228.332 411.366 228.323 411.357 228.318C411.355 228.316 411.352 228.313 411.348 228.313C411.345 228.311 411.343 228.309 411.339 228.309C411.334 228.304 411.329 228.304 411.329 228.295C411.327 228.293 411.325 228.29 411.32 228.29C411.318 228.288 411.315 228.286 411.311 228.286C411.137 228.082 410.911 227.852 410.661 227.612L410.402 227.366C410.173 227.153 409.916 226.926 409.639 226.688L409.331 226.426C408.954 226.111 408.54 225.778 408.087 225.424L407.615 225.064C407.287 224.812 406.946 224.555 406.586 224.289C406.347 224.113 406.105 223.934 405.853 223.752C405.527 223.516 405.182 223.27 404.833 223.023C404.34 222.671 403.822 222.312 403.285 221.939C402.973 221.724 402.666 221.51 402.342 221.291C401.91 220.997 401.458 220.695 401.005 220.392C400.783 220.244 400.561 220.096 400.334 219.945C398.908 218.998 397.379 218.009 395.76 216.984C395.409 216.761 395.05 216.535 394.689 216.31L394.68 216.305C394.248 216.034 393.81 215.761 393.369 215.488C390.873 213.937 388.205 212.325 385.415 210.688C396.717 218.903 405.496 226.145 407.573 228.871C408.255 229.769 409.014 232.265 409.823 236.06" fill="#043D69"/>
<path d="M331.982 240.974C343.418 232.493 358.917 219.101 370.152 202.127C370.793 202.468 371.436 202.808 372.074 203.15C370.934 202.535 369.787 201.926 368.64 201.321L368.231 201.106C367.088 200.506 365.943 199.913 364.796 199.328C364.556 199.203 364.315 199.082 364.07 198.957C363.034 198.432 361.998 197.909 360.964 197.395C360.643 197.237 360.324 197.082 360.002 196.925C359.047 196.452 358.092 195.989 357.144 195.535C356.861 195.401 356.584 195.267 356.304 195.135L356.436 195.688C356.436 195.688 350.846 200.995 341.399 204.387C340.414 209.761 338.663 215.996 336.978 216.559C336.866 216.596 336.739 216.611 336.601 216.611C334.394 216.611 328.863 212.131 324.947 208.697L321.097 211.985L316.786 206.84C311.335 208.484 302.595 211.045 301.069 211.045C300.997 211.045 300.939 211.04 300.902 211.026C300.222 210.818 300.148 205.354 300.687 200.29C299.561 199.667 298.421 198.994 297.271 198.269L297.443 197.639C295.01 199.206 292.512 200.848 289.998 202.527C288.856 203.291 287.706 204.062 286.559 204.84C287.373 204.288 288.185 203.742 288.997 203.198L307.54 235.483C315.148 237.736 323.351 239.6 331.982 240.97" fill="#0763AA"/>
<path d="M335.732 196.275C349.932 196.275 350.247 186.323 353.448 183.144L353.696 161.664C353.682 161.678 353.668 161.692 353.659 161.697C353.659 161.697 351.892 158.995 350.31 155.929C345.985 168.932 342.077 176.899 342.077 176.899C342.077 176.899 323.455 183.711 303.238 183.711C302.438 183.711 301.633 183.706 300.828 183.679L300.629 185.966C310.634 191.896 318.88 196.49 326.303 196.49" fill="#DF6648"/>
<path d="M341.399 204.387C350.846 200.995 356.436 195.688 356.436 195.688L356.304 195.135L353.448 183.146V183.144C350.247 186.323 341.043 193.996 326.843 193.996C319.419 193.996 310.631 191.898 300.627 185.968L297.445 197.642L297.271 198.272C298.42 198.997 299.56 199.671 300.687 200.294C301.135 196.098 302.003 192.181 303.293 191.748C303.4 191.711 303.525 191.695 303.663 191.695C306.29 191.695 314.428 197.782 318.582 201.029L320.101 198.273H324.072L325.319 200.899C330.975 199.188 340.233 196.465 341.776 196.465C341.85 196.465 341.905 196.47 341.942 196.483C342.458 196.657 342.153 200.269 341.399 204.388" fill="#DF6648"/>
<path d="M301.069 211.048L310.828 225.85L328.642 216.044L335.364 203.454L346.863 188.244L300.627 185.969L303.059 204.54L301.069 211.048Z" fill="#DF6648"/>
<path d="M359.269 62.4916C369.884 120.183 342.074 176.902 342.074 176.902C342.074 176.902 304.817 190.53 278.488 179.233C278.488 179.233 276.698 72.3549 286.906 57.8308C297.116 43.3044 342.074 55.6776 359.269 62.4916Z" fill="#FFB882"/>
<path d="M347.805 59.6229C347.805 59.6229 375.032 61.0561 387.571 84.7281C391.151 108.4 375.15 143.408 353.656 161.699C353.656 161.699 348.369 153.609 347.895 149.553C331.505 101.137 347.805 59.6229 347.805 59.6229" fill="#A0442B"/>
<path d="M358.917 110.616C358.917 88.7151 352.583 70.9611 344.771 70.9611L344.461 71.0074C346.174 63.7905 347.805 59.6252 347.805 59.6252C347.805 59.6252 375.032 61.0585 387.571 84.7305C391.151 108.402 375.15 143.41 353.656 161.701C353.656 161.701 348.369 153.612 347.895 149.555L347.821 149.323C354.165 145.408 358.917 129.578 358.917 110.618" fill="#893521"/>
<path d="M348.818 156.073C363.61 145.019 370.964 132.869 368.598 126.409C366.121 119.643 355.236 118.027 350.139 127.358C344.234 138.166 348.818 156.073 348.818 156.073Z" fill="#FFB882"/>
<path d="M351.041 146.142C359.868 140.403 364.604 133.693 363.624 129.847C362.597 125.821 356.609 124.399 353.279 129.576C349.422 135.57 351.041 146.142 351.041 146.142" fill="#DB5B3E"/>
<path d="M349.338 149.909C355.738 145.749 359.167 140.887 358.457 138.099C357.713 135.182 353.374 134.154 350.962 137.902C348.166 142.248 349.338 149.909 349.338 149.909" fill="#FFB882"/>
<path d="M399.717 451.699H409.382V451.467H399.741L399.717 451.699Z" fill="#DF8E8E"/>
<path d="M287.977 99.5532C288.388 95.036 290.756 91.6301 293.254 91.959C295.743 92.2806 297.424 96.2215 297.001 100.743C296.58 105.254 294.223 108.662 291.737 108.333C289.23 108.011 287.549 104.082 287.977 99.5532Z" fill="#4F3131"/>
<path d="M304.628 94.7095C301.755 92.3085 284.184 133.869 284.498 139.247C284.649 141.924 301.584 139.188 301.584 139.188C301.584 139.188 305.155 95.1346 304.628 94.7109" fill="#FFB882"/>
<path d="M303.064 95.8972C298.106 104.311 285.07 134.033 285.377 138.509C285.514 140.539 295.997 139.344 300.363 138.645C300.275 139.588 300.241 140.134 300.241 140.134C300.241 140.134 282.128 143.866 282.028 141.211C281.846 136.085 299.514 97.1938 303.064 95.8972" fill="#EA7B59"/>
<path d="M316.152 98.4512C316.586 93.9223 318.948 90.5327 321.438 90.8568C323.948 91.1627 325.624 95.1031 325.199 99.618C324.785 104.142 322.417 107.55 319.914 107.233C317.417 106.905 315.74 102.968 316.152 98.4512Z" fill="#4F3131"/>
<path d="M313.377 86.7239C317.78 92.6002 336.064 90.9794 337.486 87.6546C338.913 84.3321 339.556 80.9031 335.627 79.0416C331.695 77.1777 314.336 72.436 311.936 75.0477C309.533 77.657 311.351 84.008 313.377 86.7239Z" fill="#A0442B"/>
<path d="M301.33 85.4806C298.194 91.1207 284.635 87.8445 283.515 84.3229C282.401 80.792 281.857 77.2102 284.725 75.6519C287.604 74.0891 300.349 70.769 302.179 73.6538C304.001 76.5341 302.785 82.8874 301.33 85.4806Z" fill="#A0442B"/>
<path d="M309.04 151.447C313.187 149.875 314.695 139.553 315.167 135.179L317.118 134.763C317.118 134.763 316.025 150.694 310.971 152.69C305.472 154.855 290.379 156.737 286.749 154.209C286.492 154.031 286.242 153.774 285.983 153.549C291.843 154.869 304.096 153.316 309.04 151.447" fill="#EA7B59"/>
<path d="M295.863 159.798C295.844 158.93 297.657 158.203 299.91 158.17C302.16 158.138 303.996 158.816 304.013 159.682C304.031 160.551 302.22 161.28 299.968 161.312C297.718 161.345 295.881 160.666 295.863 159.798Z" fill="#EA7B59"/>
<path d="M387.856 87.0597C387.856 87.0573 387.856 87.055 387.856 87.055C387.856 87.0596 387.856 87.0597 387.856 87.0597ZM387.842 86.916C387.842 86.9021 387.84 86.8974 387.84 86.8835C387.84 86.8974 387.842 86.9113 387.842 86.916ZM387.833 86.8071C387.83 86.7793 387.823 86.7482 387.823 86.7209C387.826 86.7487 387.833 86.7797 387.833 86.8071ZM387.814 86.6657C387.812 86.6333 387.805 86.5999 387.805 86.5661C387.807 86.5985 387.814 86.6328 387.814 86.6657ZM387.8 86.5267C387.798 86.4943 387.791 86.4595 387.786 86.4271C387.791 86.4595 387.796 86.4943 387.8 86.5267ZM387.786 86.402C387.782 86.365 387.777 86.326 387.772 86.2885C387.777 86.3255 387.782 86.3645 387.786 86.402ZM387.768 86.2583C387.763 86.2213 387.759 86.1777 387.754 86.1402C387.759 86.1773 387.763 86.219 387.768 86.2583ZM387.749 86.1175C387.745 86.0804 387.74 86.0341 387.735 85.9919C387.74 86.029 387.745 86.0753 387.749 86.1175ZM387.731 85.9785C387.717 85.8876 387.708 85.8001 387.698 85.7102C387.712 85.7982 387.722 85.8886 387.731 85.9785ZM387.694 85.7028C387.689 85.6564 387.68 85.6119 387.675 85.5683C387.68 85.6147 387.689 85.6592 387.694 85.7028ZM387.675 85.5614C387.671 85.5151 387.661 85.4706 387.657 85.4247C387.661 85.4711 387.671 85.5174 387.675 85.5614ZM387.657 85.4247C387.643 85.332 387.629 85.2398 387.62 85.149C387.634 85.2393 387.648 85.332 387.657 85.4247ZM387.62 85.1444C387.61 85.098 387.606 85.0563 387.601 85.0123C387.606 85.0586 387.615 85.0976 387.62 85.1444ZM387.597 85.0007C387.587 84.9543 387.583 84.9126 387.578 84.8704C387.587 84.9168 387.592 84.9566 387.597 85.0007ZM387.573 84.8593C387.564 84.813 387.56 84.7713 387.555 84.7272C387.56 84.7736 387.569 84.8153 387.573 84.8593ZM387.516 84.6531C387.511 84.6485 387.506 84.6392 387.502 84.6253C387.506 84.63 387.511 84.6392 387.516 84.6531ZM387.474 84.579C387.469 84.5743 387.465 84.5604 387.46 84.5512C387.469 84.5558 387.469 84.5651 387.474 84.579ZM387.437 84.5048C387.432 84.5002 387.423 84.4863 387.418 84.4724C387.428 84.4863 387.432 84.4909 387.437 84.5048ZM387.4 84.4334C387.395 84.4195 387.386 84.4149 387.381 84.401C387.391 84.4149 387.395 84.4195 387.4 84.4334ZM387.363 84.3593C387.358 84.3454 387.349 84.3315 387.344 84.3269C387.354 84.3408 387.358 84.3547 387.363 84.3593ZM387.326 84.2898C387.317 84.2759 387.312 84.262 387.303 84.2527C387.312 84.2666 387.317 84.2805 387.326 84.2898ZM387.289 84.2226C387.27 84.1948 387.256 84.1702 387.242 84.1392C387.261 84.1716 387.274 84.1916 387.289 84.2226ZM387.226 84.1091C387.222 84.1044 387.217 84.0952 387.212 84.0813C387.217 84.0859 387.222 84.0952 387.226 84.1091ZM387.189 84.0377C387.18 84.0238 387.175 84.0099 387.166 84.0006C387.175 84.0145 387.18 84.0285 387.189 84.0377ZM387.152 83.9663C387.143 83.9478 387.134 83.9385 387.124 83.92C387.134 83.9339 387.143 83.9524 387.152 83.9663ZM387.115 83.8996C387.106 83.8857 387.097 83.8671 387.087 83.8532C387.097 83.8718 387.106 83.8857 387.115 83.8996ZM387.074 83.8255C387.064 83.8115 387.055 83.793 387.046 83.7791C387.055 83.793 387.064 83.8069 387.074 83.8255ZM387.037 83.7559C387.027 83.7374 387.018 83.7235 387.009 83.7096C387.023 83.7235 387.027 83.742 387.037 83.7559ZM387.004 83.6901C386.93 83.5604 386.856 83.4311 386.782 83.3008C386.856 83.4306 386.93 83.5599 387.004 83.6901ZM386.78 83.299C386.766 83.2805 386.752 83.2527 386.743 83.2332C386.756 83.2518 386.766 83.2703 386.78 83.299ZM386.743 83.2323C386.729 83.2044 386.715 83.186 386.706 83.1665C386.719 83.185 386.733 83.2035 386.743 83.2323ZM386.706 83.1656C383.435 77.5416 379.326 73.2559 375.008 69.9913C379.326 73.2582 383.438 77.5416 386.706 83.1656ZM374.999 69.9867C374.985 69.9821 374.976 69.9728 374.962 69.9589C374.976 69.9635 374.985 69.9775 374.999 69.9867ZM374.939 69.9403C374.929 69.9357 374.925 69.9358 374.916 69.9265C374.925 69.9311 374.934 69.9403 374.939 69.9403ZM374.872 69.894C374.869 69.8917 374.869 69.8916 374.867 69.8894C374.867 69.8894 374.872 69.8917 374.872 69.894ZM285.728 60.0284C285.73 60.0284 285.73 60.0261 285.73 60.0238C285.73 60.0261 285.73 60.0261 285.728 60.0284ZM285.746 59.9912C285.746 59.989 285.746 59.989 285.749 59.9867C285.746 59.989 285.746 59.989 285.746 59.9912ZM285.783 59.9106C285.786 59.9084 285.786 59.906 285.788 59.906C285.786 59.9083 285.786 59.9106 285.783 59.9106ZM285.802 59.8736C285.804 59.8713 285.804 59.8689 285.806 59.8597C285.804 59.8643 285.804 59.8643 285.802 59.8736ZM285.82 59.8319C285.82 59.8319 285.823 59.8272 285.823 59.8272C285.823 59.8295 285.82 59.8319 285.82 59.8319ZM285.839 59.7948C285.841 59.7902 285.843 59.7902 285.848 59.7809C285.846 59.7855 285.843 59.7855 285.839 59.7948ZM285.857 59.7624C285.86 59.7578 285.862 59.7485 285.867 59.7438C285.864 59.7485 285.862 59.7577 285.857 59.7624ZM285.871 59.7299C285.874 59.7253 285.88 59.716 285.88 59.7114C285.878 59.716 285.871 59.7253 285.871 59.7299ZM285.885 59.6974C285.899 59.6696 285.913 59.6382 285.922 59.6159C285.908 59.6437 285.894 59.6682 285.885 59.6974ZM285.922 59.6141C285.927 59.6002 285.931 59.5955 285.936 59.5816C285.931 59.5955 285.927 59.6002 285.922 59.6141ZM285.936 59.5816C286.216 58.9726 286.507 58.4425 286.808 57.991C286.507 58.4423 286.216 58.9727 285.936 59.5816ZM286.81 57.9887C286.815 57.9841 286.819 57.9747 286.824 57.9701C286.819 57.9747 286.815 57.9841 286.81 57.9887ZM286.829 57.9608C286.843 57.9423 286.852 57.9238 286.866 57.9085C286.852 57.9224 286.843 57.9409 286.829 57.9608ZM286.87 57.8951C286.875 57.8905 286.88 57.8904 286.88 57.8811C286.877 57.8858 286.875 57.8858 286.87 57.8951ZM286.889 57.8673C286.891 57.8627 286.894 57.8626 286.898 57.8534C286.894 57.8557 286.889 57.858 286.889 57.8673ZM286.961 57.7676C286.961 57.7653 286.961 57.7631 286.963 57.7631C286.963 57.7631 286.961 57.7653 286.961 57.7676Z" fill="#37171A"/>
<path d="M296.117 94.5474C295.437 93.0841 294.438 92.1117 293.254 91.9589C293.143 91.945 293.03 91.9404 292.919 91.9404C291.753 91.9404 290.632 92.7392 289.748 94.0658C291.742 94.1608 293.869 94.3161 296.117 94.5496" fill="#451B1B"/>
<path d="M304.676 95.7422C304.69 95.1101 304.674 94.7442 304.628 94.7095C304.547 94.6428 304.454 94.6075 304.352 94.6075C304.038 94.6075 303.622 94.9153 303.124 95.4804C303.638 95.5638 304.153 95.6496 304.676 95.7423" fill="#DF6648"/>
<path d="M325.005 101.007C325.09 100.558 325.157 100.095 325.199 99.6181C325.624 95.1031 323.948 91.1625 321.439 90.8568C321.33 90.8429 321.221 90.8383 321.11 90.8383C318.772 90.8383 316.619 94.0519 316.168 98.3052C319.022 99.0762 321.971 99.9722 325.005 101.012" fill="#451B1B"/>
<path d="M306.986 232.614L308.087 248.56L322.309 249.76L330.141 235.478L306.986 232.614Z" fill="#065898"/>
<path d="M294.366 378.292L308.077 248.562L322.303 249.762L328.029 379.839L308.276 403.704L294.366 378.292Z" fill="#065898"/>
<path d="M300.862 224.67L301.939 240.272L315.854 241.447L323.518 227.472L300.862 224.67Z" fill="#043D69"/>
<path d="M288.514 367.206L301.93 240.274L315.848 241.449L321.451 368.72L302.124 392.07L288.514 367.206Z" fill="#043D69"/>
<path d="M297.445 197.642L291.109 242.656L310.828 225.85L300.627 185.969" fill="white"/>
<path d="M353.448 183.146L356.304 195.135L332.063 246.191L310.828 225.85" fill="white"/>
<path d="M307.214 51.0691C298.032 51.0228 290.415 52.8385 286.905 57.8319C284.984 60.5657 283.488 66.5729 282.325 74.522C298.033 74.8089 334.853 76.5226 361.621 86.1111C361.443 78.3514 360.731 70.434 359.27 62.492C347.986 58.0203 324.745 51.1555 307.214 51.0691Z" fill="#DF6648"/>
<path d="M347.575 60.2434C347.067 61.6511 345.79 65.4111 344.462 71.005L344.77 70.9587C348.928 70.9587 352.657 76.0196 355.245 84.0265C358.523 85.0051 361.7 86.0775 364.714 87.2654C375.199 91.3987 382.49 93.9054 387.926 95.558C388.123 92.6229 388.115 89.7741 387.855 87.0586V87.0447C387.85 86.9983 387.846 86.9552 387.841 86.9089C387.841 86.895 387.841 86.8903 387.841 86.8764C387.839 86.8486 387.832 86.8301 387.832 86.8018C387.829 86.774 387.827 86.743 387.827 86.717C387.825 86.6985 387.823 86.6846 387.822 86.6646C387.82 86.6322 387.813 86.5952 387.813 86.5628C387.811 86.5489 387.809 86.5349 387.809 86.5256C387.806 86.4932 387.804 86.4561 387.799 86.4237C387.799 86.419 387.798 86.4098 387.796 86.3959C387.791 86.3588 387.791 86.318 387.787 86.2805C387.784 86.2666 387.782 86.262 387.782 86.2481C387.777 86.211 387.773 86.1721 387.768 86.1327C387.768 86.1281 387.77 86.1142 387.768 86.1049C387.763 86.0678 387.759 86.021 387.754 85.9793C387.752 85.9747 387.751 85.9747 387.751 85.9654C387.737 85.875 387.728 85.7856 387.718 85.6975C387.718 85.6958 387.718 85.6929 387.718 85.6836C387.714 85.6373 387.704 85.5956 387.7 85.5511C387.7 85.5494 387.699 85.5476 387.696 85.5465C387.692 85.5001 387.682 85.457 387.678 85.4107C387.664 85.318 387.655 85.223 387.641 85.1326V85.1292C387.632 85.0829 387.627 85.0411 387.622 84.9966C387.62 84.992 387.622 84.992 387.622 84.9828C387.613 84.9364 387.608 84.8947 387.604 84.8502C387.604 84.8456 387.604 84.8456 387.604 84.8363C387.594 84.79 387.59 84.7478 387.585 84.7038C387.571 84.6759 387.557 84.6574 387.548 84.6292C387.544 84.6245 387.539 84.6106 387.534 84.6014C387.525 84.5828 387.511 84.569 387.502 84.549C387.497 84.5444 387.493 84.5351 387.488 84.5212C387.479 84.5073 387.474 84.4888 387.465 84.4688C387.46 84.4642 387.456 84.4503 387.446 84.4364C387.437 84.4225 387.433 84.4086 387.423 84.3993C387.419 84.3854 387.414 84.3808 387.405 84.3669C387.395 84.353 387.395 84.3391 387.386 84.3298C387.377 84.3159 387.372 84.302 387.368 84.2881C387.358 84.2742 387.358 84.2696 387.349 84.2557C387.34 84.2418 387.335 84.2278 387.331 84.2139C387.326 84.2093 387.317 84.1954 387.312 84.1861C387.294 84.1537 387.28 84.1338 387.265 84.1046C387.26 84.1 387.256 84.0861 387.246 84.0722C387.242 84.0675 387.242 84.0536 387.237 84.0444C387.228 84.0305 387.219 84.0119 387.209 83.998C387.2 83.9841 387.191 83.9702 387.186 83.9609C387.182 83.947 387.177 83.9424 387.168 83.9285C387.158 83.9146 387.149 83.8961 387.14 83.8822C387.135 83.8775 387.135 83.8636 387.131 83.8544C387.121 83.8405 387.112 83.8219 387.103 83.808C387.098 83.8033 387.094 83.7895 387.089 83.7802C387.08 83.7663 387.071 83.7524 387.061 83.7339C387.057 83.7292 387.052 83.7154 387.047 83.7061C387.038 83.6922 387.034 83.6736 387.02 83.6597C387.017 83.6551 387.015 83.6458 387.015 83.6412C386.941 83.5114 386.865 83.384 386.791 83.2547V83.2512C386.778 83.2327 386.764 83.2142 386.754 83.1854L386.751 83.1819C386.737 83.1634 386.728 83.1356 386.714 83.1161V83.1127C383.446 77.4888 379.334 73.2066 375.016 69.9397C375.012 69.9397 375.012 69.9387 375.012 69.9362C374.998 69.9316 374.984 69.9177 374.975 69.9084C374.965 69.9037 374.956 69.8945 374.951 69.8899C374.942 69.8852 374.938 69.876 374.928 69.8713C374.914 69.8574 374.901 69.8435 374.887 69.8389L374.883 69.8354C369.816 66.0359 364.476 63.6349 359.893 62.123L347.575 60.2434Z" fill="#781E13"/>
<path d="M347.575 60.2434C347.356 60.8505 346.96 62.0417 346.512 63.4824C346.95 62.0747 347.359 60.8415 347.575 60.2434ZM346.512 63.4824C346.377 63.9129 346.281 64.236 346.132 64.7373C346.268 64.2799 346.388 63.8805 346.512 63.4824ZM346.132 64.7373C345.981 65.2453 345.837 65.7552 345.675 66.3348C345.832 65.7716 345.985 65.2334 346.132 64.7373ZM345.675 66.3348C345.469 67.0721 345.26 67.8778 345.041 68.7259C345.257 67.8873 345.471 67.0645 345.675 66.3348ZM345.041 68.7259C344.885 69.3323 344.737 69.886 344.577 70.5471C344.734 69.8974 344.887 69.323 345.041 68.7259ZM344.577 70.5471C344.54 70.7107 344.502 70.8386 344.462 71.0055L344.476 71.002C344.508 70.8602 344.544 70.6869 344.578 70.5478L344.577 70.5471ZM344.475 71.0013C343.805 73.8195 343.137 77.1215 342.534 80.8131C346.873 81.7454 351.143 82.8039 355.245 84.0284C352.656 76.0214 348.928 70.9606 344.77 70.9606L344.475 71.0013Z" fill="#8C2618"/>
<path d="M354.058 2.56128C319.818 -7.33638 284.059 12.4114 274.185 46.6724L398.163 82.5193C408.04 48.2589 388.29 12.4608 354.058 2.56128Z" fill="#FCCB40"/>
<path d="M396.514 92.1703L270.431 55.7247C267.854 54.9814 266.366 52.2856 267.111 49.7074C267.854 47.1253 270.547 45.6414 273.127 46.3853C315.147 58.4707 356.927 68.405 399.207 82.8302C401.788 83.5741 403.275 86.27 402.53 88.8482C401.788 91.427 399.095 92.9142 396.514 92.1703Z" fill="#FABA21"/>
<path d="M323.677 49.6876C327.947 49.6938 331.728 46.7103 334.108 43.1603C336.484 39.6096 337.801 35.4715 339.585 31.5872C344.624 20.6336 353.811 11.8027 364.705 6.69975C361.342 5.03896 357.79 3.63584 354.062 2.55681C348.465 0.938912 342.831 0.126324 337.273 0.0264343C327.403 5.69246 319.461 14.6616 315.041 25.1579C313.045 29.8976 311.744 35.1872 312.968 40.1847C314.191 45.1853 318.534 49.6795 323.677 49.6876Z" fill="#FABA21"/>
<path d="M325.96 90.6437C331.478 90.6437 336.748 89.3795 337.486 87.6546C338.913 84.3321 339.556 80.9031 335.627 79.0416C332.512 77.5644 320.964 74.2813 315.111 74.2813C313.575 74.2813 312.435 74.5056 311.936 75.0477C309.533 77.657 311.351 84.008 313.377 86.7239C315.497 89.5532 320.835 90.6437 325.96 90.6437Z" fill="#8C2618"/>
<path d="M294.251 88.5253C297.292 88.5253 300.106 87.6825 301.33 85.4807C302.785 82.8875 304.001 76.5342 302.179 73.6539C301.658 72.8343 300.257 72.5171 298.448 72.5171C293.899 72.5171 286.786 74.5337 284.725 75.652C281.857 77.2102 282.401 80.7921 283.515 84.323C284.198 86.4692 289.503 88.5253 294.251 88.5253Z" fill="#8C2618"/>
<path d="M317.521 236.436L302.334 414.133H308.407L317.521 236.436Z" fill="#043D69"/>
<path d="M312.337 447.425H321.532L321.495 439.535C321.493 439.535 321.492 439.535 321.492 439.535L321.379 414.186H315.854L312.334 447.425" fill="#D58174"/>
<path d="M311.909 451.468H321.55L321.532 447.425H312.337L311.909 451.468" fill="#D38072"/>
<path d="M318.373 390.426C319.302 390.255 320.278 389.683 321.266 388.706L321.22 378.456L321.155 364.133L318.373 390.426" fill="#043D69"/>
<path d="M315.857 414.186H321.382L321.266 388.706C320.278 389.683 319.302 390.255 318.373 390.426L315.857 414.186" fill="#043D69"/>
<path d="M423.691 499.761L415.264 361.151L321.155 364.133L321.775 501.47L423.691 499.761" fill="#FFD45C"/>
<path d="M418.347 493.405L410.817 365.629L326.495 368.275L327.059 495.137L418.347 493.405Z" fill="#FFEDD2"/>
<path d="M344.413 489.039C345.523 489.039 346.559 488.824 347.438 488.349C347.864 488.717 348.419 488.883 349.066 488.883C354.073 488.883 364.429 478.872 359.885 475.179C363.386 469.412 355.336 461.553 349.279 461.553C348.065 461.553 346.929 461.868 345.984 462.581C345.218 462.176 344.36 461.993 343.451 461.993C336.906 461.993 327.813 471.512 332.013 475.698C328.9 481.789 337.968 489.039 344.413 489.039" fill="#F9DBC2"/>
<path d="M333.412 473.236C329.009 468.395 340.473 456.918 346.282 460.347C351.492 456.17 362.959 466.309 359.087 473.167C363.81 477.418 351.046 489.416 347.621 486.135C342.112 489.266 330.052 480.321 333.412 473.236Z" fill="#ED4F5F"/>
<path d="M321.497 439.535L321.381 414.186L321.495 439.535" fill="#D0776B"/>
<path d="M321.266 388.706L321.22 378.456L321.266 388.706Z" fill="#572728"/>
<path d="M321.382 414.186L321.266 388.706L321.382 414.186Z" fill="#4E2324"/>
<path d="M422.836 485.686L419.741 434.802L418.793 419.213C417.167 418.99 415.546 418.692 413.923 418.328L417.755 483.373C419.424 484.155 421.117 484.926 422.838 485.686H422.836ZM326.814 439.891L326.53 375.939C324.763 375.446 322.987 375.013 321.204 374.652L321.222 378.456L321.269 388.706L321.385 414.186L321.5 439.534C323.286 439.576 325.057 439.694 326.817 439.891" fill="#F9C455"/>
<path d="M417.755 483.373L413.923 418.328C385.438 411.91 357.325 384.541 326.53 375.939L326.814 439.891C354.913 443.045 380.014 465.7 417.755 483.373" fill="#F9DBC2"/>
<path d="M333.525 403.797L408.176 401.609V407.175L333.525 409.363V403.797Z" fill="#BC9E7D"/>
<path d="M333.724 414.927L408.375 412.741V418.305L333.724 420.493V414.927Z" fill="#BC9E7D"/>
<path d="M371.187 423.197L405.997 423.165L405.655 428.719L370.843 428.752L371.187 423.195" fill="#BC9E7D"/>
<path d="M342.302 445.797L371.638 446.064L371.004 450.049L341.668 449.782L342.302 445.797Z" fill="#BC9E7D"/>
<path d="M337.621 473.236C337.36 467.643 341.252 463.107 346.317 463.107C351.381 463.107 355.697 467.643 355.96 473.236C356.222 478.833 352.33 483.366 347.265 483.366C342.2 483.366 337.882 478.833 337.621 473.236Z" fill="#B52D48"/>
<path d="M338.87 473.236C338.643 468.404 342.006 464.484 346.381 464.484C350.757 464.484 354.485 468.404 354.712 473.236C354.938 478.069 351.576 481.988 347.2 481.988C342.825 481.988 339.097 478.069 338.87 473.236Z" fill="#CE3A50"/>
<path d="M347.134 467.303C347.025 467.287 346.914 467.305 346.815 467.355C346.717 467.405 346.637 467.484 346.586 467.582L344.968 470.724L341.365 471.111C341.267 471.123 341.175 471.163 341.098 471.225C341.022 471.287 340.964 471.369 340.931 471.462C340.898 471.555 340.892 471.655 340.913 471.751C340.935 471.847 340.982 471.936 341.051 472.007L343.531 474.531L342.788 478.06C342.769 478.158 342.778 478.258 342.813 478.351C342.848 478.444 342.908 478.525 342.987 478.585C343.066 478.645 343.159 478.682 343.258 478.691C343.357 478.7 343.456 478.682 343.544 478.638L346.707 477.053L349.846 478.857C349.933 478.904 350.031 478.927 350.13 478.921C350.228 478.916 350.323 478.883 350.404 478.827C350.485 478.77 350.549 478.692 350.588 478.602C350.627 478.511 350.64 478.411 350.626 478.313L350.104 474.813L352.762 472.406C352.837 472.34 352.893 472.255 352.921 472.159C352.95 472.063 352.951 471.961 352.925 471.864C352.898 471.768 352.845 471.681 352.771 471.614C352.697 471.546 352.606 471.501 352.507 471.483L349.015 470.906L347.533 467.61C347.498 467.53 347.442 467.46 347.373 467.406C347.303 467.352 347.221 467.317 347.134 467.303L347.134 467.303Z" fill="#B52D48"/>
<path d="M346.099 380.475L346.121 381.565L342.147 381.65C342.125 383.744 342.135 385.794 342.177 387.799C342.218 389.805 342.292 391.802 342.399 393.792L340.504 393.831C340.579 391.809 340.594 389.766 340.552 387.702C340.509 385.639 340.41 383.635 340.253 381.69L336.29 381.774L336.268 380.685C337.845 380.775 339.48 380.803 341.171 380.768C342.862 380.733 344.505 380.637 346.099 380.481L346.099 380.475Z" fill="#ED4F5F"/>
<path d="M355.989 390.541L356.073 393.549C354.359 393.52 352.925 393.517 351.771 393.541C350.617 393.564 349.383 393.622 348.071 393.716C348.145 391.301 348.159 389.018 348.115 386.867C348.07 384.709 347.964 382.578 347.797 380.473C348.939 380.559 350.134 380.588 351.383 380.563C352.631 380.537 354.053 380.453 355.647 380.311L355.665 381.183L349.168 381.321L349.262 385.877C349.917 385.915 351.159 385.908 351.907 385.892C352.655 385.875 353.536 385.822 354.55 385.729L354.572 386.764L349.283 386.877L349.338 390.681L355.989 390.541Z" fill="#ED4F5F"/>
<path d="M361.844 386.436C362.7 386.416 363.418 386.16 363.995 385.661C364.58 385.155 364.864 384.487 364.847 383.659C364.83 382.83 364.534 382.182 363.957 381.714C363.381 381.239 362.679 381.01 361.852 381.028L360.33 381.049L360.441 386.455L361.844 386.436ZM358.936 380.296L362.059 380.153C363.177 380.131 364.159 380.383 365.005 380.909C365.917 381.486 366.385 382.363 366.41 383.541C366.429 384.493 366.13 385.313 365.513 386.002C364.895 386.683 364.115 387.063 363.173 387.141C363.293 387.342 363.549 387.798 363.942 388.51C364.341 389.221 364.665 389.774 364.913 390.169C365.16 390.556 365.546 391.101 366.068 391.802C366.598 392.496 366.96 392.986 367.155 393.273L365.016 393.321L362.203 387.298L360.46 387.333L360.585 393.404L357.607 393.478C357.678 391.295 357.691 389.096 357.645 386.88C357.599 384.664 357.495 382.456 357.334 380.257C357.785 380.295 358.319 380.313 358.936 380.3L358.936 380.296Z" fill="#ED4F5F"/>
<path d="M373.219 392.327C374.083 392.306 374.785 392.029 375.326 391.487C375.866 390.945 376.128 390.249 376.11 389.399C376.093 388.541 375.814 387.871 375.274 387.388C374.741 386.898 374.05 386.661 373.2 386.679L371.398 386.716L371.515 392.361C372.134 392.342 373.219 392.328 373.219 392.328L373.219 392.327ZM375.721 383.324C375.776 382.46 375.418 381.858 374.865 381.412C374.318 380.966 373.671 380.75 372.923 380.765C372.923 380.765 371.954 380.776 371.276 380.797L371.367 385.407C372.029 385.51 372.194 385.498 373.421 385.502C374.648 385.503 375.655 384.361 375.721 383.324L375.721 383.324ZM370.04 380.034L373.185 379.889C374.179 379.864 375.082 380.139 375.892 380.705C376.282 380.973 376.598 381.326 376.84 381.765C377.081 382.196 377.208 382.713 377.22 383.316C377.233 383.919 377.023 384.48 376.591 384.998C376.166 385.515 375.615 385.901 374.937 386.155C375.732 386.335 376.364 386.703 376.833 387.261C377.31 387.81 377.556 388.492 377.573 389.306C377.597 390.483 377.199 391.418 376.378 392.111C375.565 392.804 374.566 393.163 373.383 393.188L370.355 393.198C369.746 393.213 369.198 393.241 368.712 393.282C368.73 390.629 368.718 388.27 368.675 386.206C368.632 384.143 368.553 382.069 368.438 379.985C368.976 380.027 369.51 380.039 370.04 380.028L370.04 380.034Z" fill="#ED4F5F"/>
<path d="M382.023 386.993L385.162 386.934L383.774 381.589L382.023 386.993ZM390.486 392.781L387.474 392.849L385.588 388.025C384.832 387.99 384.846 387.956 384.004 387.973C383.169 387.993 382.396 388.03 381.686 388.098L380.197 392.992L379.087 393.014L383.332 379.721L385.009 379.688C386.136 383.285 387.465 386.652 388.997 389.79C389.156 390.121 389.407 390.632 389.748 391.322C390.096 392.006 390.342 392.491 390.486 392.779L390.486 392.781Z" fill="#ED4F5F"/>
<path d="M393.926 392.721L392.119 392.758C392.209 390.125 392.234 387.776 392.191 385.712C392.148 383.649 392.033 381.601 391.846 379.57L393.654 379.533C393.588 382.304 393.575 384.71 393.618 386.752C393.66 388.787 393.763 390.776 393.926 392.721L393.926 392.721Z" fill="#ED4F5F"/>
<path d="M397.43 386.248C400.207 383.261 402.244 380.954 403.539 379.328L404.813 379.301L400.644 384.164C401.903 387.125 403.521 389.894 405.499 392.47L403.234 392.514L399.292 385.716L397.462 387.804L397.562 392.632L395.667 392.672C395.757 390.322 395.779 388.064 395.734 385.899C395.689 383.727 395.576 381.592 395.395 379.495L397.289 379.455L397.43 386.248Z" fill="#ED4F5F"/>
<path d="M133.639 315.616C141.835 328.48 146.067 342.33 141.692 362.08C137.349 368.118 121.564 383.653 116.117 382.703C110.673 381.757 99.5421 367.533 99.5421 367.533C105.463 362.555 119.907 330.077 133.639 315.616Z" fill="white"/>
<path d="M131.01 347.138C134.82 339.155 137.33 331.294 138.485 324.474C143.284 334.989 145.087 346.756 141.692 362.08C137.349 368.118 121.564 383.653 116.117 382.703C113.737 382.29 110.271 379.339 107.123 376.149C114.745 372.616 124.075 361.674 131.01 347.138Z" fill="#EEEEEC"/>
<path d="M235.626 433.196H138.04C120.771 433.196 115.808 500.071 133.076 500.071H230.662C221.847 491.069 223.065 443.807 235.626 433.196Z" fill="#E9D3C2"/>
<path d="M132.157 496.691C152.619 476.962 135.167 438.579 135.167 438.579C135.167 438.579 124.534 454.542 125.335 469.607C126.138 484.672 132.157 496.691 132.157 496.691Z" fill="#555753"/>
<path d="M166.262 481.091C166.262 470.995 207.586 460.6 226.334 455.915C224.294 468.531 224.556 483.086 226.993 492.299C227.465 494.09 166.262 491.601 166.262 481.091Z" fill="#F3E7DE"/>
<path d="M144.047 429.898H8.00589C-0.422523 429.898 -3.40457 503.369 5.02545 503.369H141.066C130.165 503.369 133.144 429.898 144.047 429.898Z" fill="#D3D7CF"/>
<path d="M236.681 429.898H128.348L127.371 436.86H235.704C237.149 436.86 238.539 435.302 238.809 433.379C239.078 431.456 238.125 429.898 236.681 429.898Z" fill="#BABDB6"/>
<path d="M234.335 497.322H126.413L125.368 503.369H233.288C234.735 503.369 236.139 502.015 236.429 500.347C236.718 498.676 235.78 497.322 234.335 497.322Z" fill="#BABDB6"/>
<path d="M8.00592 429.898H144.047C140.997 429.898 138.568 435.647 136.888 443.928C117.96 450.978 91.125 456.865 61.0585 459.866C38.7731 462.091 17.9116 462.411 0.480381 461.138C1.52401 444.774 4.21322 429.898 8.00592 429.898Z" fill="#EEEEEC"/>
<path d="M141.066 503.369H125.947C120.905 487.397 122.59 445.87 128.929 429.898H144.047C133.144 429.898 130.165 503.369 141.066 503.369Z" fill="#BABDB6"/>
<path d="M115.528 494.938H103.879C99.9952 482.631 101.293 450.636 106.175 438.33H117.824C109.425 438.33 107.128 494.938 115.528 494.938Z" fill="white"/>
<path d="M22.9777 494.938H11.3294C7.44446 482.631 8.74374 450.636 13.6254 438.33H25.2737C16.876 438.33 14.5784 494.938 22.9777 494.938Z" fill="white"/>
<path d="M1.74892 498.338L134.956 498.075L135.911 502.807L2.70359 503.07L1.74892 498.338" fill="#BABDB6"/>
<path d="M133.096 316.233C135.316 312.457 145.165 309.015 153.52 306.849C161.877 304.683 180.98 314.548 180.98 314.548C209.995 358.241 198.423 408.026 181.241 424.518C177.082 428.511 172.105 430.935 167.261 428.178L118.58 400.456C156.255 369.895 120.722 337.286 133.096 316.233" fill="white"/>
<path d="M172.414 325.838C168.67 312.984 180.98 314.549 180.98 314.549C215.101 364.442 199.657 409.741 182.475 426.235C178.317 430.228 172.105 430.936 167.261 428.178L151.524 419.215C170.07 400.211 193.813 376.316 172.414 325.838Z" fill="#EEEEEC"/>
<path d="M87.4682 501.522L75.0206 495.42C75.0206 495.42 84.7807 493.3 87.7142 494.659C90.6509 496.016 87.4682 501.522 87.4682 501.522Z" fill="#BABDB6"/>
<path d="M60.4533 494.426L48.0056 488.324C48.0056 488.324 57.7641 486.203 60.6992 487.562C63.6328 488.92 60.4534 494.426 60.4534 494.426" fill="#BABDB6"/>
<path d="M129.952 432.888H118.515L89.0264 499.368H87.2207L95.4452 441.725L61.7413 489.927H59.3352L84.0105 423.849L130.753 428.067L129.952 432.888Z" fill="#BABDB6"/>
<path d="M73.0644 406.281C76.5432 401.875 122.303 397.785 122.303 397.785C122.303 397.785 154.172 393.693 156.955 429.253L87.8355 428.939L33.9675 488.102L31.712 488.732C31.712 488.732 69.5872 410.686 73.0644 406.281" fill="#0763AA"/>
<path d="M58.6233 451.77C70.8445 429.906 75.1905 414.204 68.3284 416.699C67.9255 416.844 67.4918 417.057 67.0323 417.318C70.105 411.347 72.3379 407.201 73.0644 406.281C76.5432 401.875 122.303 397.783 122.303 397.783C122.303 397.783 154.172 393.693 156.955 429.253L87.8355 428.939L33.9675 488.102L33.2491 488.302C40.7892 480.106 50.4328 466.417 58.6233 451.77" fill="#065898"/>
<path d="M96.3918 411.928C99.5486 407.503 137.976 396.737 137.976 396.737C137.976 396.737 169.228 394.767 177.736 423.59C178.708 426.883 176.191 430.181 172.762 430.165L118.155 429.88L71.3752 493.514L69.1649 494.146C69.1649 494.146 93.2334 416.354 96.3918 411.928" fill="#0763AA"/>
<path d="M69.8413 491.748C75.3281 483.618 102.867 423.648 121.324 421.139C135.706 419.182 146.176 414.107 144.495 410.091C142.815 406.077 129.143 403.855 114.906 406.678C108.522 407.943 98.8658 410.647 95.8465 413.004C96.0664 412.492 96.2525 412.123 96.3918 411.928C99.5486 407.503 137.976 396.737 137.976 396.737C137.976 396.737 169.228 394.767 177.736 423.59C178.708 426.883 176.191 430.181 172.762 430.165L118.155 429.88L71.3752 493.514L69.1649 494.146C69.1649 494.146 69.4077 493.287 69.8413 491.748" fill="#065898"/>
<path d="M103.537 360.784L96.3158 368.283L112.364 386.358L123.999 382.073C123.999 382.073 123.196 372.702 117.847 367.212C112.498 361.722 103.537 360.784 103.537 360.784Z" fill="#C4C9BF"/>
<path d="M103.537 360.784C103.537 360.784 112.1 361.693 117.483 366.87C115.066 369.81 110.66 372.538 105.241 374.098C104.191 374.401 103.15 374.639 102.126 374.83L96.3158 368.283L103.537 360.784Z" fill="#E4E4E1"/>
<path d="M111.406 386.429C97.4451 392.684 73.5627 396.33 73.5627 396.33L66.5647 386.492C66.5647 386.492 93.688 367.808 102.265 365.605C107.239 364.329 111.896 370.116 114.931 375.21C117.357 379.272 115.721 384.497 111.406 386.429Z" fill="#FFB882"/>
<path d="M104.372 365.61L104.272 365.469C109.334 365.991 113.862 373.021 116.386 377.81C117.785 380.468 116.747 383.717 114.093 385.124C100.788 392.173 73.5626 396.33 73.5626 396.33L68.4302 389.117C74.9169 387.968 89.1379 385.174 99.7038 381.08C105.89 378.683 108.224 371.016 104.372 365.61" fill="#FF9566"/>
<path d="M125.984 400.168L82.4151 411.863L31.5841 408.387L30.6376 403.803L76.2584 395.742L126.3 396.375L125.984 400.168" fill="#E8DFC1"/>
<path d="M125.984 400.168L82.0041 412.604L31.5841 408.387L30.6376 403.803L80.399 408.586L126.3 396.375L125.984 400.168" fill="#D6C099"/>
<path d="M3.14366 344.091C5.21638 343.483 55.2319 340.093 57.2625 340.7C59.2931 341.308 80.399 411.096 80.399 411.096L31.6585 408.473C31.6585 408.473 1.06933 344.698 3.14366 344.091Z" fill="#E8DFC1"/>
<path d="M3.14366 344.091C5.21638 343.483 55.2319 340.093 57.2625 340.7C8.71294 356.901 31.6585 408.473 31.6585 408.473C31.6585 408.473 1.06933 344.698 3.14366 344.091Z" fill="#EFE7CE"/>
<path d="M190.069 344.583C185.64 374.871 153.531 393.847 153.531 393.847L131.984 371.8C157.97 359.446 158.104 321.083 172.547 315.394C182.81 311.351 191.489 334.864 190.069 344.583Z" fill="white"/>
<path d="M135.32 375.214L131.984 371.8C147.093 364.617 153.462 348.644 158.986 335.41C154.557 349.377 149.507 366.094 135.32 375.214Z" fill="#EEEEEC"/>
<path d="M177.909 336.176C179.131 331.172 178.485 321.945 175.992 314.792C185.315 315.566 193.887 336.918 192.601 345.722C188.174 376.01 153.532 393.847 153.532 393.847L143.21 383.288C154.792 374.696 172.472 358.429 177.909 336.176Z" fill="#EEEEEC"/>
<path d="M170.803 310.047L146.868 328.515L138.519 312.085C142.666 310.001 148.375 308.182 153.52 306.849C157.8 305.739 164.895 307.787 170.803 310.047Z" fill="#E8DFC1"/>
<path d="M109.797 251.124C109.797 251.124 93.0295 229.44 101.704 221.547C110.375 213.654 123.764 221.986 123.764 221.986C123.764 221.986 121.614 214.826 126.898 214.695C138.657 214.402 157.588 229.303 157.588 229.303C170.028 227.586 167.88 250.86 167.88 250.86C167.88 250.86 175.17 269.034 157.653 296.677L126.434 283.482C94.5003 263.155 109.797 251.124 109.797 251.124" fill="#7A4939"/>
<path d="M113.818 262.935C118.918 264.325 118.905 256.847 118.905 256.847C118.905 256.847 129.351 268.669 139.917 263.592C150.485 258.517 140.621 232.934 140.621 232.934C140.621 232.934 147.139 230.35 146.985 222.09C153.022 225.712 157.588 229.304 157.588 229.304C170.028 227.586 167.88 250.86 167.88 250.86C167.88 250.86 175.17 269.034 157.653 296.677L126.434 283.482C109.679 272.816 105.933 264.44 106.152 258.883C108.713 260.777 111.326 262.256 113.818 262.935Z" fill="#603429"/>
<path d="M166.081 308.978L157.319 279.819L137.429 292.858L141.454 311.111L148.558 321.305L166.081 308.978Z" fill="#FFB882"/>
<path d="M137.239 367.614L145.131 359.312C145.131 359.312 158.371 363.329 162.25 374.843C166.128 386.358 164.656 390.911 164.656 390.911L152.486 394.125L137.239 367.614Z" fill="#C4C9BF"/>
<path d="M142.626 327.031C142.626 327.031 149.118 349.362 145.994 363.048C142.869 376.734 142.09 380.06 142.09 380.06C142.09 380.06 150.51 364.351 148.52 344.81C146.53 325.268 145.534 324.196 145.534 324.196L142.626 327.031Z" fill="#EEEEEC"/>
<path d="M145.131 359.312C145.131 359.312 153.739 361.931 159.107 368.984C156.75 370.926 153.871 372.647 150.603 373.948C147.723 375.094 144.841 375.789 142.111 376.084L137.239 367.614L145.131 359.312Z" fill="#E4E4E1"/>
<path d="M149.307 395.497C129.529 402.325 101.565 395.732 101.565 395.732L100.259 389.505C100.259 389.505 128.418 373.053 137.908 366.81C143.577 363.081 153.731 371.374 156.899 380.066C158.921 385.611 154.881 393.575 149.307 395.497" fill="#FFB882"/>
<path d="M32.6909 490.397L21.6865 481.964C21.6865 481.964 31.6699 481.805 34.2814 483.715C36.8929 485.623 32.6909 490.397 32.6909 490.397Z" fill="#FFE7BD"/>
<path d="M70.4836 496.703L58.0359 490.599C58.0359 490.599 67.796 488.479 70.7296 489.838C73.6647 491.197 70.4836 496.703 70.4836 496.703" fill="#FFE7BD"/>
<path d="M138.176 385.689C143.75 383.764 149.025 378.916 147.003 373.371C146.063 370.795 144.503 368.263 142.636 366.06C148.071 367.118 154.494 373.471 156.899 380.066C158.921 385.611 154.881 393.575 149.307 395.497C129.529 402.325 103.872 396.335 103.872 396.335C103.872 396.335 124.327 390.469 138.176 385.689Z" fill="#FF9566"/>
<path d="M181.122 314.757C181.119 314.753 181.118 314.748 181.113 314.744C181.118 314.748 181.118 314.753 181.122 314.757ZM181.062 314.669C181.035 314.627 181.007 314.589 180.98 314.548C181.008 314.59 181.035 314.628 181.062 314.669ZM180.98 314.548C180.978 314.548 180.978 314.548 180.978 314.548C180.978 314.548 180.978 314.548 180.98 314.548Z" fill="#DF8E8E"/>
<path d="M188.676 327.276C186.483 323.144 183.991 318.969 181.122 314.757C181.119 314.753 181.118 314.748 181.113 314.744C181.095 314.716 181.081 314.694 181.063 314.669C181.035 314.627 181.008 314.59 180.981 314.549C180.981 314.549 180.51 314.489 179.779 314.489C178.962 314.489 177.822 314.565 176.656 314.881C180.881 315.671 184.905 320.559 187.871 326.423C188.136 326.697 188.406 326.98 188.676 327.276" fill="#C8D7E6"/>
<path d="M141.382 310.781L140.317 305.953L141.382 310.781Z" fill="#DF8E8E"/>
<path d="M141.382 310.782V310.78V310.782ZM166.06 308.389L165.888 308.336C165.945 308.355 166.003 308.373 166.06 308.389Z" fill="#5D516A"/>
<path d="M147.105 327.967L170.803 310.047C170.074 309.768 169.327 309.493 168.57 309.227L168.52 309.209C167.779 308.948 167.029 308.697 166.277 308.459L166.175 308.426L166.06 308.389C166.003 308.37 165.945 308.352 165.889 308.336L166.081 308.977L148.558 321.305L141.455 311.111L141.382 310.782V310.784C141.013 310.938 140.654 311.091 140.299 311.25L140.054 311.359C139.523 311.597 139.01 311.84 138.52 312.086L147.106 327.967" fill="#CB7D6C"/>
<path d="M144.976 326.593L166.081 308.978L165.889 308.336L165.887 308.334L157.96 281.954C156.792 282.366 155.633 282.839 154.493 283.393C147.72 286.678 142.393 292.109 138.607 298.199L140.317 305.953L141.382 310.781V310.782L141.454 311.111L143.046 322.915" fill="#DF6648"/>
<path d="M133.288 310.163C147.053 306.159 159.018 297.637 159.69 294.847C160.352 292.093 156.952 255.786 152.255 250.518C150.046 248.041 127.695 243.377 121.947 246.896C114.325 251.564 125 299.801 133.288 310.163Z" fill="#FFB882"/>
<path d="M153.925 284.956C147.199 259.615 149.522 249.442 149.522 249.442C149.522 249.442 158.256 242.268 159.691 245.631C161.123 248.995 160.24 283.534 160.24 283.534L153.925 284.956Z" fill="#603429"/>
<path d="M155.62 269.089C156.928 265.241 164.936 267.501 163.955 272.862C162.955 278.334 159.708 285.545 156.999 284.888C154.192 284.207 154.284 273.023 155.62 269.089Z" fill="#FFB882"/>
<path d="M157.229 272.068C157.976 269.868 162.557 271.161 161.996 274.226C161.423 277.355 159.567 281.478 158.017 281.102C156.412 280.713 156.465 274.318 157.229 272.068Z" fill="#DB5B3E"/>
<path d="M157.352 276.135C157.881 274.575 161.132 275.492 160.733 277.666C160.328 279.887 159.01 282.813 157.91 282.545C156.773 282.27 156.81 277.733 157.352 276.135Z" fill="#FFB882"/>
<path d="M53.5265 340.673C55.6024 340.609 56.9616 340.611 57.2625 340.701C59.2932 341.308 82.2711 411.933 82.2711 411.933L78.0706 411.647C72.9091 395.906 58.3758 351.913 53.5265 340.674" fill="#D6C099"/>
<path d="M87.7142 395.867C88.1656 400.268 90.0943 402.68 91.4131 402.889C92.7334 403.097 96.4808 400.558 96.861 399.034C97.2397 397.511 87.3178 391.984 87.7142 395.867Z" fill="#FF9566"/>
<path d="M88.4925 393.067C90.6704 401.029 91.8273 401.527 93.5246 401.902C95.2236 402.278 99.7816 400.2 100.037 398.812C100.295 397.423 98.6765 394.465 97.4726 395.023C96.2704 395.58 94.7576 396.019 94.7576 396.019L88.4925 393.067Z" fill="#FFB882"/>
<path d="M92.0764 389.786C93.4648 386.052 109.951 382.459 120.153 386.844L119.833 387.351C116.792 392.177 111.592 395.227 105.898 395.47C102.762 395.604 99.4775 396.575 96.9986 397.362C92.3127 398.852 90.6882 393.521 92.0765 389.786" fill="#FFB882"/>
<path d="M92.2738 393.85C94.4534 401.81 95.6086 402.309 97.3076 402.683C99.0049 403.059 103.565 400.981 103.819 399.593C104.076 398.204 102.458 395.246 101.256 395.803C100.053 396.362 98.5389 396.8 98.5389 396.8L92.2738 393.85Z" fill="#FFB882"/>
<path d="M95.0779 387.369C89.7853 389.658 86.313 392.635 84.9312 395.071C83.551 397.508 82.4329 403.176 82.6222 404.37C82.8115 405.562 86.3065 406.301 86.6334 404.601C86.9586 402.902 88.0313 397.794 88.562 397.472C89.0928 397.151 94.1799 393.483 94.4582 393.461C94.735 393.438 95.0779 387.368 95.0779 387.368" fill="#FFB882"/>
<path d="M128.046 273.247C127.863 271.167 128.542 269.285 129.558 269.039C130.571 268.789 131.554 270.273 131.746 272.358C131.939 274.454 131.264 276.369 130.236 276.613C129.204 276.863 128.222 275.35 128.046 273.247Z" fill="#4F3131"/>
<path d="M135.005 267.735C133.553 266.954 130.526 286.153 131.497 289.124C131.994 290.656 140.175 286.307 140.175 286.307C140.175 286.307 135.267 267.871 135.005 267.735Z" fill="#FFB882"/>
<path d="M134.521 268.172C133.476 271.384 131.049 286.104 131.885 288.542C132.274 289.68 137.587 287.225 139.527 286.213C139.647 286.699 139.724 286.979 139.724 286.979C139.724 286.979 130.806 292.356 130.343 290.757C129.489 287.783 133.204 268.705 134.521 268.172" fill="#EA7B59"/>
<path d="M140.196 270.09C139.974 267.995 140.629 266.111 141.662 265.859C142.7 265.595 143.731 267.08 143.967 269.17C144.212 271.277 143.556 273.203 142.505 273.461C141.456 273.709 140.424 272.191 140.196 270.09Z" fill="#4F3131"/>
<path d="M136.992 261.514C138.356 263.74 146.645 262.518 147.593 261.127C148.54 259.737 149.143 258.336 147.561 257.72C145.983 257.106 138.794 255.81 137.497 256.922C136.197 258.031 136.372 260.495 136.993 261.514" fill="#CE3929"/>
<path d="M131.091 262.813C131.058 265.13 123.279 268.039 122.162 267.043C121.052 266.045 120.151 264.955 120.917 264.03C121.682 263.103 127.748 258.203 129.012 258.857C130.275 259.517 131.11 261.754 131.091 262.813Z" fill="#CE3929"/>
<path d="M133.055 293.446L145.898 290.744C145.898 290.744 145.901 297.81 143.725 298.808C141.547 299.802 136.371 300.11 135.265 298.74C134.165 297.381 133.055 293.446 133.055 293.446" fill="#542A29"/>
<path d="M134.175 295.885C133.511 293.815 133.665 293.575 133.665 293.575L145.378 291.11C145.378 291.11 145.702 290.794 145.33 293.381L134.175 295.885" fill="#FFF7E9"/>
<path d="M166.06 308.39L170.803 310.047L161.735 324.294C158.367 330.544 149.897 331.706 144.976 326.593" fill="#EEEEEC"/>
<path d="M141.382 310.781C138.258 312.277 135.001 313.656 133.096 316.233L134.345 322.62C134.92 327.807 141.145 330.134 144.976 326.593L141.382 310.781Z" fill="#EEEEEC"/>
<path d="M543.639 387.085C551.804 392.657 560.245 378.025 551.126 373.018C542.009 368.01 537.261 370.393 536.579 373.733C535.899 377.071 539.793 384.464 543.639 387.085Z" fill="#FF9566"/>
<path d="M463.146 328.828C444.243 272.833 458.574 239.642 475.011 235.132C491.399 230.642 497.247 235.832 497.247 235.832C497.247 235.832 507.37 227.247 517.219 239.192C527.227 251.327 525.514 306.754 519.035 326.537C512.416 346.752 488.758 404.695 463.146 328.828Z" fill="#7A4939"/>
<path d="M501.796 251.114C484.67 251.114 470.55 245.728 468.286 238.748C455.201 249.457 446.902 280.714 463.145 328.828C488.758 404.695 512.416 346.752 519.035 326.537C524.433 310.042 526.518 268.798 521.265 248.497C515.755 250.14 509.05 251.114 501.796 251.114Z" fill="#603429"/>
<path d="M553.255 503.366H426.724C426.724 503.366 395.919 464.231 406.827 423.551C417.476 383.837 450.823 392.483 450.823 392.483C450.823 392.483 503.148 412.446 520.824 408.853C538.995 405.159 589.055 388.348 595.086 437.622C599.254 471.685 589.811 499.478 553.255 503.366Z" fill="#D3D7CF"/>
<path d="M582.226 412.485C564.533 398.142 534.132 407.854 520.824 410.558C503.148 414.153 450.823 394.188 450.823 394.188C450.823 394.188 438.692 391.06 426.728 397.278C426.216 399.374 425.932 401.519 425.932 403.698C425.932 428.853 465.852 469.711 509.421 469.711C547.78 469.711 575.132 433.432 582.226 412.485Z" fill="#EEEEEC"/>
<path d="M537.96 483.189C484.042 460.139 443.909 417.684 488.634 433.806C513.356 442.715 579.402 399.574 571.892 420.082C564.634 439.89 537.96 483.189 537.96 483.189Z" fill="#D3D7CF"/>
<path d="M530.814 407.829C509.895 384.939 510.722 342.337 510.722 342.337L475.94 332.163C475.94 332.163 490.232 390.663 481.137 410.692C499.86 417.185 518.67 417.989 530.814 407.829Z" fill="white"/>
<path d="M501.402 415.267C500.615 413.604 499.873 411.881 499.213 410.073C493.066 393.264 495.247 377.014 504.084 373.774C507.395 372.563 511.167 373.347 514.914 375.685C510.423 358.151 510.722 342.337 510.722 342.337L475.94 332.163C475.94 332.163 490.232 390.663 481.137 410.692C487.993 413.069 494.855 414.673 501.402 415.267Z" fill="#EEEEEC"/>
<path d="M480.21 425.897C470.43 412.971 474.491 393.908 516.341 406.631C533.998 411.999 550.405 395.468 562.55 398.57C574.125 401.521 564.519 429.419 547.663 428.126C529.651 426.746 497.622 448.91 480.21 425.897Z" fill="#0763AA"/>
<path d="M562.55 398.57C550.405 395.468 533.998 411.999 516.341 406.631C514.801 406.162 513.329 405.749 511.888 405.366C515.401 408.017 517.244 410.739 516.578 412.921C515.228 417.337 504.142 417.855 491.815 414.079C486.29 412.388 481.467 410.12 477.934 407.739C474.124 412.593 475.675 419.903 480.209 425.897C497.622 448.91 529.651 426.744 547.663 428.126C564.519 429.419 574.125 401.521 562.55 398.57Z" fill="#065898"/>
<path d="M522.692 498.949C533.003 463.227 547.286 404.982 554.36 400.982C561.437 396.977 569.039 397.643 568.748 406.489C568.453 415.466 524.145 499.045 524.145 499.045L522.692 498.949" fill="#0763AA"/>
<path d="M564.688 399.053C557.863 415.189 541.984 446.24 532.02 465.41C528.765 477.233 525.574 488.969 522.692 498.949L524.145 499.045C524.145 499.045 568.454 415.466 568.749 406.489C568.886 402.272 567.221 399.932 564.688 399.053" fill="#065898"/>
<path d="M547.989 499.084C539.896 475.912 516.399 413.183 508.44 410.444C500.26 407.628 492.932 412.25 496.016 424.802C498.84 436.299 547.008 499.453 547.008 499.453L547.989 499.084" fill="#0763AA"/>
<path d="M530.791 453.5C530.401 454.144 529.933 454.668 529.336 454.988C523.545 458.083 510.068 444.118 499.236 423.796C497.921 421.333 496.709 418.889 495.6 416.489C495.13 418.714 495.198 421.469 496.016 424.802C498.84 436.299 547.008 499.453 547.008 499.453L547.989 499.084C544.394 488.788 537.754 470.683 530.791 453.5" fill="#065898"/>
<path d="M506.354 316.02C523.863 343.475 544.709 360.223 541.885 368.586C538.95 377.276 534.78 375.321 524.922 364.448C515.036 353.537 505.904 348.178 505.904 348.178L506.354 316.02Z" fill="#EEEEEC"/>
<path d="M506.609 314.826L505.747 324.554C520.632 346.894 537.395 363.779 539.517 372.986C540.413 372.1 541.186 370.654 541.885 368.586C544.709 360.223 524.118 342.279 506.609 314.826Z" fill="white"/>
<path d="M474.582 314.883C470.678 327.66 480.341 369.601 480.341 369.601C480.341 369.601 523.471 367.864 524.479 364.871C525.468 361.924 508.749 315.263 505.065 313.028C501.396 310.806 491.823 309.396 488.31 309.521C484.771 309.652 475.206 312.838 474.582 314.883Z" fill="white"/>
<path d="M502.643 311.938C498.213 310.36 491.207 309.418 488.31 309.521C486.296 309.596 482.337 310.659 479.181 311.938C485.938 319.475 498.856 333.93 498.856 333.93L502.775 350.305H508.738L502.775 333.246L502.643 311.938Z" fill="#EEEEEC"/>
<path d="M484.202 365.657C484.202 365.657 475.854 326.042 475.685 326.595C471.779 339.37 479.603 372.31 479.603 372.31C479.603 372.31 523.471 367.864 524.479 364.871C524.532 364.706 524.526 364.383 524.475 363.959C514.059 366.147 484.202 365.657 484.202 365.657Z" fill="#EEEEEC"/>
<path d="M474.955 314.2C457.563 339.238 445.94 375.879 450.557 383.985C455.176 392.093 463.461 385.894 466.87 369.917C470.284 353.942 479.432 346.554 479.432 346.554L474.955 314.2Z" fill="#EEEEEC"/>
<path d="M481.648 342.631L474.955 314.2C457.563 339.238 445.94 375.879 450.557 383.985C452.307 387.058 454.581 388.067 456.918 387.279C455.216 377.059 466.314 347.405 481.648 342.631Z" fill="white"/>
<path d="M515.603 395.85C522.131 364.865 536.76 345.621 540.871 344.773C544.981 343.926 562.148 348.889 562.148 348.889L515.603 395.85Z" fill="#EADDBE"/>
<path d="M511.662 401.552L538.039 399.009L569.93 345.835L544.12 342.02L511.662 401.552Z" fill="#563B3B"/>
<path d="M482.273 310.29L480.067 284.134L491.955 283.354L497.263 310.844L498.747 329.074L482.273 310.29Z" fill="#FFB882"/>
<path d="M472.02 367.151C455.791 367.024 448.252 374.059 448.252 374.059C448.252 374.059 445.568 385.83 454.387 389.029C463.203 392.228 472.02 367.151 472.02 367.151Z" fill="#F9CFAC"/>
<path d="M463.607 367.777C453.175 369.477 448.252 374.059 448.252 374.059C448.252 374.059 448.046 375 447.937 376.401C448.774 377.16 449.786 377.816 451.064 378.281C455.665 379.949 460.259 373.923 463.607 367.777" fill="#FCDFBE"/>
<path d="M456.007 373.574C468.868 360.539 504.781 353.186 507.764 354.757C510.755 356.333 467.924 382.939 459.524 385.444C451.567 387.82 452.69 376.934 456.007 373.574Z" fill="#FFB882"/>
<path d="M505.481 354.569C493.317 362.124 466.965 375.59 460.311 377.282C457.285 378.052 455.483 377.282 454.552 375.841C452.579 380.254 452.915 387.418 459.524 385.444C467.924 382.939 510.754 356.333 507.763 354.757C507.419 354.575 506.619 354.517 505.481 354.569" fill="#FF9566"/>
<path d="M515.965 328.397C512.847 324.166 509.68 319.64 506.609 314.826C509.68 319.643 512.847 324.162 515.965 328.395C515.965 328.395 515.965 328.395 515.965 328.397ZM474.976 314.287L474.952 314.201L474.976 314.287ZM505.042 313.015C504.996 312.986 504.95 312.957 504.902 312.933C504.949 312.962 504.997 312.991 505.042 313.015ZM497.197 310.504L491.955 283.354L497.197 310.504Z" fill="#541D17"/>
<path d="M514.003 331.983C511.196 324.717 508.433 318.239 506.589 315.046L506.612 314.826C509.683 319.64 512.85 324.166 515.968 328.397C515.424 329.668 514.771 330.869 514.006 331.983" fill="#D3D7CF"/>
<path d="M497.997 339.941C492.114 339.941 485.67 337.826 479.591 333.892L474.976 314.286L474.98 314.304C475.701 313.549 477.286 312.705 479.181 311.939C485.938 319.476 498.856 333.931 498.856 333.931L500.269 339.832C499.522 339.907 498.764 339.942 497.997 339.942V339.941ZM504.752 338.899L502.775 333.247L502.643 311.939C503.511 312.248 504.284 312.579 504.902 312.933C504.949 312.963 504.997 312.992 505.043 313.016C505.048 313.021 505.054 313.028 505.066 313.028C505.443 313.258 505.967 313.979 506.589 315.056V315.044C508.434 318.237 511.196 324.715 514.004 331.981C512.973 333.48 511.736 334.817 510.281 335.954C508.603 337.262 506.744 338.238 504.753 338.897L504.752 338.899ZM502.644 311.936C502.421 311.858 502.192 311.779 501.957 311.703C502.192 311.779 502.421 311.859 502.644 311.936ZM479.181 311.936C479.557 311.784 479.942 311.635 480.334 311.493C479.942 311.637 479.557 311.785 479.181 311.936ZM497.198 310.504V310.502V310.504Z" fill="#D3D7CF"/>
<path d="M500.268 339.832L498.856 333.93C498.856 333.93 485.938 319.475 479.181 311.938C479.556 311.788 479.941 311.639 480.333 311.495C480.758 311.337 481.186 311.187 481.621 311.045L481.794 310.987C482.079 310.893 482.363 310.803 482.646 310.716L498.747 329.073L497.263 310.844L497.197 310.505C498.442 310.751 499.67 311.038 500.814 311.362L500.92 311.391C501.274 311.492 501.62 311.597 501.956 311.705C502.191 311.78 502.42 311.86 502.643 311.937L502.775 333.245L504.752 338.898C503.321 339.37 501.818 339.68 500.268 339.831" fill="#888A85"/>
<path d="M479.591 333.892C475.71 331.381 471.978 328.128 468.637 324.209C470.637 320.742 472.749 317.378 474.955 314.2L474.978 314.286L479.594 333.892" fill="#D3D7CF"/>
<path d="M498.747 329.074L482.646 310.717C482.646 310.717 482.646 310.717 482.648 310.714L482.273 310.29L480.067 284.134L491.955 283.354L497.197 310.504V310.506L497.263 310.845L498.747 329.074" fill="#DF6648"/>
<path d="M481.261 249.822C474.959 260.822 477.886 284.218 478.832 287.262C479.781 290.306 488.082 302.35 501.491 307.504C510.515 298.745 514.347 289.72 514.962 284.293C515.671 278.023 515.215 262.299 509.196 248.77C506.337 242.347 485.309 242.754 481.261 249.822Z" fill="#FFB882"/>
<path d="M501.204 280.788C503.047 282.993 504.805 286.231 504.14 287.182C503.476 288.131 499.617 288.612 499.266 288.406C498.916 288.202 501.204 280.788 501.204 280.788Z" fill="#EA7B59"/>
<path d="M500.017 280.363C501.864 282.567 503.62 285.807 502.954 286.759C502.293 287.708 498.434 288.187 498.081 287.983C497.731 287.776 500.017 280.363 500.017 280.363Z" fill="#FFB882"/>
<path d="M487.167 273.369C487.251 270.742 488.853 268.755 490.755 268.932C492.65 269.116 494.122 271.399 494.037 274.034C493.956 276.667 492.349 278.653 490.457 278.469C488.56 278.285 487.084 276.007 487.167 273.369Z" fill="#5E3E38"/>
<path d="M503.567 272.639C503.484 269.997 504.754 267.921 506.424 267.985C508.081 268.055 509.491 270.247 509.574 272.888C509.656 275.524 508.378 277.61 506.718 277.538C505.057 277.472 503.651 275.276 503.567 272.639Z" fill="#5E3E38"/>
<path d="M511.552 270.633C511.552 270.633 506.376 268.181 502.288 269.403C502.288 269.403 503.043 267.407 506.222 267.469C509.392 267.537 511.552 270.633 511.552 270.633Z" fill="#5E3E38"/>
<path d="M485.645 272.546C485.645 272.546 489.914 269.017 494.365 269.26C494.365 269.26 492.93 267.506 489.821 268.284C486.713 269.058 485.645 272.546 485.645 272.546Z" fill="#5E3E38"/>
<path d="M512.229 265.711L512.451 265.055C509.788 261.631 504.672 260.624 502.328 260.927L502.31 262.704C504.141 262.204 509.341 262.954 512.229 265.711" fill="#99393E"/>
<path d="M483.732 267.184C487.253 263.692 494.33 262.211 496.072 262.128L495.733 260.355C493.773 260.5 487.211 262.279 483.192 266.615L483.732 267.184" fill="#99393E"/>
<path d="M504.655 294.388L504.362 293.831C504.092 293.955 497.968 296.693 490.794 290.407L490.017 291.371C496.513 296.918 501.777 295.767 504.655 294.388" fill="#EA7B59"/>
<path d="M497.129 297.831C497.152 297.41 498.015 297.618 499.168 297.736C500.322 297.856 501.328 297.839 501.305 298.26C501.288 298.681 500.332 298.927 499.178 298.807C498.026 298.687 497.106 298.25 497.129 297.831" fill="#EA7B59"/>
<path d="M482.442 291.716C471.822 254.922 501.93 246.341 495.379 243.536C483.042 238.255 470.719 245.856 469.806 257.563C468.468 274.721 482.442 291.716 482.442 291.716Z" fill="#7A4939"/>
<path d="M489.034 252.85C483.304 254.094 478.33 253.223 476.969 250.404C476.033 248.462 477.01 246 479.311 243.683C474.05 246.256 470.294 251.31 469.806 257.563C468.468 274.721 482.442 291.716 482.442 291.716C476.59 271.442 483.102 259.745 489.034 252.85Z" fill="#603429"/>
<path d="M478.723 278.785C474.71 271.822 469.831 276.894 472.426 283.861C475.019 290.831 484.844 296.244 484.635 292.643C484.425 289.039 480.698 282.21 478.723 278.785Z" fill="#FFB882"/>
<path d="M479.098 283.407C476.967 279.711 474.378 282.404 475.755 286.103C477.132 289.803 482.347 292.675 482.238 290.765C482.125 288.851 480.146 285.225 479.098 283.407Z" fill="#DB5B3E"/>
<path d="M480.492 286.984C478.672 284.235 476.802 286.439 478.041 289.225C479.28 292.013 483.439 293.978 483.264 292.508C483.087 291.037 481.386 288.337 480.492 286.984Z" fill="#FFB882"/>
<path d="M546.401 342.358L544.12 342.019L511.662 401.552L514.265 401.3L546.401 342.358" fill="#684848"/>
<path d="M546.566 504H561.388C561.388 504 548.949 495.301 545.031 496.153C541.112 497.006 546.566 504 546.566 504Z" fill="#FCDFBE"/>
<path d="M525.155 504H511.752C511.752 504 521.873 492.296 525.526 493.443C529.179 494.59 525.155 504 525.155 504Z" fill="#FCDFBE"/>
<path d="M498.766 354.928C501.726 351.562 503.579 347.302 504.352 346.233C505.11 345.185 507.677 344.095 506.588 347.513C505.471 351.019 505.599 350.497 506.78 351.8C508.042 353.193 497.267 356.635 498.766 354.928Z" fill="#FFB882"/>
<path d="M509.759 348.788C510.194 348.215 509.617 346.993 508.468 346.056C507.32 345.117 506.036 344.824 505.601 345.396C505.168 345.97 505.745 347.193 506.891 348.13C508.04 349.065 509.324 349.362 509.759 348.788Z" fill="#FFB882"/>
<path d="M522.69 358.899C513.043 355.7 500.965 348.727 500.454 347.769C499.943 346.809 500.39 343.866 505.374 346.041C510.357 348.215 522.69 358.899 522.69 358.899Z" fill="#33404F"/>
<path d="M494.501 359.993C499.522 358.641 506.104 360.277 508.739 358.579C510.792 357.256 511.183 351.448 509.654 350.71C508.126 349.973 494.224 357.27 494.224 357.27L494.501 359.993" fill="#FFB882"/>
<path d="M505.863 353.37C509.645 353.042 514.859 353.312 515.537 351.75C516.337 349.9 509.272 350.71 509.272 350.71L505.863 353.37Z" fill="#FFB882"/>
<path d="M508.699 356.286C511.643 356.445 512.836 356.694 512.88 355.622C512.921 354.548 508.425 353.545 508.425 353.545L508.699 356.286Z" fill="#FFB882"/>
<path d="M506.793 359.229C510.649 358.985 512.486 358.412 512.146 357.363C511.806 356.315 505.426 356.606 505.426 356.606L506.793 359.229Z" fill="#FFB882"/>
<path d="M552.272 377.258C552.629 371.545 551.932 366.512 553.379 367.962C554.828 369.411 554.486 375.21 554.061 376.661C553.635 378.112 552.188 378.623 552.272 377.258Z" fill="#FF9566"/>
<path d="M549.007 383.49C548.739 377.771 547.498 372.845 549.096 374.127C550.691 375.41 550.986 381.214 550.72 382.702C550.454 384.19 549.069 384.857 549.007 383.49" fill="#FF9566"/>
<path d="M551.05 380.59C550.784 374.872 549.543 369.946 551.139 371.229C552.738 372.511 553.029 378.312 552.763 379.802C552.499 381.29 551.116 381.957 551.05 380.59" fill="#FF9566"/>
<path d="M539.778 377.341C538.45 376.409 538.714 373.738 540.367 371.38C541.2 370.189 542.229 369.308 543.213 368.843C541.913 368.945 540.309 370.012 539.106 371.729C537.451 374.089 537.188 376.758 538.517 377.692C539.175 378.154 540.103 378.1 541.071 377.643C540.585 377.681 540.141 377.593 539.778 377.341Z" fill="#DBC8A2"/>
<path d="M546.337 367.051C545.055 366.149 542.994 366.754 541.068 368.361C542.591 367.464 544.076 367.235 545.081 367.94C546.888 369.209 546.459 372.94 544.121 376.276C543.443 377.241 542.678 378.049 541.892 378.705C543.106 377.991 544.341 376.864 545.378 375.385C547.715 372.05 548.144 368.318 546.337 367.051Z" fill="#D3BB92"/>
</g>
<defs>
<clipPath id="clip0">
<rect width="596" height="504" fill="white"/>
</clipPath>
</defs>
</svg>
