<svg width="419" height="445" viewBox="0 0 419 445" fill="none" xmlns="http://www.w3.org/2000/svg">
<ellipse cx="209.5" cy="415.5" rx="209.5" ry="29.5" fill="#F1F1F1"/>
<g clip-path="url(#clip0)">
<path d="M181.042 350.392H229.979L235.624 411.684H175.397L181.042 350.392Z" fill="#DBC1A2"/>
<path d="M177.385 390.082L181.042 350.392H229.979L233.893 392.892L177.385 390.082Z" fill="#BC9E7D"/>
<path d="M86.2238 183.895H324.797C332.457 183.895 338.669 189.934 338.669 197.381V360.691C338.669 368.14 332.457 374.177 324.797 374.177H86.2238C78.5636 374.177 72.3517 368.14 72.3517 360.691V197.381C72.3517 189.934 78.5636 183.895 86.2238 183.895Z" fill="#EADDBE"/>
<path d="M298.806 374.176H183.868L120.684 183.895H206.267L298.806 374.176Z" fill="#F4E8D0"/>
<path d="M74.0766 189.996C73.7506 191.098 73.5668 192.258 73.5668 193.462V358.588C73.5668 365.533 79.3598 371.167 86.5063 371.167H323.807C330.954 371.167 336.749 365.533 336.749 358.588V193.462C336.749 192.258 336.563 191.098 336.239 189.996C337.547 191.962 338.316 194.302 338.316 196.818V361.942C338.316 368.889 332.522 374.52 325.376 374.52H84.9375C77.791 374.52 72 368.889 72 361.942V196.818C72 194.3 72.7666 191.962 74.0765 189.996" fill="#F2E6CC"/>
<path d="M172.26 407.416H238.761V413.515H172.26V407.416Z" fill="#EADDBE"/>
<path d="M85.2912 183.895H325.73C332.876 183.895 338.669 189.527 338.669 196.474V343.072H72.3497V196.474C72.3497 189.527 78.1448 183.895 85.2912 183.895Z" fill="#1F1818"/>
<path d="M173.538 343.072L120.684 183.895H206.267L283.679 343.072H173.538Z" fill="#3C3030"/>
<path d="M326.862 188.774H84.159C78.9568 188.774 74.4796 191.709 72.3794 195.946C72.6678 189.245 78.3285 183.895 85.2912 183.895H325.73C332.692 183.895 338.355 189.246 338.642 195.946C336.541 191.709 332.064 188.774 326.862 188.774Z" fill="#4A3939"/>
<path d="M328.081 343.072H82.938V194.872H328.081V343.072Z" fill="#BFEBF4"/>
<path d="M324.967 340.668H86.0539V197.279H324.967V340.668Z" fill="#D6F2F8"/>
<path d="M125.05 197.279H233.272L285.971 340.668H177.749L125.05 197.279Z" fill="#A5EDF9"/>
<path d="M184.103 359.312H226.92C227.764 359.312 228.449 359.977 228.449 360.799C228.449 361.619 227.764 362.285 226.92 362.285H184.103C183.257 362.285 182.571 361.619 182.571 360.799C182.571 359.977 183.257 359.312 184.103 359.312Z" fill="#DBC1A2"/>
<path d="M154.627 396.23C168.738 397.765 201.904 404.412 201.904 404.412L198.841 412.992H128.675H121.382C119.26 391.532 142.497 394.911 154.627 396.23Z" fill="#EADDBE"/>
<path d="M201.862 404.528L198.841 412.992H121.382C121.104 410.196 129.951 409.867 130.457 407.856L201.862 404.528Z" fill="#E2D1B0"/>
<path d="M126.104 397.277C113.388 397.277 82.6368 405.104 82.6368 405.104L82.6981 412.992H151.26C146.815 401.184 136.58 397.277 126.104 397.277Z" fill="#EADDBE"/>
<path d="M118.015 399.951C107.583 399.951 78.7484 405.69 78.7484 405.69L80.9969 412.992H137.24C133.593 403.07 126.608 399.951 118.015 399.951Z" fill="#D6C49F"/>
<path d="M134.017 397.715C143.995 397.715 171.382 405.69 171.382 405.69L169.232 412.992H115.439H115.441C118.928 403.07 125.8 397.715 134.017 397.715Z" fill="#D6C49F"/>
<path d="M123.445 401.303C123.445 401.303 126.689 404.46 126.748 411.361H117.893C119.355 405.052 123.445 401.303 123.445 401.303Z" fill="#6B5149"/>
<path d="M77.6934 410.887H201.682C202.732 410.887 203.581 411.713 203.581 412.733C203.581 413.751 202.732 414.577 201.682 414.577H77.6934C76.6462 414.577 75.7946 413.751 75.7946 412.733C75.7946 411.713 76.6462 410.887 77.6934 410.887Z" fill="#D6C49F"/>
<path d="M75.2789 410.887H167.742C168.789 410.887 169.639 411.713 169.639 412.733C169.639 413.751 168.789 414.577 167.742 414.577H75.2789C74.2298 414.577 73.3822 413.751 73.3822 412.733C73.3822 411.713 74.2298 410.887 75.2789 410.887Z" fill="#6B5149"/>
<path d="M274.375 197.279H296.535L296.204 194.872H273.784C273.978 195.612 274.173 196.413 274.375 197.279" fill="#BFEBF4"/>
<path d="M288.298 301.499L310.836 300.805L296.535 197.279H274.375C278.733 216.023 284.896 263.467 288.298 301.499Z" fill="#BFEBF4"/>
<path d="M288.391 343.593H112.603C112.603 343.593 129.792 202.355 133.674 191.574C133.674 191.574 180.811 157.612 194.12 153.298C207.429 148.986 266.211 182.949 271.755 189.417C277.301 195.886 288.391 306.936 288.391 343.593Z" fill="#0763AA"/>
<path d="M128.134 232.908C128.134 232.908 117.615 308.757 126.437 307.768C131.541 307.196 140.685 282.046 140.77 243.19C139.728 286.892 154.464 321.33 178.622 325.552C208.356 330.747 234.165 299.818 244.831 242.141C239.403 301.831 259.584 324.042 266.881 323.927C275.788 323.785 290.288 280.065 271.755 189.417C277.301 195.886 288.391 306.936 288.391 343.593H112.603C112.603 343.593 124.252 243.689 128.134 232.908Z" fill="#065898"/>
<path d="M136.715 192.099C133.499 201.86 120.715 314.11 117.392 343.593H110.153C110.153 343.593 129.792 202.355 133.675 191.574C133.675 191.574 141.908 185.643 152.454 178.429C143.463 186.068 136.715 192.099 136.715 192.099Z" fill="#043D69"/>
<path d="M268.517 189.85C266.742 187.589 259.242 181.581 249.587 174.766C260.811 181.168 269.754 187.084 271.755 189.417C277.301 195.886 290.796 306.936 290.796 343.593H284.299C283.234 299.88 273.515 196.222 268.517 189.85Z" fill="#043D69"/>
<path d="M141.447 245.852L129.49 343.549H136.36L141.447 245.852Z" fill="#043D69"/>
<path d="M244.746 244.615L237.621 343.549H244.491L244.746 244.615Z" fill="#043D69"/>
<path d="M222.668 117.769L222.151 161.437C222.151 161.437 205.196 182.142 176.225 164.394L180.521 116.642L222.668 117.769Z" fill="#FFB882"/>
<path d="M222.263 151.929L224.816 162.335C224.816 162.335 203.24 182.226 174.269 164.479L177.136 154.272C202.041 168.603 218.1 155.945 222.263 151.929Z" fill="#EADDBE"/>
<path d="M194.624 175.857L200.391 171.075L197.167 164.479H193.774L190.214 170.744L194.624 175.857Z" fill="#A0536B"/>
<path d="M194.454 167.777C194.454 167.777 211.416 162.664 212.434 162.994C213.451 163.325 210.736 178.823 208.192 179.649C205.649 180.473 194.284 169.92 194.284 169.92L194.454 167.777" fill="#A0536B"/>
<path d="M194.719 170.47C194.719 170.47 178.432 175.379 177.371 175.062C176.308 174.745 176.978 159.858 179.414 159.066C181.848 158.273 194.606 168.411 194.606 168.411L194.719 170.47" fill="#A0536B"/>
<path d="M222.263 151.929L222.475 134.111L222.263 151.929Z" fill="#DF8E8E"/>
<path d="M271.809 189.484C271.809 189.484 271.809 189.484 271.809 189.482V189.484ZM271.793 189.469V189.467V189.469ZM271.781 189.453C271.781 189.453 271.781 189.451 271.779 189.451C271.781 189.453 271.781 189.453 271.781 189.453ZM271.765 189.438C271.765 189.436 271.765 189.435 271.763 189.434C271.765 189.435 271.765 189.436 271.765 189.438ZM271.749 189.422C271.737 189.406 271.721 189.391 271.709 189.378C271.711 189.38 271.713 189.382 271.717 189.382C271.719 189.386 271.721 189.386 271.725 189.393C271.727 189.395 271.729 189.397 271.733 189.397C271.735 189.399 271.737 189.401 271.741 189.401C271.749 189.405 271.753 189.413 271.757 189.417" fill="#300F0F"/>
<path d="M150.384 180.194C151.058 179.618 151.747 179.03 152.452 178.431C151.666 178.969 150.905 179.491 150.149 180.012C150.228 180.073 150.305 180.132 150.384 180.194" fill="#472022"/>
<path d="M270.439 195.813C271.559 195.372 272.636 194.907 273.662 194.423C272.982 191.895 272.358 190.182 271.808 189.483V189.481C271.804 189.477 271.8 189.469 271.792 189.465V189.464C271.789 189.46 271.785 189.46 271.781 189.448C271.781 189.448 271.781 189.448 271.779 189.446C271.775 189.442 271.771 189.435 271.767 189.435C271.767 189.433 271.767 189.433 271.765 189.431C271.761 189.427 271.757 189.419 271.753 189.419C271.749 189.415 271.745 189.408 271.737 189.404C271.735 189.402 271.733 189.4 271.729 189.4C271.727 189.398 271.725 189.396 271.721 189.396C271.717 189.392 271.713 189.392 271.713 189.385C271.711 189.383 271.709 189.381 271.706 189.381C271.704 189.379 271.702 189.377 271.698 189.377C271.549 189.208 271.356 189.018 271.142 188.818L270.921 188.614C270.725 188.437 270.506 188.249 270.269 188.052L270.006 187.834C269.684 187.573 269.33 187.296 268.943 187.003L268.54 186.705C268.26 186.495 267.969 186.282 267.661 186.061C267.457 185.916 267.25 185.767 267.034 185.616C266.756 185.42 266.461 185.216 266.163 185.011C265.742 184.719 265.3 184.421 264.841 184.112C264.574 183.934 264.312 183.757 264.035 183.574C263.666 183.33 263.28 183.08 262.893 182.829C262.703 182.706 262.514 182.583 262.32 182.458C261.101 181.672 259.795 180.852 258.412 180.001C258.112 179.817 257.805 179.629 257.497 179.442L257.489 179.439C257.12 179.214 256.746 178.987 256.369 178.761C254.237 177.474 251.957 176.137 249.574 174.779C259.23 181.594 266.73 187.602 268.504 189.862C269.087 190.608 269.735 192.678 270.427 195.826" fill="#043D69"/>
<path d="M203.924 199.903C213.694 192.867 226.936 181.758 236.534 167.677C237.082 167.959 237.631 168.242 238.176 168.526C237.202 168.015 236.222 167.51 235.242 167.008L234.893 166.83C233.917 166.332 232.939 165.84 231.959 165.355C231.753 165.251 231.548 165.151 231.338 165.047C230.453 164.611 229.568 164.177 228.685 163.751C228.41 163.62 228.137 163.492 227.863 163.361C227.047 162.969 226.231 162.585 225.421 162.209C225.179 162.097 224.943 161.986 224.703 161.876L224.816 162.335C224.816 162.335 220.041 166.738 211.97 169.552C211.128 174.01 209.632 179.182 208.192 179.649C208.097 179.68 207.988 179.692 207.87 179.692C205.985 179.692 201.259 175.976 197.914 173.127L194.624 175.855L190.941 171.587C186.284 172.951 178.818 175.075 177.514 175.075C177.452 175.075 177.403 175.071 177.371 175.059C176.791 174.887 176.727 170.354 177.188 166.153C176.225 165.636 175.251 165.077 174.269 164.476L174.416 163.954C172.337 165.254 170.203 166.616 168.056 168.008C167.08 168.642 166.098 169.282 165.118 169.927C165.813 169.47 166.507 169.017 167.2 168.565L183.042 195.348C189.542 197.217 196.55 198.763 203.924 199.9" fill="#0763AA"/>
<path d="M207.128 162.822C219.26 162.822 219.529 154.566 222.263 151.929L222.475 134.111C222.463 134.122 222.451 134.134 222.443 134.137C222.443 134.137 220.934 131.896 219.582 129.353C215.888 140.14 212.548 146.749 212.548 146.749C212.548 146.749 196.639 152.4 179.367 152.4C178.683 152.4 177.996 152.396 177.308 152.373L177.138 154.27C185.685 159.189 192.73 163 199.073 163" fill="#DF6648"/>
<path d="M211.969 169.551C220.04 166.738 224.816 162.335 224.816 162.335L224.703 161.876L222.263 151.931V151.929C219.529 154.566 211.665 160.931 199.534 160.931C193.191 160.931 185.683 159.191 177.136 154.272L174.417 163.956L174.269 164.479C175.251 165.08 176.225 165.639 177.187 166.156C177.57 162.676 178.311 159.426 179.414 159.067C179.505 159.036 179.612 159.023 179.73 159.023C181.974 159.023 188.927 164.073 192.476 166.766L193.774 164.48H197.166L198.231 166.658C203.064 165.238 210.973 162.98 212.291 162.98C212.354 162.98 212.402 162.984 212.433 162.995C212.874 163.139 212.613 166.135 211.969 169.552" fill="#DF6648"/>
<path d="M177.513 175.077L185.851 187.357L201.071 179.222L206.813 168.778L216.637 156.16L177.136 154.273L179.214 169.678L177.513 175.077Z" fill="#DF6648"/>
<path d="M227.236 51.8406C236.305 99.699 212.546 146.751 212.546 146.751C212.546 146.751 180.716 158.056 158.222 148.685C158.222 148.685 156.692 60.0229 165.414 47.9742C174.137 35.9237 212.546 46.188 227.236 51.8406Z" fill="#FFB882"/>
<path d="M217.442 49.4609C217.442 49.4609 240.703 50.6499 251.416 70.2872C254.475 89.9246 240.804 118.966 222.441 134.139C222.441 134.139 217.924 127.428 217.519 124.063C203.517 83.8993 217.442 49.4609 217.442 49.4609" fill="#A0442B"/>
<path d="M226.936 91.7627C226.936 73.5947 221.524 58.8666 214.85 58.8666L214.585 58.905C216.049 52.9182 217.442 49.4628 217.442 49.4628C217.442 49.4628 240.703 50.6518 251.416 70.2892C254.474 89.9265 240.804 118.968 222.441 134.141C222.441 134.141 217.924 127.43 217.519 124.065L217.456 123.873C222.876 120.625 226.936 107.493 226.936 91.7645" fill="#893521"/>
<path d="M218.308 129.472C230.945 120.303 237.228 110.223 235.207 104.864C233.091 99.2516 223.791 97.9109 219.436 105.651C214.392 114.617 218.308 129.472 218.308 129.472Z" fill="#FFB882"/>
<path d="M220.206 121.234C227.748 116.473 231.795 110.906 230.957 107.716C230.079 104.376 224.964 103.197 222.119 107.491C218.823 112.464 220.206 121.234 220.206 121.234" fill="#DB5B3E"/>
<path d="M218.752 124.359C224.219 120.908 227.149 116.874 226.543 114.562C225.907 112.141 222.2 111.289 220.139 114.398C217.751 118.003 218.752 124.359 218.752 124.359" fill="#FFB882"/>
<path d="M261.793 374.712H270.05V374.52H261.813L261.793 374.712Z" fill="#DF8E8E"/>
<path d="M166.328 82.5855C166.68 78.8383 168.703 76.0128 170.837 76.2856C172.963 76.5524 174.4 79.8216 174.038 83.5728C173.679 87.3144 171.665 90.1416 169.541 89.8689C167.399 89.6021 165.963 86.3425 166.328 82.5855Z" fill="#4F3131"/>
<path d="M180.554 78.5674C178.1 76.5756 163.088 111.052 163.357 115.514C163.485 117.735 177.954 115.465 177.954 115.465C177.954 115.465 181.005 78.92 180.554 78.5685" fill="#FFB882"/>
<path d="M179.219 79.5527C174.982 86.5326 163.845 111.189 164.108 114.901C164.224 116.586 173.181 115.595 176.911 115.015C176.836 115.796 176.806 116.25 176.806 116.25C176.806 116.25 161.332 119.346 161.247 117.143C161.09 112.891 176.186 80.6283 179.218 79.5527" fill="#EA7B59"/>
<path d="M190.4 81.6713C190.771 77.9144 192.788 75.1025 194.916 75.3714C197.06 75.6251 198.492 78.8939 198.129 82.6393C197.775 86.3924 195.752 89.2196 193.614 88.9565C191.48 88.6839 190.048 85.4187 190.4 81.6713Z" fill="#4F3131"/>
<path d="M188.029 71.9429C191.791 76.8176 207.411 75.4731 208.626 72.7149C209.845 69.9587 210.395 67.1142 207.038 65.5699C203.679 64.0237 188.849 60.0902 186.798 62.2567C184.745 64.4213 186.298 69.6898 188.029 71.9429Z" fill="#A0442B"/>
<path d="M177.737 70.9115C175.058 75.5903 163.473 72.8725 162.517 69.9511C161.565 67.022 161.101 64.0506 163.551 62.758C166.01 61.4615 176.899 58.7072 178.462 61.1004C180.019 63.4898 178.979 68.7602 177.737 70.9115Z" fill="#A0442B"/>
<path d="M184.324 125.634C187.867 124.33 189.155 115.768 189.558 112.14L191.225 111.794C191.225 111.794 190.291 125.01 185.974 126.666C181.275 128.462 168.381 130.023 165.279 127.926C165.06 127.778 164.847 127.565 164.625 127.379C169.632 128.473 180.1 127.185 184.324 125.635" fill="#EA7B59"/>
<path d="M173.066 132.562C173.05 131.842 174.599 131.239 176.524 131.212C178.446 131.185 180.015 131.748 180.029 132.466C180.044 133.187 178.497 133.792 176.573 133.819C174.651 133.845 173.082 133.283 173.066 132.562Z" fill="#EA7B59"/>
<path d="M251.659 72.2214C251.659 72.2195 251.659 72.2175 251.659 72.2175C251.659 72.2213 251.659 72.2214 251.659 72.2214ZM251.647 72.1022C251.647 72.0907 251.645 72.0868 251.645 72.0753C251.645 72.0868 251.647 72.0984 251.647 72.1022ZM251.639 72.0119C251.637 71.9888 251.631 71.963 251.631 71.9404C251.633 71.9634 251.639 71.9892 251.639 72.0119ZM251.624 71.8946C251.622 71.8677 251.616 71.84 251.616 71.812C251.618 71.8389 251.624 71.8673 251.624 71.8946ZM251.612 71.7793C251.61 71.7524 251.604 71.7235 251.6 71.6966C251.604 71.7235 251.608 71.7524 251.612 71.7793ZM251.6 71.6759C251.596 71.6451 251.592 71.6128 251.588 71.5817C251.592 71.6124 251.596 71.6447 251.6 71.6759ZM251.584 71.5567C251.58 71.5259 251.576 71.4898 251.572 71.4586C251.576 71.4894 251.58 71.524 251.584 71.5567ZM251.568 71.4398C251.564 71.4091 251.56 71.3706 251.556 71.3356C251.56 71.3664 251.564 71.4048 251.568 71.4398ZM251.552 71.3245C251.54 71.2491 251.533 71.1765 251.525 71.1019C251.537 71.175 251.544 71.2499 251.552 71.3245ZM251.521 71.0958C251.517 71.0573 251.509 71.0204 251.505 70.9843C251.509 71.0227 251.517 71.0596 251.521 71.0958ZM251.505 70.9785C251.501 70.9401 251.493 70.9032 251.489 70.8651C251.493 70.9036 251.501 70.942 251.505 70.9785ZM251.489 70.8651C251.477 70.7882 251.465 70.7117 251.457 70.6364C251.469 70.7113 251.481 70.7882 251.489 70.8651ZM251.457 70.6325C251.45 70.5941 251.446 70.5595 251.442 70.523C251.446 70.5614 251.453 70.5937 251.457 70.6325ZM251.438 70.5133C251.43 70.4749 251.426 70.4403 251.422 70.4053C251.43 70.4437 251.434 70.4768 251.438 70.5133ZM251.418 70.3961C251.41 70.3576 251.406 70.323 251.402 70.2865C251.406 70.325 251.414 70.3596 251.418 70.3961ZM251.368 70.225C251.365 70.2212 251.361 70.2135 251.357 70.202C251.361 70.2058 251.365 70.2135 251.368 70.225ZM251.333 70.1635C251.329 70.1597 251.325 70.1481 251.321 70.1404C251.329 70.1443 251.329 70.152 251.333 70.1635ZM251.301 70.102C251.297 70.0982 251.289 70.0866 251.285 70.0751C251.293 70.0866 251.297 70.0905 251.301 70.102ZM251.27 70.0428C251.266 70.0312 251.258 70.0274 251.254 70.0159C251.262 70.0274 251.266 70.0312 251.27 70.0428ZM251.238 69.9813C251.234 69.9698 251.226 69.9582 251.222 69.9544C251.23 69.9659 251.234 69.9775 251.238 69.9813ZM251.206 69.9236C251.198 69.9121 251.194 69.9005 251.187 69.8928C251.194 69.9044 251.198 69.916 251.206 69.9236ZM251.175 69.8679C251.159 69.8449 251.147 69.8245 251.135 69.7987C251.151 69.8256 251.162 69.8422 251.175 69.8679ZM251.121 69.7737C251.117 69.7699 251.113 69.7622 251.109 69.7507C251.113 69.7545 251.117 69.7622 251.121 69.7737ZM251.09 69.7145C251.082 69.703 251.078 69.6914 251.07 69.6837C251.078 69.6953 251.082 69.7068 251.09 69.7145ZM251.058 69.6553C251.05 69.6399 251.042 69.6322 251.034 69.6169C251.042 69.6284 251.05 69.6437 251.058 69.6553ZM251.026 69.6C251.019 69.5884 251.011 69.573 251.003 69.5615C251.011 69.5769 251.019 69.5884 251.026 69.6ZM250.991 69.5384C250.983 69.5269 250.975 69.5115 250.967 69.5C250.975 69.5115 250.983 69.523 250.991 69.5384ZM250.959 69.4808C250.951 69.4654 250.943 69.4539 250.935 69.4423C250.947 69.4539 250.951 69.4692 250.959 69.4808ZM250.932 69.4262C250.868 69.3185 250.805 69.2113 250.742 69.1032C250.805 69.2109 250.868 69.3181 250.932 69.4262ZM250.74 69.1017C250.728 69.0863 250.716 69.0633 250.708 69.0472C250.72 69.0625 250.728 69.0779 250.74 69.1017ZM250.708 69.0463C250.696 69.0233 250.684 69.0079 250.676 68.9918C250.688 69.0072 250.7 69.0225 250.708 69.0463ZM250.676 68.991C247.883 64.3256 244.372 60.7703 240.683 58.0621C244.372 60.7722 247.885 64.3256 250.676 68.991ZM240.675 58.0584C240.663 58.0545 240.655 58.0468 240.643 58.0352C240.655 58.0391 240.663 58.0507 240.675 58.0584ZM240.624 58.0199C240.616 58.016 240.612 58.0161 240.604 58.0084C240.612 58.0122 240.62 58.0199 240.624 58.0199ZM240.566 57.9815C240.564 57.9795 240.564 57.9795 240.562 57.9776C240.562 57.9776 240.566 57.9795 240.566 57.9815ZM164.407 49.7973C164.409 49.7973 164.409 49.7954 164.409 49.7935C164.409 49.7954 164.409 49.7954 164.407 49.7973ZM164.423 49.7665C164.423 49.7646 164.423 49.7646 164.425 49.7627C164.423 49.7646 164.423 49.7646 164.423 49.7665ZM164.455 49.6996C164.457 49.6977 164.457 49.6957 164.459 49.6957C164.457 49.6977 164.457 49.6996 164.455 49.6996ZM164.47 49.6689C164.472 49.667 164.472 49.665 164.474 49.6573C164.472 49.6612 164.472 49.6612 164.47 49.6689ZM164.486 49.6343C164.486 49.6343 164.488 49.6304 164.488 49.6304C164.488 49.6323 164.486 49.6343 164.486 49.6343ZM164.502 49.6035C164.504 49.5997 164.506 49.5997 164.51 49.592C164.508 49.5958 164.506 49.5958 164.502 49.6035ZM164.518 49.5766C164.52 49.5728 164.522 49.5651 164.526 49.5612C164.524 49.5651 164.522 49.5728 164.518 49.5766ZM164.53 49.5497C164.532 49.5458 164.538 49.5382 164.538 49.5343C164.536 49.5382 164.53 49.5458 164.53 49.5497ZM164.542 49.5228C164.554 49.4997 164.565 49.4736 164.573 49.4551C164.561 49.4782 164.55 49.4985 164.542 49.5228ZM164.573 49.4536C164.577 49.4421 164.581 49.4382 164.585 49.4267C164.581 49.4382 164.577 49.4421 164.573 49.4536ZM164.585 49.4267C164.824 48.9214 165.073 48.4817 165.33 48.1071C165.073 48.4816 164.824 48.9215 164.585 49.4267ZM165.332 48.1052C165.336 48.1014 165.34 48.0937 165.344 48.0898C165.34 48.0937 165.336 48.1014 165.332 48.1052ZM165.348 48.0821C165.36 48.0668 165.368 48.0514 165.379 48.0387C165.368 48.0503 165.36 48.0656 165.348 48.0821ZM165.383 48.0276C165.387 48.0238 165.391 48.0237 165.391 48.016C165.389 48.0199 165.387 48.0199 165.383 48.0276ZM165.399 48.0045C165.401 48.0007 165.403 48.0007 165.407 47.993C165.403 47.9949 165.399 47.9968 165.399 48.0045ZM165.461 47.9218C165.461 47.9199 165.461 47.9181 165.463 47.9181C165.463 47.9181 165.461 47.9199 165.461 47.9218Z" fill="#37171A"/>
<path d="M173.283 78.4329C172.702 77.219 171.849 76.4123 170.837 76.2856C170.742 76.2741 170.645 76.2702 170.551 76.2702C169.555 76.2702 168.597 76.9329 167.842 78.0334C169.545 78.1122 171.363 78.241 173.283 78.4347" fill="#451B1B"/>
<path d="M180.596 79.4241C180.608 78.8997 180.594 78.5962 180.554 78.5674C180.485 78.512 180.406 78.4828 180.319 78.4828C180.05 78.4828 179.695 78.7381 179.27 79.2069C179.708 79.2761 180.149 79.3472 180.595 79.4241" fill="#DF6648"/>
<path d="M197.963 83.7917C198.036 83.4192 198.093 83.035 198.129 82.6393C198.492 78.8939 197.06 75.6249 194.916 75.3713C194.823 75.3598 194.731 75.3559 194.636 75.3559C192.638 75.3559 190.799 78.0219 190.414 81.5502C192.852 82.1898 195.371 82.9331 197.963 83.7955" fill="#451B1B"/>
<path d="M182.602 192.968L183.506 206.231L195.637 207.203L202.35 195.306L182.602 192.968Z" fill="#065898"/>
<path d="M171.825 313.87L183.722 206.192L195.773 207.161L200.347 315.089L183.557 334.931L171.825 313.87Z" fill="#065898"/>
<path d="M177.369 186.378L178.254 199.355L190.123 200.306L196.691 188.665L177.369 186.378Z" fill="#043D69"/>
<path d="M166.824 304.673L178.465 199.317L190.256 200.265L194.731 305.865L178.303 325.279L166.824 304.673Z" fill="#043D69"/>
<path d="M174.417 163.956L169.005 201.298L185.851 187.357L177.136 154.273" fill="white"/>
<path d="M222.263 151.931L224.703 161.876L203.993 204.231L185.851 187.357" fill="white"/>
<path d="M182.764 42.365C174.919 42.3265 168.412 43.8328 165.413 47.9752C163.772 50.243 162.494 55.2264 161.5 61.8206C174.92 62.0586 206.377 63.4802 229.245 71.4345C229.094 64.9973 228.485 58.4294 227.237 51.841C217.597 48.1314 197.741 42.4366 182.764 42.365Z" fill="#DF6648"/>
<path d="M217.246 49.9756C216.811 51.1434 215.72 54.2626 214.586 58.903L214.85 58.8646C218.402 58.8646 221.587 63.0629 223.799 69.7052C226.599 70.517 229.313 71.4066 231.888 72.3921C240.846 75.8208 247.075 77.9003 251.719 79.2712C251.887 76.8364 251.88 74.4732 251.658 72.2205V72.2089C251.654 72.1705 251.65 72.1347 251.646 72.0963C251.646 72.0848 251.646 72.0809 251.646 72.0694C251.645 72.0463 251.639 72.0309 251.639 72.0075C251.637 71.9844 251.635 71.9587 251.635 71.9372C251.633 71.9218 251.631 71.9102 251.631 71.8937C251.629 71.8668 251.623 71.8361 251.623 71.8092C251.621 71.7976 251.619 71.786 251.619 71.7784C251.617 71.7514 251.615 71.7207 251.611 71.6938C251.611 71.6899 251.61 71.6823 251.608 71.6707C251.604 71.64 251.604 71.6061 251.6 71.575C251.598 71.5635 251.596 71.5597 251.596 71.5481C251.592 71.5174 251.588 71.4851 251.584 71.4524C251.584 71.4485 251.586 71.437 251.584 71.4293C251.58 71.3986 251.576 71.3598 251.572 71.3252C251.57 71.3213 251.569 71.3213 251.569 71.3136C251.557 71.2386 251.55 71.1644 251.542 71.0914C251.542 71.0899 251.542 71.0875 251.542 71.0798C251.538 71.0414 251.53 71.0068 251.526 70.9699C251.526 70.9685 251.525 70.9671 251.523 70.9661C251.519 70.9277 251.511 70.8919 251.507 70.8534C251.495 70.7765 251.487 70.6977 251.475 70.6228V70.62C251.468 70.5815 251.464 70.5469 251.46 70.51C251.458 70.5061 251.46 70.5062 251.46 70.4985C251.452 70.46 251.448 70.4254 251.444 70.3885C251.444 70.3846 251.444 70.3847 251.444 70.377C251.436 70.3385 251.432 70.3035 251.428 70.267C251.416 70.2439 251.404 70.2286 251.396 70.2051C251.392 70.2013 251.388 70.1897 251.384 70.1821C251.377 70.1667 251.365 70.1552 251.357 70.1387C251.353 70.1348 251.349 70.1271 251.345 70.1155C251.337 70.104 251.333 70.0887 251.325 70.0721C251.321 70.0683 251.317 70.0567 251.309 70.0452C251.301 70.0337 251.298 70.0222 251.29 70.0145C251.286 70.0029 251.282 69.9991 251.274 69.9875C251.266 69.976 251.266 69.9645 251.258 69.9568C251.25 69.9453 251.246 69.9337 251.242 69.9222C251.234 69.9107 251.234 69.9068 251.226 69.8953C251.218 69.8837 251.214 69.8722 251.21 69.8607C251.207 69.8568 251.199 69.8453 251.195 69.8376C251.179 69.8107 251.167 69.7942 251.154 69.77C251.15 69.7661 251.146 69.7546 251.138 69.7431C251.135 69.7392 251.135 69.7277 251.131 69.72C251.123 69.7085 251.115 69.6931 251.107 69.6815C251.099 69.67 251.091 69.6585 251.087 69.6508C251.083 69.6392 251.079 69.6354 251.071 69.6239C251.063 69.6123 251.055 69.597 251.048 69.5854C251.044 69.5816 251.044 69.5701 251.04 69.5624C251.032 69.5508 251.024 69.5354 251.016 69.5239C251.012 69.5201 251.008 69.5085 251.004 69.5008C250.996 69.4893 250.988 69.4778 250.98 69.4624C250.976 69.4586 250.972 69.4471 250.968 69.4394C250.961 69.4278 250.957 69.4124 250.945 69.4009C250.943 69.397 250.941 69.3894 250.941 69.3855C250.877 69.2779 250.813 69.1721 250.75 69.0649V69.062C250.738 69.0466 250.726 69.0313 250.718 69.0075L250.715 69.0045C250.703 68.9892 250.695 68.9661 250.684 68.95V68.9471C247.892 64.2817 244.379 60.7294 240.69 58.0193C240.686 58.0193 240.686 58.0184 240.686 58.0164C240.674 58.0126 240.662 58.001 240.654 57.9933C240.646 57.9895 240.638 57.9818 240.634 57.978C240.626 57.9741 240.623 57.9664 240.615 57.9626C240.603 57.9511 240.591 57.9395 240.579 57.9357L240.576 57.9328C236.247 54.7809 231.685 52.7891 227.769 51.5349L217.246 49.9756Z" fill="#781E13"/>
<path d="M217.246 49.9756C217.059 50.4793 216.72 51.4674 216.337 52.6626C216.712 51.4948 217.061 50.4718 217.246 49.9756ZM216.337 52.6626C216.223 53.0197 216.14 53.2877 216.013 53.7036C216.129 53.3242 216.231 52.9928 216.337 52.6626ZM216.013 53.7036C215.884 54.125 215.761 54.548 215.622 55.0288C215.757 54.5616 215.888 54.1151 216.013 53.7036ZM215.622 55.0288C215.446 55.6405 215.267 56.3088 215.081 57.0124C215.266 56.3167 215.448 55.6342 215.622 55.0288ZM215.081 57.0124C214.947 57.5154 214.821 57.9747 214.685 58.5232C214.819 57.9842 214.949 57.5077 215.081 57.0124ZM214.685 58.5232C214.653 58.6589 214.62 58.765 214.586 58.9034L214.598 58.9005C214.626 58.7829 214.656 58.6391 214.685 58.5238L214.685 58.5232ZM214.597 58.9C214.025 61.2378 213.454 63.977 212.939 67.0395C216.646 67.8129 220.294 68.691 223.798 69.7067C221.587 63.0645 218.402 58.8662 214.849 58.8662L214.597 58.9Z" fill="#8C2618"/>
<path d="M222.926 1.90325C193.77 -6.20806 163.174 10.4344 154.587 39.0781L260.159 68.4554C268.749 39.8123 252.076 10.0161 222.926 1.90325Z" fill="#FCCB40"/>
<path d="M258.969 76.4701L151.381 46.3468C149.181 45.7325 147.923 43.4691 148.572 41.2948C149.219 39.1172 151.528 37.8555 153.73 38.4704C189.586 48.4583 225.248 56.636 261.315 68.5931C263.517 69.2079 264.776 71.4713 264.127 73.6457C263.48 75.8205 261.171 77.085 258.969 76.4701Z" fill="#FABA21"/>
<path d="M196.764 41.3366C200.397 41.3231 203.627 38.8243 205.669 35.8603C207.707 32.8958 208.847 29.4474 210.384 26.2079C214.723 17.0728 222.581 9.68542 231.873 5.39216C229.019 4.0252 226.005 2.87344 222.839 1.99209C218.086 0.670612 213.297 0.0192937 208.569 -0.0394186C200.146 4.71783 193.347 12.2147 189.536 20.9667C187.815 24.9187 186.683 29.3252 187.7 33.4775C188.716 37.6325 192.39 41.3524 196.764 41.3366Z" fill="#FABA21"/>
<path d="M198.779 75.1946C203.493 75.1946 207.996 74.1459 208.626 72.7149C209.845 69.9587 210.395 67.1141 207.038 65.5699C204.376 64.3445 194.511 61.621 189.511 61.621C188.199 61.621 187.224 61.807 186.798 62.2567C184.745 64.4213 186.298 69.6898 188.029 71.9429C189.84 74.2899 194.401 75.1946 198.779 75.1946Z" fill="#8C2618"/>
<path d="M171.689 73.4372C174.287 73.4372 176.691 72.7381 177.737 70.9115C178.979 68.7603 180.019 63.4898 178.462 61.1005C178.017 60.4205 176.82 60.1574 175.275 60.1574C171.388 60.1574 165.311 61.8303 163.551 62.758C161.101 64.0506 161.565 67.022 162.517 69.9511C163.1 71.7316 167.632 73.4372 171.689 73.4372Z" fill="#8C2618"/>
<path d="M191.569 196.138L178.594 343.549H183.783L191.569 196.138Z" fill="#043D69"/>
<path d="M261.866 371.167H269.721L269.69 364.621C269.688 364.621 269.688 364.621 269.688 364.621L269.591 343.593H264.871L261.863 371.167" fill="#D58174"/>
<path d="M261.5 374.52H269.737L269.721 371.167H261.865L261.5 374.52" fill="#D38072"/>
<path d="M267.022 323.883C267.817 323.74 268.65 323.266 269.494 322.456L269.455 313.953L269.399 302.071L267.022 323.883" fill="#043D69"/>
<path d="M264.873 343.593H269.593L269.494 322.456C268.65 323.266 267.816 323.741 267.022 323.883L264.873 343.593" fill="#043D69"/>
<path d="M357 414.582L349.8 299.597L269.399 302.071L269.929 416L357 414.582" fill="#FFD45C"/>
<path d="M352.434 409.31L346.001 303.312L273.961 305.507L274.443 410.747L352.434 409.31Z" fill="#FFEDD2"/>
<path d="M289.27 405.688C290.218 405.688 291.103 405.509 291.854 405.115C292.218 405.421 292.692 405.559 293.245 405.559C297.523 405.559 306.37 397.254 302.488 394.19C305.479 389.406 298.601 382.887 293.427 382.887C292.39 382.887 291.419 383.148 290.611 383.74C289.957 383.404 289.224 383.252 288.448 383.252C282.856 383.252 275.087 391.148 278.676 394.621C276.016 399.674 283.763 405.688 289.27 405.688" fill="#F9DBC2"/>
<path d="M279.871 392.579C276.109 388.563 285.903 379.042 290.866 381.886C295.318 378.421 305.114 386.832 301.806 392.521C305.841 396.048 294.936 406.001 292.01 403.279C287.304 405.876 277 398.456 279.871 392.579Z" fill="#ED4F5F"/>
<path d="M269.692 364.621L269.593 343.593L269.69 364.621" fill="#D0776B"/>
<path d="M269.494 322.456L269.454 313.953L269.494 322.456Z" fill="#572728"/>
<path d="M269.593 343.593L269.494 322.456L269.593 343.593Z" fill="#4E2324"/>
<path d="M356.269 402.906L353.625 360.695L352.815 347.763C351.426 347.578 350.041 347.331 348.654 347.029L351.928 400.988C353.355 401.637 354.801 402.276 356.271 402.906H356.269ZM274.234 364.917L273.991 311.865C272.482 311.456 270.964 311.096 269.441 310.797L269.457 313.953L269.497 322.456L269.595 343.593L269.694 364.621C271.22 364.656 272.733 364.753 274.237 364.917" fill="#F9C455"/>
<path d="M351.928 400.988L348.654 347.029C324.318 341.705 300.301 319 273.991 311.865L274.234 364.917C298.24 367.533 319.685 386.327 351.928 400.988" fill="#F9DBC2"/>
<path d="M279.968 334.975L343.744 333.16V337.777L279.968 339.592V334.975Z" fill="#BC9E7D"/>
<path d="M280.138 344.208L343.914 342.395V347.01L280.138 348.825V344.208Z" fill="#BC9E7D"/>
<path d="M312.144 351.068L341.883 351.042L341.591 355.649L311.849 355.676L312.144 351.066" fill="#BC9E7D"/>
<path d="M287.466 369.816L312.529 370.037L311.987 373.343L286.924 373.122L287.466 369.816Z" fill="#BC9E7D"/>
<path d="M283.467 392.579C283.243 387.938 286.569 384.176 290.896 384.176C295.223 384.176 298.91 387.938 299.135 392.579C299.358 397.221 296.033 400.982 291.706 400.982C287.379 400.982 283.69 397.221 283.467 392.579Z" fill="#B52D48"/>
<path d="M284.534 392.579C284.34 388.57 287.213 385.319 290.951 385.319C294.689 385.319 297.874 388.57 298.068 392.579C298.262 396.587 295.389 399.839 291.651 399.839C287.912 399.839 284.727 396.587 284.534 392.579Z" fill="#CE3A50"/>
<path d="M291.595 387.657C291.501 387.643 291.406 387.658 291.322 387.7C291.238 387.741 291.169 387.807 291.126 387.888L289.744 390.494L286.665 390.816C286.582 390.826 286.503 390.859 286.438 390.91C286.372 390.961 286.323 391.029 286.295 391.106C286.267 391.184 286.262 391.267 286.28 391.347C286.298 391.427 286.338 391.5 286.397 391.559L288.516 393.653L287.881 396.581C287.865 396.661 287.872 396.745 287.902 396.822C287.932 396.899 287.984 396.966 288.051 397.016C288.118 397.065 288.199 397.096 288.283 397.104C288.367 397.112 288.452 397.096 288.527 397.06L291.23 395.745L293.911 397.241C293.985 397.281 294.069 397.299 294.153 397.295C294.238 397.29 294.319 397.263 294.388 397.216C294.457 397.17 294.512 397.105 294.545 397.03C294.579 396.954 294.59 396.871 294.577 396.79L294.132 393.887L296.402 391.89C296.467 391.836 296.514 391.764 296.539 391.685C296.563 391.605 296.564 391.521 296.541 391.441C296.519 391.361 296.473 391.289 296.41 391.233C296.347 391.177 296.269 391.139 296.185 391.125L293.201 390.646L291.935 387.912C291.905 387.845 291.858 387.787 291.798 387.742C291.739 387.698 291.669 387.668 291.594 387.656L291.595 387.657Z" fill="#B52D48"/>
<path d="M290.699 315.628L290.719 316.532L287.329 316.6C287.311 318.338 287.321 320.04 287.358 321.704C287.396 323.369 287.46 325.027 287.553 326.679L285.936 326.71C285.998 325.032 286.01 323.336 285.972 321.623C285.934 319.91 285.847 318.246 285.712 316.632L282.331 316.699L282.311 315.795C283.657 315.871 285.052 315.895 286.495 315.867C287.938 315.839 289.339 315.761 290.7 315.632L290.699 315.628Z" fill="#ED4F5F"/>
<path d="M299.157 323.982L299.231 326.479C297.769 326.453 296.545 326.45 295.561 326.469C294.576 326.487 293.524 326.535 292.405 326.612C292.466 324.607 292.476 322.713 292.437 320.928C292.397 319.137 292.305 317.368 292.161 315.621C293.135 315.692 294.154 315.717 295.219 315.697C296.284 315.677 297.497 315.608 298.857 315.491L298.873 316.215L293.331 316.325L293.415 320.106C293.973 320.139 295.033 320.133 295.671 320.121C296.309 320.108 297.06 320.064 297.926 319.987L297.945 320.847L293.433 320.937L293.484 324.093L299.157 323.982Z" fill="#ED4F5F"/>
<path d="M304.162 320.572C304.892 320.556 305.504 320.344 305.997 319.93C306.495 319.511 306.737 318.957 306.722 318.269C306.706 317.581 306.453 317.043 305.961 316.655C305.469 316.26 304.87 316.069 304.164 316.083L302.865 316.1L302.965 320.587L304.162 320.572ZM301.675 315.474L304.34 315.357C305.294 315.34 306.132 315.55 306.854 315.987C307.633 316.466 308.033 317.195 308.055 318.172C308.073 318.962 307.818 319.643 307.292 320.214C306.765 320.78 306.1 321.094 305.296 321.158C305.399 321.325 305.618 321.704 305.953 322.295C306.295 322.886 306.571 323.345 306.783 323.673C306.995 323.994 307.324 324.447 307.77 325.029C308.223 325.606 308.533 326.013 308.699 326.251L306.874 326.289L304.469 321.288L302.981 321.316L303.093 326.355L300.552 326.414C300.611 324.603 300.62 322.777 300.579 320.938C300.538 319.098 300.448 317.266 300.308 315.44C300.693 315.472 301.149 315.487 301.675 315.477L301.675 315.474Z" fill="#ED4F5F"/>
<path d="M313.884 325.462C314.621 325.446 315.22 325.216 315.681 324.766C316.142 324.317 316.364 323.74 316.349 323.034C316.333 322.322 316.094 321.766 315.633 321.364C315.178 320.957 314.588 320.76 313.864 320.774L312.326 320.803L312.43 325.49C312.958 325.474 313.884 325.463 313.884 325.463L313.884 325.462ZM316.011 317.992C316.058 317.274 315.752 316.775 315.279 316.404C314.812 316.033 314.26 315.853 313.622 315.866C313.622 315.866 312.795 315.874 312.217 315.891L312.298 319.717C312.863 319.803 313.004 319.793 314.051 319.797C315.098 319.799 315.956 318.852 316.011 317.992L316.011 317.992ZM311.162 315.256L313.845 315.139C314.693 315.119 315.463 315.347 316.155 315.818C316.488 316.041 316.758 316.334 316.965 316.698C317.171 317.056 317.279 317.486 317.291 317.986C317.301 318.487 317.123 318.952 316.755 319.381C316.393 319.811 315.923 320.13 315.345 320.341C316.024 320.491 316.563 320.797 316.964 321.26C317.37 321.716 317.581 322.283 317.596 322.958C317.618 323.935 317.279 324.711 316.579 325.286C315.886 325.86 315.034 326.157 314.025 326.177L311.442 326.183C310.922 326.195 310.454 326.218 310.04 326.252C310.053 324.049 310.04 322.092 310.002 320.379C309.964 318.666 309.895 316.945 309.795 315.215C310.254 315.25 310.709 315.26 311.162 315.252L311.162 315.256Z" fill="#ED4F5F"/>
<path d="M321.404 321.033L324.083 320.986L322.894 316.548L321.404 321.033ZM328.631 325.844L326.061 325.899L324.447 321.893C323.802 321.863 323.814 321.835 323.095 321.848C322.383 321.864 321.724 321.894 321.118 321.95L319.851 326.012L318.903 326.029L322.515 314.997L323.946 314.971C324.911 317.958 326.049 320.754 327.358 323.36C327.495 323.635 327.708 324.059 328 324.633C328.298 325.2 328.508 325.604 328.631 325.843L328.631 325.844Z" fill="#ED4F5F"/>
<path d="M331.571 325.788L330.035 325.817C330.11 323.632 330.129 321.684 330.091 319.972C330.053 318.26 329.954 316.561 329.793 314.875L331.329 314.846C331.275 317.145 331.267 319.141 331.304 320.835C331.342 322.523 331.431 324.174 331.571 325.788L331.571 325.788Z" fill="#ED4F5F"/>
<path d="M334.567 320.414C336.935 317.937 338.671 316.024 339.774 314.675L340.861 314.654L337.308 318.687C338.385 321.146 339.768 323.445 341.457 325.585L339.525 325.62L336.156 319.974L334.596 321.706L334.685 325.714L333.068 325.746C333.143 323.795 333.16 321.921 333.12 320.124C333.08 318.32 332.982 316.548 332.825 314.807L334.442 314.776L334.567 320.414Z" fill="#ED4F5F"/>
<g clip-path="url(#clip1)">
<path d="M119.992 44.6592C119.424 44.1098 118.477 44.3463 118.234 45.0981C116.855 54.0555 115.763 56.0493 106.558 56.7817C105.564 57.0912 105.556 58.496 106.547 58.8165C115.273 60.5431 116.688 61.0566 118.231 70.4925C118.54 71.4869 119.945 71.4946 120.266 70.5039C121.298 61.0835 121.695 60.363 131.942 58.82C132.936 58.51 132.943 57.106 131.953 56.7853C123.227 55.8693 121.349 54.0825 120.269 45.1094C120.216 44.9385 120.121 44.7839 119.992 44.6594L119.992 44.6592Z" fill="#FCCB40"/>
<path d="M299.059 138.052C298.446 137.46 297.424 137.715 297.162 138.526C295.674 148.19 294.496 150.341 284.565 151.132C283.492 151.466 283.484 152.981 284.553 153.327C293.967 155.19 295.494 155.744 297.158 165.924C297.493 166.997 299.008 167.005 299.354 165.936C300.467 155.772 300.896 154.995 311.951 153.33C313.024 152.995 313.032 151.481 311.963 151.135C302.549 150.146 300.523 148.219 299.358 138.537C299.3 138.353 299.198 138.186 299.059 138.052L299.059 138.052Z" fill="#FCCB40"/>
<path d="M298.136 6.17773C297.8 5.85307 297.241 5.99293 297.097 6.43702C296.282 11.7293 295.637 12.9073 290.199 13.34C289.611 13.5229 289.607 14.3529 290.192 14.5422C295.348 15.5623 296.184 15.8657 297.095 21.4407C297.278 22.0282 298.108 22.0327 298.298 21.4483C298.907 15.8825 299.142 15.4568 305.196 14.5452C305.783 14.3622 305.788 13.5325 305.203 13.343C300.047 12.8018 298.937 11.7462 298.3 6.44457C298.268 6.34366 298.212 6.25221 298.136 6.17888L298.136 6.17773Z" fill="#FCCB40"/>
<path d="M88.588 126.26C88.2442 125.927 87.6707 126.071 87.5236 126.526C86.6886 131.949 86.0273 133.157 80.4541 133.6C79.8521 133.787 79.8474 134.638 80.4473 134.832C85.7304 135.877 86.5872 136.188 87.5214 141.901C87.7089 142.503 88.5594 142.508 88.7535 141.909C89.3782 136.205 89.6192 135.769 95.8231 134.835C96.4248 134.647 96.4294 133.797 95.8299 133.603C90.5466 133.048 89.4095 131.966 88.7557 126.533C88.7236 126.43 88.6659 126.336 88.5881 126.261L88.588 126.26Z" fill="#FCCB40"/>
</g>
</g>
<g clip-path="url(#clip2)">
<path d="M43.2055 385.188C36.8844 380.087 33.7162 374.861 33.7913 369.655C33.8816 363.228 38.9066 359.318 39.1207 359.155L39.7243 358.695L40.3849 359.08C40.4504 359.119 47.1399 362.951 52.8226 360.733C56.3427 359.359 58.8308 355.92 60.2174 350.513C64.3271 334.473 62.6791 333.873 51.9534 329.966C50.6322 329.486 49.1872 328.96 47.6128 328.354C43.1373 326.635 40.8564 324.115 40.8383 320.865C40.8068 315.167 48.0732 309.438 49.7922 308.757C50.5766 308.448 51.0578 308.789 51.2274 308.951C51.2274 308.951 43.0775 312.874 43.033 320.793C43.0212 323.148 44.8327 325.043 48.4362 326.427C49.998 327.026 51.4319 327.549 52.7392 328.025C64.4384 332.286 66.7624 333.787 62.3481 351.005C60.7863 357.101 57.8587 361.022 53.6446 362.661C48.0634 364.832 42.0358 362.278 39.9663 361.242C38.7842 362.361 36.0346 365.418 35.9846 369.708C35.9302 374.258 38.8398 378.933 44.6268 383.604L43.2055 385.188" fill="#844040"/>
<path d="M41.0929 361.819C29.1197 357.414 33.1141 337.787 34.0667 333.41C31.943 332.729 23.8487 330.577 13.4791 338.632L12.7837 338.448C26.6636 327.664 34.979 332.143 35.3281 332.339L36.0208 332.73L35.8343 333.474C35.7787 333.694 30.4117 355.66 41.8856 359.88L41.0928 361.819" fill="#844040"/>
<path d="M62.3509 351.349L60.7459 350.339C61.8071 346.023 65.6873 332.437 77.8455 331.84L77.9027 332.613C67.273 333.136 63.3246 347.392 62.351 351.349" fill="#844040"/>
<path d="M41.2097 322.257C41.115 322.009 40.3223 314.335 32.3393 314.689L32.1891 313.967C38.1959 313.181 41.7006 318.003 42.7089 320.666L41.2097 322.257Z" fill="#844040"/>
<path d="M34.4519 354.093C34.0291 351.286 34.6593 348.846 36.3253 346.835C39.9246 342.491 47.0802 341.786 47.382 341.758L47.4403 342.638C45.1163 343.108 40.6505 343.774 37.6381 347.418C36.36 348.964 35.9025 352.169 36.2376 354.388L34.4519 354.093" fill="#844040"/>
<path d="M62.4413 372.851L16.3579 375.486L20.8918 412H56.3984L62.4413 372.851Z" fill="#99938A"/>
<path d="M46.7547 401.29C34.6925 401.29 24.768 389.826 23.4523 375.081L16.3579 375.486L20.8918 412H56.3984L58.6904 397.15C55.1912 399.763 51.119 401.29 46.7547 401.29Z" fill="#827B71"/>
<path d="M27.5774 324.204L26.9236 324.558C31.7802 327.037 33.3657 332.791 33.3657 332.791L36.0207 332.73C36.0207 332.73 32.993 327.744 27.5774 324.204" fill="#844040"/>
<path d="M34.8301 322.379C34.1306 321.18 32.8483 320.339 31.5618 319.71C29.8831 318.888 28.0237 318.318 26.2936 318.516C24.8597 318.681 23.5621 319.478 23.0294 320.67C22.4648 320.461 21.8445 320.533 21.309 320.702C20.533 320.944 19.8265 321.329 19.2326 321.832C19.0169 320.79 18.6137 319.722 17.8376 318.879C17.0616 318.036 15.8516 317.469 14.8113 317.676C13.753 317.886 13.116 318.803 12.7057 319.724C12.1313 321.012 11.8239 322.433 11.8017 323.899C11.1397 323.494 10.4053 323.212 9.66405 323.077C9.4622 323.038 9.24265 323.016 9.08133 323.108C8.92008 323.204 8.85902 323.397 8.81448 323.578C8.58227 324.518 8.52509 325.519 8.63232 326.525L8.49198 326.641C7.14709 327.908 6.48923 329.725 6.17491 331.58C5.97188 332.787 5.89938 334.052 6.21437 335.311C7.44935 335.699 8.75948 335.702 9.87351 335.315C8.84014 336.016 8.27406 337.258 8.40061 338.552C8.76094 338.631 9.11968 338.71 9.47709 338.789C9.28391 339.528 9.20859 340.31 9.2559 341.101C9.3241 342.229 9.73019 343.503 10.7705 344.204C11.3449 344.592 12.0486 344.75 12.6995 344.717C14.794 344.612 16.0054 342.756 16.7605 340.994C17.442 339.41 17.983 337.755 18.3752 336.052C18.7659 336.049 19.0692 335.766 19.1318 335.413C19.1515 335.611 19.2627 335.816 19.4421 335.945C19.8174 335.665 20.0777 335.256 20.1708 334.795C20.5742 334.928 20.9872 334.749 21.2167 334.462C21.4461 334.174 21.5309 333.798 21.6102 333.431C22.2152 333.543 22.7562 333.029 22.6365 332.458C22.9996 332.803 23.4793 333.183 23.9202 333.068C24.1051 333.019 24.2427 332.889 24.3681 332.761C24.7881 332.33 25.1692 331.866 25.5071 331.371C26.3402 331.949 27.3805 331.55 28.1691 331.131L28.3804 330.951C28.5905 330.477 27.1468 330.132 27.4249 329.697C28.2775 329.804 29.0842 329.328 29.3053 328.589C30.0298 329.603 31.5486 329.909 32.6097 329.501C33.6723 329.095 34.344 328.151 34.7988 327.162C35.4608 325.718 35.7348 323.927 34.8303 322.377" fill="#5CB85C"/>
<path d="M44.6283 304.152C44.2305 303.52 43.41 303.216 42.6353 303.22C41.8607 303.224 41.1166 303.489 40.4004 303.768C39.9734 303.934 39.5269 304.125 39.2682 304.487C39.0108 304.849 39.0471 305.434 39.4575 305.632C39.1945 305.477 38.9888 305.932 38.6939 306.028C38.4353 306.113 38.189 305.891 37.979 305.725C36.9846 304.937 35.5174 305.129 34.2532 305.391C33.3394 305.58 32.4118 305.791 31.6121 306.249C30.8096 306.706 30.142 307.456 30.0349 308.336C29.9265 309.217 30.5175 310.189 31.4369 310.355C30.8444 310.865 30.7095 311.761 31.0545 312.437C30.5677 312.867 30.2033 313.424 30.092 314.043C29.9529 314.82 30.2407 315.675 30.8959 316.161C31.5259 316.628 32.3785 316.707 33.1796 316.717C34.7428 316.741 36.3825 316.548 37.6704 315.705C38.6022 315.095 38.9652 313.413 39.7315 313.141C40.2614 312.953 40.8691 313.291 41.4978 312.945C41.9762 312.682 42.3615 312.253 42.5381 311.754C42.8204 310.954 42.5617 310.006 41.9011 309.438C43.5033 309.26 44.6646 307.478 44.1153 306.039C44.826 305.742 45.0249 304.782 44.6284 304.151" fill="#5CB85C"/>
<path d="M64.9154 334.515C64.5969 333.725 64.8879 332.834 65.4398 332.208C65.9905 331.582 66.7666 331.173 67.5384 330.799C67.9974 330.577 68.4925 330.355 69.0183 330.415C69.544 330.475 70.071 330.938 69.9709 331.417C70.0103 331.089 70.587 331.26 70.8846 331.091C71.1476 330.943 71.1113 330.58 71.1031 330.285C71.0601 328.896 72.2769 327.845 73.4188 327.014C74.2435 326.412 75.0974 325.816 76.0974 325.506C77.0973 325.195 78.2795 325.209 79.1904 325.775C80.1028 326.34 80.6048 327.542 80.1153 328.411C81.0165 328.308 81.9609 328.863 82.3572 329.643C83.1096 329.567 83.8941 329.685 84.5602 330.053C85.3947 330.517 86.0024 331.385 85.9996 332.276C85.9983 333.136 85.4684 333.885 84.9135 334.544C83.8287 335.827 82.4908 337.016 80.7829 337.436C79.5451 337.741 77.694 336.788 76.8942 337.208C76.3421 337.499 76.2336 338.243 75.4631 338.497C74.8762 338.689 74.1961 338.684 73.5981 338.457C72.6399 338.094 71.925 337.179 71.8527 336.222C70.5523 337.391 68.042 337.012 67.067 335.499C66.2841 335.855 65.2326 335.305 64.9155 334.515" fill="#5CB85C"/>
<path d="M49.5905 340.484C49.1831 340.219 48.7269 340.118 48.3041 340.146C48.0191 339.619 47.4391 339.224 46.9342 339.263C47.1455 338.706 46.7674 337.896 46.2054 337.496C45.6422 337.095 44.969 337.05 44.4238 337.224C43.8787 337.399 43.4378 337.766 43.0163 338.138C42.4308 338.653 41.8175 339.309 41.9496 340.228C41.9772 340.422 42.0277 340.663 41.8885 340.753C41.7328 340.856 41.3906 340.726 41.3934 340.94C41.4131 340.627 41.0776 340.305 40.7731 340.25C40.4715 340.195 40.2043 340.326 39.9609 340.459C39.552 340.683 39.1417 340.929 38.8761 341.324C38.6103 341.721 38.513 342.3 38.755 342.832C38.9971 343.363 39.6382 343.758 40.0554 343.547C40.7271 344.576 42.1847 344.903 42.8356 344.171C42.9511 344.803 43.4281 345.43 44.0025 345.698C44.36 345.866 44.7465 345.891 45.065 345.782C45.485 345.638 45.4892 345.15 45.7813 344.975C46.204 344.72 47.3306 345.407 48.0121 345.244C48.9494 345.018 49.6212 344.274 50.1386 343.459C50.4043 343.041 50.6476 342.562 50.5808 341.995C50.5142 341.407 50.101 340.816 49.5905 340.484" fill="#489248"/>
<path d="M42.3585 318.908L42.5422 321.748C46.1318 314.763 58.2357 317.217 58.2357 317.217L58.4443 316.649C58.4443 316.649 46.9398 313.198 42.3586 318.908" fill="#844040"/>
<path d="M76.7774 311.68C76.4131 310.583 75.8609 309.492 74.904 308.782C73.1364 307.471 70.4619 307.873 68.6372 309.111C68.405 309.269 68.1713 309.45 68.0698 309.702C67.9681 309.955 68.054 310.294 68.3173 310.395C67.6219 310.098 66.7443 310.326 66.252 310.868C66.2678 310.676 66.1909 310.459 66.0225 310.343C65.7123 310.127 65.291 310.154 64.91 310.189C64.91 309.501 64.9021 308.785 64.5748 308.172C64.4357 307.912 64.1869 307.662 63.9045 307.593C64.2479 306.242 63.8363 304.738 63.3565 303.384C62.9115 302.132 62.4039 300.861 61.4609 299.889C59.9811 298.362 57.6168 297.824 55.4416 298.049C53.2664 298.273 51.2345 299.163 49.2958 300.129C48.2944 300.628 47.2402 301.216 46.7757 302.196C46.3126 303.176 46.8301 304.614 47.9564 304.715C47.2722 305.109 47.1026 306.115 47.6226 306.692C47.2859 306.802 47.0885 307.196 47.2137 307.512C47.3391 307.827 47.763 308.002 48.0913 307.874C47.7309 308.04 47.7507 308.584 48.0467 308.842C48.3416 309.098 48.7824 309.13 49.1816 309.096C49.482 309.072 49.7907 309.006 50.023 308.825C49.8409 309.891 50.0309 311.011 50.5098 311.998C51.0286 313.071 51.8533 313.982 52.7907 314.764C51.9798 315.447 51.8783 316.774 52.4638 317.683C53.1203 318.706 54.3859 319.246 55.6293 319.456C57.1828 319.716 59.0408 319.416 59.8503 318.131C59.7336 320.325 60.8335 322.545 62.6902 323.86C64.5455 325.174 67.1046 325.544 69.2895 324.815C69.9696 324.588 70.6441 324.233 71.0113 323.646C71.2754 323.223 71.3105 322.662 71.096 322.229C71.2407 322.217 71.3838 322.174 71.5174 322.111C72.961 321.442 74.4436 320.746 75.5187 319.61C77.488 317.528 77.6605 314.35 76.7773 311.68" fill="#5CB85C"/>
<path d="M62.8224 373.433L16.8656 376.37L17.2369 380.365L61.5957 378.962L62.8224 373.433" fill="#827B71"/>
<path d="M64.8947 371.733L14.1786 374.943L14.5248 378.675L65.2408 375.464L64.8947 371.733Z" fill="#BAB0A2"/>
<path d="M76.3713 312.825C75.5299 313.838 74.5619 314.845 73.2963 315.216C72.0293 315.586 70.4132 315.069 70.0057 313.818C69.4592 314.772 68.8528 315.723 67.9849 316.401C67.1157 317.079 65.928 317.442 64.8849 317.086C63.8405 316.731 63.0894 315.515 63.4747 314.484C61.7251 315.326 59.3301 313.981 59.1452 312.055C59.1057 311.658 59.1452 311.245 58.9895 310.878C58.6934 310.181 57.8296 309.933 57.0716 309.872C56.3122 309.811 55.4875 309.829 54.8811 309.37C54.1329 308.804 54.0132 307.744 54.0049 306.809C53.993 305.51 54.2024 303.987 55.3359 303.345C54.4792 303.118 53.5738 303.229 52.692 303.141C51.8089 303.054 50.852 302.682 50.5043 301.87C50.3261 301.454 50.3332 300.983 50.3762 300.533C50.4077 300.193 50.4929 299.862 50.5583 299.528C50.1327 299.722 49.7114 299.921 49.2955 300.129C48.2942 300.628 47.24 301.216 46.7754 302.196C46.3123 303.176 46.8298 304.614 47.9562 304.716C47.2719 305.109 47.1022 306.115 47.6222 306.692C47.2856 306.802 47.0883 307.197 47.2134 307.513C47.3388 307.827 47.7627 308.002 48.091 307.874C47.7306 308.041 47.7503 308.584 48.0464 308.842C48.3413 309.098 48.7821 309.13 49.1813 309.096C49.4817 309.072 49.7905 309.006 50.0228 308.825C49.8406 309.891 50.0306 311.011 50.5095 311.998C51.0282 313.071 51.853 313.983 52.7904 314.764C51.9796 315.448 51.878 316.774 52.4636 317.683C53.12 318.706 54.3856 319.247 55.629 319.456C57.1825 319.716 59.0406 319.416 59.85 318.131C59.7333 320.325 60.8333 322.545 62.69 323.861C64.5452 325.175 67.1043 325.545 69.2892 324.815C69.9693 324.588 70.6438 324.233 71.011 323.646C71.2751 323.223 71.3102 322.662 71.0957 322.229C71.2404 322.218 71.3835 322.174 71.5171 322.111C72.9607 321.442 74.4433 320.746 75.5184 319.61C77.3764 317.646 77.6226 314.713 76.905 312.146C76.7327 312.376 76.5545 312.604 76.3709 312.825" fill="#489248"/>
<path d="M84.5602 330.053C83.894 329.685 83.1096 329.567 82.3572 329.643L82.3028 329.569L82.2484 329.581C81.7226 329.638 81.1052 329.301 81.0996 328.811C81.1312 329.141 80.5308 329.099 80.2777 329.328C80.0537 329.531 80.1692 329.876 80.2422 330.163C80.5899 331.509 79.6344 332.799 78.7026 333.86C78.0295 334.626 77.3258 335.394 76.4176 335.915C75.5108 336.436 74.3536 336.682 73.3398 336.328C72.3259 335.976 71.5707 334.913 71.86 333.958C71.0019 334.256 69.9588 333.919 69.3997 333.246C68.6821 333.484 67.8893 333.541 67.1578 333.326C66.4832 333.127 65.8824 332.683 65.5347 332.116L65.4401 332.208C64.888 332.833 64.5973 333.724 64.9158 334.514C65.2327 335.304 66.2843 335.854 67.0673 335.498C68.0423 337.012 70.5526 337.39 71.853 336.222C71.9251 337.178 72.6402 338.093 73.5984 338.456C74.1965 338.683 74.8766 338.689 75.4635 338.496C76.234 338.243 76.3424 337.498 76.8946 337.207C77.6943 336.787 79.5454 337.741 80.7832 337.436C82.4911 337.016 83.829 335.827 84.9138 334.543C85.4687 333.885 85.9986 333.135 86 332.276C86.0028 331.384 85.395 330.517 84.5605 330.052" fill="#489248"/>
<path d="M44.6283 304.152C44.4142 303.811 44.0734 303.574 43.6867 303.421C43.5408 303.757 43.2626 304.028 42.8898 304.116C43.1902 305.625 41.7466 307.188 40.1347 307.097C40.691 307.766 40.7883 308.745 40.3751 309.486C40.1177 309.949 39.6659 310.308 39.1499 310.488C38.4726 310.724 37.9302 310.289 37.3766 310.387C36.5755 310.527 35.9344 312.125 34.9136 312.573C33.6034 313.144 32.0917 313.102 30.6494 312.869C30.3727 313.217 30.1683 313.614 30.0918 314.043C29.9526 314.819 30.2404 315.675 30.8956 316.161C31.5256 316.628 32.3782 316.707 33.1793 316.717C34.7425 316.74 36.3822 316.548 37.6701 315.705C38.6019 315.095 38.9649 313.413 39.7312 313.141C40.2611 312.952 40.8689 313.291 41.4975 312.945C41.976 312.682 42.3612 312.252 42.5378 311.753C42.8201 310.954 42.5615 310.006 41.9009 309.437C43.503 309.26 44.6643 307.478 44.1149 306.039C44.8256 305.742 45.0245 304.782 44.6281 304.151" fill="#489248"/>
<path d="M34.8301 322.379C34.1306 321.18 32.8483 320.339 31.5618 319.709C30.8929 319.381 30.1905 319.113 29.4826 318.899C28.7413 319.795 27.6468 320.304 26.5161 320.201C27.6232 320.608 28.6356 321.439 29.3408 322.52C28.7803 323.691 27.9194 324.623 26.9918 325.427C25.5676 326.66 23.9028 327.647 22.0559 327.775H21.8738C21.3147 328.621 20.6345 329.357 19.8543 329.937C19.7041 330.049 19.5346 330.158 19.3481 330.129C19.1644 330.102 19.0102 329.942 18.8766 329.787C18.3913 329.213 18.0032 328.531 17.7501 327.799C16.7988 328.917 15.6556 329.819 14.3928 330.451C13.4874 330.903 12.4123 331.208 11.4582 330.7C10.5236 330.2 9.95057 328.998 9.88801 327.856C9.82533 326.714 10.1955 325.633 10.6933 324.691C10.0257 324.702 9.35397 324.57 8.69753 324.348C8.59582 325.059 8.55284 325.786 8.63208 326.526L8.49174 326.642C7.14684 327.909 6.48899 329.726 6.17466 331.58C5.97163 332.788 5.89913 334.053 6.21413 335.312C7.44911 335.7 8.75924 335.702 9.87327 335.316C8.8399 336.017 8.27381 337.259 8.40036 338.553C8.76069 338.632 9.11943 338.711 9.47685 338.79C9.28367 339.529 9.20835 340.31 9.25565 341.102C9.32386 342.23 9.72994 343.504 10.7703 344.205C11.3447 344.593 12.0484 344.751 12.6993 344.718C14.7938 344.613 16.0051 342.757 16.7603 340.995C17.4418 339.411 17.9828 337.756 18.375 336.053C18.7657 336.05 19.069 335.767 19.1316 335.414C19.1513 335.612 19.2625 335.817 19.4419 335.946C19.8172 335.666 20.0774 335.257 20.1706 334.796C20.5739 334.929 20.987 334.75 21.2165 334.463C21.4459 334.175 21.5307 333.799 21.6099 333.432C22.2149 333.544 22.7559 333.03 22.6363 332.459C22.9994 332.804 23.4791 333.184 23.92 333.069C24.1049 333.02 24.2425 332.89 24.3678 332.762C24.7878 332.331 25.1689 331.867 25.5069 331.372C26.34 331.95 27.3802 331.551 28.1688 331.132L28.3801 330.952C28.5903 330.478 27.1466 330.133 27.4247 329.698C28.2772 329.805 29.0839 329.329 29.305 328.59C30.0296 329.603 31.5483 329.91 32.6095 329.502C33.672 329.096 34.3438 328.152 34.7986 327.163C35.4606 325.719 35.7345 323.928 34.8301 322.378" fill="#489248"/>
</g>
<defs>
<clipPath id="clip0">
<rect x="72" width="285" height="416" fill="white"/>
</clipPath>
<clipPath id="clip1">
<rect x="80" y="6" width="232.76" height="160.734" fill="white"/>
</clipPath>
<clipPath id="clip2">
<rect x="6" y="298" width="80" height="114" fill="white"/>
</clipPath>
</defs>
</svg>
