<svg width="14" height="14" viewBox="0 0 14 14" fill="none" xmlns="http://www.w3.org/2000/svg">
<path fill-rule="evenodd" clip-rule="evenodd" d="M6.99998 0.333313C3.31998 0.333313 0.333313 3.31998 0.333313 6.99998C0.333313 10.68 3.31998 13.6666 6.99998 13.6666C10.68 13.6666 13.6666 10.68 13.6666 6.99998C13.6666 3.31998 10.68 0.333313 6.99998 0.333313ZM6.33331 3.66665V4.99998H7.66665V3.66665H6.33331ZM6.33331 6.33331V10.3333H7.66665V6.33331H6.33331ZM1.66665 6.99998C1.66665 9.93998 4.05998 12.3333 6.99998 12.3333C9.93998 12.3333 12.3333 9.93998 12.3333 6.99998C12.3333 4.05998 9.93998 1.66665 6.99998 1.66665C4.05998 1.66665 1.66665 4.05998 1.66665 6.99998Z" fill="#292B2C"/>
</svg>
