<svg width="76" height="9" viewBox="0 0 76 9" fill="none" xmlns="http://www.w3.org/2000/svg">
<path d="M6.89305 0.153923H8.70218L5.07246 8.15789H3.64118L0 0.153923H1.85494L4.37399 5.95538L6.89305 0.153923ZM23.089 8.15789C22.2811 8.15789 21.577 7.98865 20.9768 7.65014C20.3765 7.31164 19.916 6.83398 19.5951 6.21715C19.2742 5.60032 19.1137 4.88571 19.1137 4.07331C19.1137 3.2609 19.2742 2.54629 19.5951 1.92946C19.916 1.31263 20.3765 0.836853 20.9768 0.502111C21.577 0.167369 22.2811 0 23.089 0C23.6175 0 24.1234 0.0808635 24.6066 0.242593C25.0898 0.404322 25.4862 0.628108 25.7958 0.913955L25.2295 2.16641C24.8822 1.90313 24.5367 1.71132 24.1932 1.59096C23.8497 1.4706 23.4929 1.41042 23.1229 1.41042C22.4132 1.41042 21.8677 1.63609 21.4864 2.08743C21.1051 2.53876 20.9145 3.20072 20.9145 4.07331C20.9145 4.94589 21.1051 5.60973 21.4864 6.06482C21.8677 6.51992 22.4132 6.74747 23.1229 6.74747C23.4929 6.74747 23.8497 6.68729 24.1932 6.56694C24.5367 6.44658 24.8822 6.25476 25.2295 5.99148L25.7958 7.24394C25.4862 7.52979 25.0898 7.75357 24.6066 7.9153C24.1234 8.07703 23.6175 8.15789 23.089 8.15789ZM33.3549 8.15789L32.5872 6.3868H28.8287L28.061 8.15789H26.262L29.9746 0.153923H31.4069L35.1195 8.15789H33.3549ZM29.3699 5.07944H32.0116L30.6907 2.15492L29.3699 5.07944ZM37.0248 8.15789V1.59577H34.498V0.153923H41.3354V1.59577H38.8085V8.15789H37.0248ZM42.5786 8.15789V0.153923H44.2879V8.15789H42.5786ZM51.7881 0.153923H53.4563V8.15789H52.1308L48.1203 3.06033V8.15789H46.4635V0.153923H47.7775L51.7881 5.22878V0.153923ZM55.4764 8.15789V0.153923H61.0707V1.52765H57.2261V3.40092H60.8405V4.77465H57.2261V6.78416H61.0707V8.15789H55.4764ZM65.4912 8.15789C64.8794 8.15789 64.2906 8.07703 63.7247 7.9153C63.1588 7.75357 62.6886 7.52979 62.3139 7.24394L62.8874 5.99148C63.6674 6.52557 64.5429 6.7926 65.5141 6.7926C66.0188 6.7926 66.4069 6.71174 66.6783 6.55001C66.9498 6.38828 67.0855 6.1645 67.0855 5.87865C67.0855 5.62289 66.9613 5.42355 66.7127 5.28063C66.4642 5.1377 66.0226 4.99854 65.3879 4.86314C64.6768 4.72022 64.109 4.54721 63.6846 4.34411C63.2602 4.141 62.9505 3.89089 62.7555 3.59376C62.5605 3.29663 62.463 2.92992 62.463 2.49363C62.463 2.0122 62.5987 1.58344 62.8702 1.20732C63.1416 0.831208 63.5221 0.535962 64.0115 0.321577C64.5009 0.107191 65.0667 0 65.7091 0C66.2826 0 66.8351 0.0827441 67.3666 0.248235C67.898 0.413725 68.3205 0.63563 68.634 0.913955L68.0605 2.16641C67.3188 1.63233 66.5388 1.36529 65.7206 1.36529C65.2541 1.36529 64.887 1.45368 64.6194 1.63045C64.3518 1.80722 64.2179 2.04981 64.2179 2.35823C64.2179 2.53876 64.2696 2.68733 64.3728 2.80392C64.476 2.92052 64.6481 3.02395 64.889 3.11422C65.1298 3.20448 65.472 3.29851 65.9156 3.3963C66.9555 3.62197 67.703 3.91157 68.158 4.26512C68.613 4.61867 68.8405 5.10761 68.8405 5.73196C68.8405 6.48419 68.5461 7.07657 67.9573 7.5091C67.3685 7.94163 66.5464 8.15789 65.4912 8.15789ZM71.5228 8.15789V1.59577H68.9959V0.153923H75.8333V1.59577H73.3064V8.15789H71.5228Z" fill="#043D69"/>
</svg>
