<svg width="129" height="17" viewBox="0 0 129 17" fill="none" xmlns="http://www.w3.org/2000/svg">
<path d="M23.808 1.85583H21.1444L21.8786 4.50691H23.0823L23.808 1.85583Z" fill="#00618F"/>
<path fill-rule="evenodd" clip-rule="evenodd" d="M18.7092 10.9078C16.6325 8.84075 16.6331 5.47565 18.7095 3.41064C20.7862 1.34396 24.1651 1.34396 26.2411 3.40961C28.3165 5.47565 28.3157 8.837 26.2411 10.9071C24.1647 12.9676 20.7862 12.9748 18.7092 10.9078ZM27.5619 2.09326C24.757 -0.697873 20.1939 -0.697873 17.3887 2.09397C14.5806 4.88511 14.5803 9.43025 17.3866 12.2225C20.1933 15.0136 24.757 15.0136 27.5619 12.2221C30.3669 9.42993 30.3665 4.88472 27.5619 2.09326Z" fill="#0099E2"/>
<path d="M11.7258 0.261668H14.8033L8.62875 13.8684H6.194L0 0.261668H3.15544L7.4406 10.1242L11.7258 0.261668ZM39.2766 13.8684C37.9023 13.8684 36.7047 13.5807 35.6836 13.0052C34.6625 12.4298 33.879 11.6178 33.3331 10.5692C32.7873 9.52055 32.5143 8.30571 32.5143 6.92462C32.5143 5.54353 32.7873 4.32869 33.3331 3.28008C33.879 2.23147 34.6625 1.42265 35.6836 0.853589C36.7047 0.284527 37.9023 0 39.2766 0C40.1757 0 41.0362 0.137468 41.8582 0.412408C42.6802 0.687348 43.3545 1.06778 43.8811 1.55372L42.9179 3.6829C42.327 3.23532 41.7394 2.90924 41.155 2.70463C40.5706 2.50002 39.9638 2.39772 39.3344 2.39772C38.1271 2.39772 37.1991 2.78135 36.5505 3.54863C35.9019 4.3159 35.5776 5.44122 35.5776 6.92462C35.5776 8.40802 35.9019 9.53653 36.5505 10.3102C37.1991 11.0839 38.1271 11.4707 39.3344 11.4707C39.9638 11.4707 40.5706 11.3684 41.155 11.1638C41.7394 10.9592 42.327 10.6331 42.9179 10.1855L43.8811 12.3147C43.3545 12.8006 42.6802 13.1811 41.8582 13.456C41.0362 13.731 40.1757 13.8684 39.2766 13.8684ZM56.74 13.8684L55.434 10.8576H49.0405L47.7345 13.8684H44.6742L50.9897 0.261668H53.4263L59.7418 13.8684H56.74ZM49.9611 8.63505H54.4549L52.208 3.66336L49.9611 8.63505ZM62.9829 13.8684V2.71281H58.6844V0.261668H70.3156V2.71281H66.0171V13.8684H62.9829ZM72.4303 13.8684V0.261668H75.3381V13.8684H72.4303ZM88.0966 0.261668H90.9344V13.8684H88.6797L81.8573 5.20256V13.8684H79.0389V0.261668H81.2742L88.0966 8.88893V0.261668ZM94.3709 13.8684V0.261668H103.887V2.59701H97.3472V5.78157H103.496V8.11691H97.3472V11.5331H103.887V13.8684H94.3709ZM111.407 13.8684C110.366 13.8684 109.365 13.731 108.402 13.456C107.439 13.1811 106.639 12.8006 106.002 12.3147L106.978 10.1855C108.304 11.0935 109.794 11.5474 111.446 11.5474C112.305 11.5474 112.965 11.41 113.426 11.135C113.888 10.8601 114.119 10.4796 114.119 9.9937C114.119 9.55891 113.908 9.22004 113.485 8.97707C113.062 8.7341 112.311 8.49753 111.231 8.26734C110.022 8.02437 109.056 7.73026 108.334 7.38498C107.612 7.03971 107.085 6.61452 106.753 6.10939C106.422 5.60427 106.256 4.98087 106.256 4.23917C106.256 3.42075 106.487 2.69185 106.948 2.05245C107.41 1.41305 108.057 0.911136 108.89 0.54668C109.722 0.182225 110.685 0 111.778 0C112.753 0 113.693 0.140665 114.597 0.421999C115.501 0.703333 116.22 1.08057 116.753 1.55372L115.778 3.6829C114.516 2.77496 113.189 2.32099 111.797 2.32099C111.004 2.32099 110.379 2.47125 109.924 2.77177C109.469 3.07228 109.241 3.48469 109.241 4.00899C109.241 4.3159 109.329 4.56846 109.504 4.76667C109.68 4.96488 109.973 5.14071 110.383 5.29417C110.792 5.44762 111.374 5.60747 112.129 5.77371C113.898 6.15735 115.17 6.64968 115.944 7.25071C116.718 7.85174 117.105 8.68294 117.105 9.74434C117.105 11.0231 116.604 12.0302 115.602 12.7655C114.6 13.5008 113.202 13.8684 111.407 13.8684ZM121.667 13.8684V2.71281H117.369V0.261668H129V2.71281H124.702V13.8684H121.667Z" fill="#043D69"/>
<path fill-rule="evenodd" clip-rule="evenodd" d="M23.2331 4.69739H21.4988L19.9831 14.6979L22.4792 16.37L24.9686 14.8942L23.2331 4.69739Z" fill="#00618F" stroke="white"/>
<path fill-rule="evenodd" clip-rule="evenodd" d="M21.6839 4.92114H22.3298L22.4738 16.1054L20.2264 14.5915L21.6839 4.92114Z" fill="#0099E2"/>
<path fill-rule="evenodd" clip-rule="evenodd" d="M21.0395 1.86057C21.6731 1.38639 22.0878 1.14929 22.2835 1.14929C22.4793 1.14929 22.5307 2.25745 22.4378 4.47375H21.7567L21.0395 1.86057Z" fill="#0099E2"/>
</svg>
