<svg width="32" height="32" viewBox="0 0 32 32" fill="none" xmlns="http://www.w3.org/2000/svg">
<path d="M18.9681 4.14819H13.0422L14.6757 10.0741H17.3535L18.9681 4.14819Z" fill="#00618F"/>
<path fill-rule="evenodd" clip-rule="evenodd" d="M7.62426 24.3822C3.004 19.7617 3.00545 12.2397 7.62499 7.62379C12.2452 3.00414 19.7626 3.00414 24.3814 7.62148C28.9986 12.2397 28.997 19.7533 24.3814 24.3806C19.7619 28.9864 12.2452 29.0026 7.62426 24.3822ZM27.32 4.67906C21.0795 -1.55995 10.9276 -1.55995 4.6864 4.68065C-1.561 10.9197 -1.56172 21.0794 4.68177 27.3209C10.9261 33.5599 21.0795 33.5599 27.32 27.32C33.5604 21.0787 33.5596 10.9188 27.32 4.67906Z" fill="#0099E2"/>
</svg>
