<svg width="287" height="38" viewBox="0 0 287 38" fill="none" xmlns="http://www.w3.org/2000/svg">
<path d="M52.9681 4.14819H47.0422L48.6757 10.0741H51.3535L52.9681 4.14819Z" fill="#00618F"/>
<path fill-rule="evenodd" clip-rule="evenodd" d="M41.6243 24.3822C37.004 19.7617 37.0054 12.2397 41.625 7.62379C46.2452 3.00414 53.7626 3.00414 58.3814 7.62148C62.9986 12.2397 62.997 19.7533 58.3814 24.3806C53.7619 28.9864 46.2452 29.0026 41.6243 24.3822ZM61.32 4.67906C55.0795 -1.55995 44.9276 -1.55995 38.6864 4.68065C32.439 10.9197 32.4383 21.0794 38.6818 27.3209C44.9261 33.5599 55.0795 33.5599 61.32 27.32C67.5604 21.0787 67.5596 10.9188 61.32 4.67906Z" fill="#0099E2"/>
<path d="M26.0875 0.584906H32.9344L19.1973 31H13.7805L0 0.584906H7.02023L16.5539 22.6305L26.0875 0.584906ZM87.3829 31C84.3253 31 81.6607 30.3569 79.389 29.0705C77.1173 27.7842 75.3742 25.9691 74.1598 23.6252C72.9453 21.2812 72.3381 18.5657 72.3381 15.4786C72.3381 12.3914 72.9453 9.6759 74.1598 7.33195C75.3742 4.988 77.1173 3.18004 79.389 1.90802C81.6607 0.636001 84.3253 0 87.3829 0C89.3832 0 91.2977 0.307281 93.1265 0.921853C94.9553 1.53643 96.4555 2.38681 97.6271 3.47303L95.4839 8.23237C94.1695 7.2319 92.8622 6.503 91.562 6.04564C90.2618 5.58829 88.9117 5.35961 87.5115 5.35961C84.8254 5.35961 82.7609 6.21714 81.3178 7.93223C79.8748 9.6473 79.1533 12.1627 79.1533 15.4786C79.1533 18.7944 79.8748 21.317 81.3178 23.0463C82.7609 24.7757 84.8254 25.6404 87.5115 25.6404C88.9117 25.6404 90.2618 25.4117 91.562 24.9544C92.8622 24.497 94.1695 23.7681 95.4839 22.7676L97.6271 27.527C96.4555 28.6132 94.9553 29.4636 93.1265 30.0781C91.2977 30.6927 89.3832 31 87.3829 31ZM126.235 31L123.33 24.2699H109.106L106.2 31H99.3914L113.442 0.584906H118.863L132.914 31H126.235ZM111.154 19.3019H121.152L116.153 8.18868L111.154 19.3019ZM140.125 31V6.06394H130.561V0.584906H156.439V6.06394H146.875V31H140.125ZM161.143 31V0.584906H167.613V31H161.143ZM195.998 0.584906H202.311V31H197.295L182.117 11.6293V31H175.846V0.584906H180.819L195.998 19.8694V0.584906ZM209.957 31V0.584906H231.129V5.80509H216.579V12.9235H230.258V18.1437H216.579V25.7798H231.129V31H209.957ZM247.859 31C245.544 31 243.315 30.6927 241.174 30.0781C239.032 29.4636 237.252 28.6132 235.834 27.527L238.005 22.7676C240.957 24.7972 244.27 25.8119 247.946 25.8119C249.856 25.8119 251.324 25.5046 252.352 24.89C253.379 24.2755 253.893 23.4251 253.893 22.3389C253.893 21.367 253.423 20.6095 252.482 20.0664C251.542 19.5233 249.87 18.9945 247.468 18.4799C244.777 17.9368 242.628 17.2794 241.022 16.5076C239.415 15.7358 238.243 14.7854 237.505 13.6563C236.767 12.5272 236.398 11.1337 236.398 9.4758C236.398 7.64637 236.912 6.01707 237.939 4.58783C238.967 3.15859 240.407 2.03666 242.259 1.22199C244.111 0.407326 246.253 0 248.684 0C250.854 0 252.945 0.314427 254.957 0.943292C256.968 1.57216 258.567 2.41539 259.753 3.47303L257.583 8.23237C254.776 6.20285 251.824 5.18811 248.727 5.18811C246.962 5.18811 245.573 5.52397 244.56 6.19571C243.547 6.86745 243.04 7.7893 243.04 8.96127C243.04 9.6473 243.236 10.2118 243.626 10.6549C244.017 11.098 244.668 11.491 245.58 11.834C246.491 12.177 247.786 12.5343 249.465 12.9059C253.401 13.7635 256.23 14.864 257.952 16.2075C259.674 17.551 260.535 19.4089 260.535 21.7815C260.535 24.6399 259.421 26.891 257.192 28.5346C254.964 30.1782 251.853 31 247.859 31ZM270.686 31V6.06394H261.123V0.584906H287V6.06394H277.437V31H270.686Z" fill="#043D69"/>
<path fill-rule="evenodd" clip-rule="evenodd" d="M51.6891 10.5H47.8306L44.4584 32.8542L50.0118 36.5917L55.5502 33.2928L51.6891 10.5Z" fill="#00618F" stroke="white"/>
<path fill-rule="evenodd" clip-rule="evenodd" d="M48.2426 11H49.6795L50 36L45 32.616L48.2426 11Z" fill="#0099E2"/>
<path fill-rule="evenodd" clip-rule="evenodd" d="M46.8088 4.15877C48.2185 3.09882 49.141 2.56885 49.5765 2.56885C50.012 2.56885 50.1265 5.0459 49.9198 10H48.4044L46.8088 4.15877Z" fill="#0099E2"/>
</svg>
