<svg width="20" height="20" viewBox="0 0 20 20" fill="none" xmlns="http://www.w3.org/2000/svg">
<path fill-rule="evenodd" clip-rule="evenodd" d="M7.19 7.13L10 0.5L12.81 7.13L20 7.74L14.54 12.47L16.18 19.5L10 15.77L3.82 19.5L5.46 12.47L0 7.74L7.19 7.13ZM10.97 7.92L10 5.63L9.03 7.9L8.56 9.01L7.36 9.11L4.89 9.32L6.77 10.95L7.68 11.74L7.41 12.92L6.85 15.33L8.97 14.05L10 13.43L11.03 14.07L13.15 15.35L12.59 12.94L12.32 11.76L13.23 10.97L15.11 9.34L12.64 9.13L11.44 9.03L10.97 7.92Z" fill="#F0AD4E"/>
</svg>
