<svg width="18" height="18" viewBox="0 0 18 18" fill="none" xmlns="http://www.w3.org/2000/svg">
<path fill-rule="evenodd" clip-rule="evenodd" d="M8.99175 0.666626C4.39175 0.666626 0.666748 4.39996 0.666748 8.99996C0.666748 13.6 4.39175 17.3333 8.99175 17.3333C13.6001 17.3333 17.3334 13.6 17.3334 8.99996C17.3334 4.39996 13.6001 0.666626 8.99175 0.666626ZM9.00008 15.6666C5.31675 15.6666 2.33341 12.6833 2.33341 8.99996C2.33341 5.31663 5.31675 2.33329 9.00008 2.33329C12.6834 2.33329 15.6667 5.31663 15.6667 8.99996C15.6667 12.6833 12.6834 15.6666 9.00008 15.6666ZM8.16675 4.83329H9.41675V9.20829L13.1667 11.4333L12.5417 12.4583L8.16675 9.83329V4.83329Z" fill="#C4C4C4"/>
</svg>
